<?xml version="1.0" encoding="utf-8"?>
<!-- Generator: Adobe Illustrator 26.0.0, SVG Export Plug-In . SVG Version: 6.00 Build 0)  -->
<svg version="1.1" xmlns="http://www.w3.org/2000/svg" xmlns:xlink="http://www.w3.org/1999/xlink" x="0px" y="0px"
	 viewBox="0 0 500 500" style="enable-background:new 0 0 500 500;" xml:space="preserve">
<style type="text/css">
	.st0{fill:#F5F5F5;}
	.st1{fill:#E0E0E0;}
	.st2{fill:#455A64;}
	.st3{fill:#37474F;}
	.st4{fill:#263238;}
	.st5{fill:#F0F0F0;}
	.st6{fill:#FAFAFA;}
	.st7{opacity:0.1;}
	.st8{fill:#4A394A;}
	.st9{opacity:0.7;fill:#4A394A;}
	.st10{fill:#AE6DA5;}
	.st11{opacity:0.6;fill:#AE6DA5;}
	.st12{opacity:0.5;fill:#AE6DA5;}
	.st13{opacity:0.3;fill:#4A394A;}
	.st14{opacity:0.1;fill:#AE6DA5;}
	.st15{opacity:0.1;fill:#4A394A;}
	.st16{fill:#27DEBF;}
	.st17{opacity:0.3;fill:#AE6DA5;}
	.st18{opacity:0.81;}
	.st19{fill:#FFA8A7;}
	.st20{fill:#EBEBEB;}
	.st21{fill:#F28F8F;}
	.st22{fill:#B16668;}
	.st23{opacity:0.15;}
	.st24{opacity:0.3;}
	.st25{opacity:0.4;}
	.st26{opacity:0.81;fill:#AE6DA5;}
	.st27{fill:none;stroke:#AE6DA5;stroke-miterlimit:10;}
	.st28{fill:url(#SVGID_1_);}
	.st29{fill:url(#SVGID_00000062183605799812031340000007399203136386046850_);}
	.st30{fill:url(#SVGID_00000000197713037282684340000009197034540008000191_);}
	.st31{fill:url(#SVGID_00000004509908156952198840000001725043729400562605_);}
	.st32{fill:none;stroke:#4A394A;stroke-miterlimit:10;}
	.st33{fill:url(#SVGID_00000113333440764018602250000016084510841045594787_);}
	.st34{fill:url(#SVGID_00000074425679308210635190000007597210723086584730_);}
</style>
<g id="Floor">
	<ellipse id="Floor_2_" class="st0" cx="250" cy="367.69" rx="244.94" ry="123.89"/>
</g>
<g id="Shadows">
	<ellipse id="Shadow_44_" class="st1" cx="110.48" cy="400.09" rx="71.75" ry="41.43"/>
	<path id="Shadow_33_" class="st1" d="M465.43,354.99L347.6,287.17c-1.99-1.15-5.21-1.15-7.2,0L165.96,387.89
		c-1.99,1.15-1.99,3.01,0,4.16l117.83,67.82c1.99,1.15,5.21,1.15,7.2,0l174.44-100.71C467.42,358.01,467.42,356.14,465.43,354.99z"
		/>
</g>
<g id="Cargo_Car_1_">
	<g id="Cargo_Car">
		<path class="st1" d="M357.14,114.07l70.02,40.44c4.97,2.87,9.04,9.91,9.04,15.65v138.2l5.95,3.43V169.62
			c0-8.1-5.74-18.04-12.76-22.09l-72.51-41.89c-7.02-4.05-12.76-0.74-12.76,7.36v142.17l5.98,3.46l0-140.5
			C350.1,113.66,353.27,111.83,357.14,114.07z"/>
		<g>
			<path id="XMLID_670_" class="st2" d="M303.13,422.9c0-7.29,5.12-16.15,11.43-19.79c3.31-1.91,6.28-1.99,8.37-0.59l0,0l7.71,4.4
				l-16.39,27.84l-7.64-4.39l0.01-0.02C304.48,429.19,303.13,426.62,303.13,422.9z"/>
			<path id="XMLID_657_" class="st3" d="M322.56,407.73c-6.31,3.64-11.42,12.5-11.42,19.79c0,7.29,5.11,10.24,11.42,6.6
				c6.31-3.64,11.42-12.5,11.42-19.79C333.98,407.04,328.87,404.08,322.56,407.73z"/>
			<path id="XMLID_655_" class="st4" d="M326.43,418.68c0-2.85-1.73-4.16-3.87-2.92c-2.14,1.23-3.87,4.54-3.87,7.39
				c0,2.85,1.73,4.16,3.87,2.92C324.69,424.84,326.43,421.53,326.43,418.68z"/>
			<path id="XMLID_652_" class="st5" d="M309.17,395.57c0,0,0.01,13.04,6.22,17.65c1.17,0.87,2.42,1.47,3.15,2.08
				c1.59,1.32,0.54,3.75-1.39,4.78c-2.8,1.5-18.05-2.56-24.52-14.96L309.17,395.57z"/>
			<path id="XMLID_651_" class="st6" d="M315.09,398.97c0,0,0.01,13.04,6.22,17.65c1.17,0.87,2.42,1.47,3.15,2.08
				c1.59,1.32,0.54,3.75-1.39,4.78c-2.8,1.5-18.05-2.56-24.52-14.96L315.09,398.97z"/>
			<path id="XMLID_650_" class="st4" d="M322.56,419.65c-0.61,0.35-1.1,1.2-1.1,1.9c0,0.7,0.49,0.98,1.1,0.63
				c0.61-0.35,1.1-1.2,1.1-1.9C323.65,419.59,323.16,419.3,322.56,419.65z"/>
		</g>
		<g>
			<path id="XMLID_635_" class="st2" d="M427.17,351.29c0-7.29,5.12-16.15,11.43-19.79c3.31-1.91,6.28-1.99,8.37-0.59l0,0l7.71,4.4
				l-16.39,27.84l-7.64-4.39l0.01-0.02C428.52,357.58,427.17,355.01,427.17,351.29z"/>
			<path id="XMLID_630_" class="st3" d="M446.6,336.11c-6.31,3.64-11.42,12.5-11.42,19.79c0,7.29,5.11,10.24,11.42,6.6
				c6.31-3.64,11.42-12.5,11.42-19.79C458.02,335.42,452.91,332.47,446.6,336.11z"/>
			<path id="XMLID_574_" class="st4" d="M450.47,347.07c0-2.85-1.73-4.16-3.87-2.92c-2.14,1.23-3.87,4.54-3.87,7.39
				c0,2.85,1.73,4.16,3.87,2.92C448.73,353.23,450.47,349.92,450.47,347.07z"/>
			<path id="XMLID_543_" class="st5" d="M433.21,323.95c0,0,0.01,13.04,6.22,17.65c1.17,0.87,2.42,1.47,3.15,2.08
				c1.59,1.32,0.54,3.75-1.39,4.78c-2.8,1.5-18.05-2.56-24.52-14.96L433.21,323.95z"/>
			<path id="XMLID_541_" class="st6" d="M439.13,327.35c0,0,0.01,13.04,6.22,17.65c1.17,0.87,2.42,1.47,3.15,2.08
				c1.59,1.32,0.54,3.75-1.39,4.78c-2.8,1.5-18.05-2.56-24.52-14.96L439.13,327.35z"/>
			<path id="XMLID_540_" class="st4" d="M446.6,348.04c-0.61,0.35-1.1,1.2-1.1,1.9c0,0.7,0.49,0.98,1.1,0.63
				c0.61-0.35,1.1-1.2,1.1-1.9C447.69,347.97,447.2,347.69,446.6,348.04z"/>
		</g>
		<g>
			<polygon class="st2" points="448.13,315.25 338.13,251.73 158.42,355.48 268.41,419.01 			"/>
			<polygon class="st3" points="448.13,315.25 448.12,322.16 268.41,425.92 268.41,419.01 			"/>
			<polygon class="st4" points="158.42,355.48 158.42,362.39 268.41,425.92 268.41,419.01 			"/>
		</g>
	</g>
</g>
<g id="Boxes">
	<polygon id="Shadow_32_" class="st7" points="432.14,315.55 337.8,370.04 241.58,314.56 336.18,260.21 	"/>
	<g id="XMLID_28343_">
		<polygon id="XMLID_28977_" class="st8" points="428.93,250.76 342.53,200.79 251.22,253.64 337.62,303.61 		"/>
		<polygon id="XMLID_4471_" class="st9" points="428.93,250.76 342.53,200.79 251.22,253.64 337.62,303.61 		"/>
	</g>
	<g id="XMLID_28342_">
		<polygon id="XMLID_28975_" class="st10" points="337.62,364 428.93,311.16 428.93,250.76 337.62,303.61 		"/>
		<polygon id="XMLID_539_" class="st11" points="337.62,364 428.93,311.16 428.93,250.76 337.62,303.61 		"/>
	</g>
	<g>
		<g id="XMLID_28327_">
			<g id="XMLID_28326_">
				<path id="XMLID_28569_" class="st2" d="M347.7,343.97c-0.28,0-0.55-0.07-0.79-0.21c-0.62-0.36-0.98-1.15-0.98-2.17v-6.4
					c0,0,0-0.01,0-0.01v-0.47l0.33,0.06l5.02-2.95v7.15c0,1.82-1.09,3.87-2.47,4.67C348.43,343.86,348.05,343.97,347.7,343.97z
					 M346.74,335.67v5.92c0,0.72,0.21,1.26,0.58,1.47c0.36,0.21,0.79,0.05,1.09-0.12c1.12-0.65,2.07-2.47,2.07-3.98v-0.52h-1.86
					l-0.37-2.51L346.74,335.67z M349.31,337.64h1.16v-4.42l-2.99,1.76l1.48,0.26L349.31,337.64z"/>
			</g>
			<g id="XMLID_28329_">
				<path id="XMLID_28568_" class="st2" d="M348.6,349.07c-0.22,0-0.4-0.18-0.4-0.4v-5.38c0-0.22,0.18-0.4,0.4-0.4
					c0.22,0,0.4,0.18,0.4,0.4v5.38C349,348.89,348.82,349.07,348.6,349.07z"/>
			</g>
			<g id="XMLID_28357_">
				<path id="XMLID_28567_" class="st2" d="M346.27,350.42c-0.14,0-0.27-0.07-0.35-0.2c-0.11-0.19-0.05-0.44,0.15-0.55l4.67-2.7
					c0.19-0.12,0.44-0.05,0.55,0.15c0.11,0.19,0.05,0.44-0.15,0.55l-4.67,2.7C346.4,350.4,346.33,350.42,346.27,350.42z"/>
			</g>
		</g>
		<g id="XMLID_28339_">
			<g id="XMLID_28341_">
				<path id="XMLID_28566_" class="st2" d="M362.92,341.16c-0.16,0-0.31-0.04-0.44-0.11c-0.31-0.18-0.48-0.53-0.48-0.97v-1.1
					c0-0.22,0.18-0.4,0.4-0.4c0.22,0,0.4,0.18,0.4,0.4v1.1c0,0.17,0.05,0.25,0.08,0.27c0.03,0.02,0.13,0.01,0.26-0.07
					c0.35-0.21,0.75-1.01,0.75-1.82v-7.15c0-0.22,0.18-0.4,0.4-0.4s0.4,0.18,0.4,0.4v7.15c0,1.05-0.49,2.13-1.14,2.51
					C363.33,341.1,363.12,341.16,362.92,341.16z"/>
			</g>
			<g id="XMLID_28340_">
				<path id="XMLID_28563_" class="st2" d="M358.68,334.91v-0.7c0-3.28,2.31-7.28,5.15-8.92c1.45-0.84,2.84-0.96,3.9-0.35
					c1.06,0.61,1.65,1.87,1.65,3.55v0.23L358.68,334.91z M366.23,325.37c-0.61,0-1.29,0.21-2.01,0.62c-2.41,1.39-4.41,4.63-4.7,7.5
					l9.04-5.22c-0.05-1.26-0.48-2.19-1.24-2.62C367,325.46,366.63,325.37,366.23,325.37z"/>
			</g>
		</g>
		<g id="XMLID_28332_">
			<g id="XMLID_28336_">
				<g id="XMLID_28338_">
					<path id="XMLID_28562_" class="st2" d="M377.36,332.92c-0.22,0-0.4-0.18-0.4-0.4v-13.69c0-0.22,0.18-0.4,0.4-0.4
						c0.22,0,0.4,0.18,0.4,0.4v13.69C377.77,332.74,377.59,332.92,377.36,332.92z"/>
				</g>
				<g id="XMLID_28337_">
					<path id="XMLID_28561_" class="st2" d="M376.19,321.95c-0.05,0-0.11-0.01-0.16-0.03c-0.21-0.09-0.3-0.32-0.21-0.53l1.43-3.31
						l1.6,1.84c0.15,0.17,0.13,0.42-0.04,0.57c-0.17,0.14-0.42,0.13-0.57-0.04l-0.76-0.88l-0.92,2.13
						C376.49,321.86,376.34,321.95,376.19,321.95z"/>
				</g>
			</g>
			<g id="XMLID_28333_">
				<g id="XMLID_28335_">
					<path id="XMLID_28560_" class="st2" d="M381.09,330.8c-0.22,0-0.4-0.18-0.4-0.4v-13.69c0-0.22,0.18-0.4,0.4-0.4
						c0.22,0,0.4,0.18,0.4,0.4v13.69C381.49,330.62,381.31,330.8,381.09,330.8z"/>
				</g>
				<g id="XMLID_28334_">
					<path id="XMLID_28559_" class="st2" d="M379.91,319.83c-0.05,0-0.11-0.01-0.16-0.03c-0.21-0.09-0.3-0.32-0.21-0.53l1.43-3.31
						l1.6,1.84c0.15,0.17,0.13,0.42-0.04,0.57c-0.17,0.14-0.42,0.13-0.57-0.04l-0.76-0.88l-0.92,2.13
						C380.21,319.74,380.06,319.83,379.91,319.83z"/>
				</g>
			</g>
		</g>
	</g>
	<g id="XMLID_28331_">
		<polygon id="XMLID_529_" class="st10" points="337.62,364.01 251.22,314.04 251.22,253.64 337.62,303.61 		"/>
		<polygon id="XMLID_526_" class="st12" points="337.62,364.01 251.22,314.04 251.22,253.64 337.62,303.61 		"/>
	</g>
	<g id="XMLID_28328_">
		<polygon id="XMLID_523_" class="st3" points="287.49,283.76 293.41,287.17 293.41,277.99 287.49,274.58 		"/>
		<polygon id="XMLID_28272_" class="st2" points="293.41,278 384.72,225.15 378.8,221.73 287.49,274.58 		"/>
		<polygon class="st3" points="290.17,273.02 296.08,276.44 299.38,274.54 293.47,271.11 		"/>
	</g>
	<g>
		<g id="XMLID_1348_">
			<path id="XMLID_1349_" class="st6" d="M384.95,232.85l-24.19,13.93c-0.44,0.25-0.32,0.73,0.26,1.07l27.31,15.77
				c0.58,0.34,1.41,0.41,1.85,0.15l24.19-13.94c0.44-0.25,0.32-0.73-0.26-1.07L386.8,233C386.21,232.66,385.39,232.6,384.95,232.85z
				"/>
		</g>
		<g>
			<g>
				<path class="st1" d="M397.17,256.56c0.17,0,0.34-0.09,0.43-0.25c0.14-0.24,0.06-0.54-0.18-0.68l-22.67-13.09
					c-0.24-0.14-0.54-0.06-0.68,0.18c-0.14,0.24-0.06,0.54,0.18,0.68l22.67,13.09C396.99,256.54,397.08,256.56,397.17,256.56z"/>
			</g>
			<g>
				<path class="st1" d="M394.65,258c0.17,0,0.34-0.09,0.43-0.25c0.14-0.24,0.06-0.54-0.18-0.68l-22.67-13.09
					c-0.24-0.14-0.54-0.06-0.68,0.18c-0.14,0.24-0.06,0.54,0.18,0.68l22.67,13.09C394.48,257.98,394.56,258,394.65,258z"/>
			</g>
			<g>
				<path class="st1" d="M392.13,259.44c0.17,0,0.34-0.09,0.43-0.25c0.14-0.24,0.06-0.54-0.18-0.68l-22.67-13.09
					c-0.24-0.14-0.54-0.06-0.68,0.18c-0.14,0.24-0.06,0.54,0.18,0.68l22.67,13.09C391.96,259.42,392.05,259.44,392.13,259.44z"/>
			</g>
			<g>
				<path class="st1" d="M389.61,260.89c0.17,0,0.34-0.09,0.43-0.25c0.14-0.24,0.06-0.54-0.18-0.68l-22.67-13.09
					c-0.24-0.14-0.55-0.06-0.68,0.18c-0.14,0.24-0.06,0.54,0.18,0.68l22.67,13.09C389.44,260.87,389.53,260.89,389.61,260.89z"/>
			</g>
		</g>
		<g id="XMLID_1296_">
			<g id="XMLID_1346_">
				<polygon id="XMLID_1347_" class="st2" points="412.09,249.2 411.2,248.69 400.88,254.65 401.76,255.16 				"/>
			</g>
			<g id="XMLID_1344_">
				<polygon id="XMLID_1345_" class="st2" points="408.5,247.12 406.97,246.25 396.64,252.22 398.17,253.09 				"/>
			</g>
			<g id="XMLID_1340_">
				<polygon id="XMLID_1342_" class="st2" points="404.91,245.05 404.03,244.54 393.7,250.51 394.58,251.01 				"/>
			</g>
			<g id="XMLID_1337_">
				<polygon id="XMLID_1338_" class="st2" points="402.22,243.48 400.44,242.47 390.11,248.43 391.89,249.44 				"/>
			</g>
			<g id="XMLID_1335_">
				<polygon id="XMLID_1336_" class="st2" points="397.73,240.91 396.85,240.4 386.52,246.36 387.4,246.87 				"/>
			</g>
			<g id="XMLID_1333_">
				<polygon id="XMLID_1334_" class="st2" points="395.17,239.4 393.26,238.33 382.93,244.29 384.84,245.36 				"/>
			</g>
			<g id="XMLID_1330_">
				<polygon id="XMLID_1332_" class="st2" points="390.55,236.76 389.67,236.25 379.35,242.22 380.23,242.72 				"/>
			</g>
			<g id="XMLID_1317_">
				<polygon id="XMLID_1324_" class="st2" points="388.52,235.57 388.08,235.32 377.75,241.28 378.19,241.54 				"/>
			</g>
			<g id="XMLID_1315_">
				<polygon id="XMLID_1316_" class="st2" points="392.14,237.74 391.7,237.48 381.37,243.44 381.81,243.7 				"/>
			</g>
			<g id="XMLID_1308_">
				<polygon id="XMLID_1309_" class="st2" points="399.41,241.89 398.97,241.63 388.64,247.6 389.08,247.85 				"/>
			</g>
			<g id="XMLID_1306_">
				<polygon id="XMLID_1307_" class="st2" points="403.36,244.18 402.92,243.92 392.59,249.89 393.03,250.14 				"/>
			</g>
			<g id="XMLID_1304_">
				<polygon id="XMLID_1305_" class="st2" points="406.16,245.85 405.72,245.59 395.39,251.56 395.83,251.81 				"/>
			</g>
			<g id="XMLID_1302_">
				<polygon id="XMLID_1303_" class="st2" points="410.09,248.03 409.65,247.78 399.32,253.74 399.76,253.99 				"/>
			</g>
			<g id="XMLID_1299_">
				<polygon id="XMLID_1301_" class="st2" points="386.97,234.69 386.08,234.18 375.76,240.14 376.64,240.65 				"/>
			</g>
		</g>
	</g>
	<g>
		<g id="XMLID_1428_">
			<path id="XMLID_1429_" class="st6" d="M400.88,305.15l0,15.15c0,0.58,0.41,0.82,0.91,0.53l23.65-13.65
				c0.51-0.29,0.92-1,0.91-1.58l0-15.16c0-0.58-0.41-0.82-0.91-0.53l-23.65,13.66C401.29,303.86,400.88,304.57,400.88,305.15z"/>
		</g>
		<g id="XMLID_1393_">
			<g id="XMLID_1426_">
				<polygon id="XMLID_1427_" class="st2" points="424.89,292.07 424.13,292.51 424.13,306.28 424.89,305.84 				"/>
			</g>
			<g id="XMLID_1424_">
				<polygon id="XMLID_1425_" class="st2" points="421.78,293.87 420.46,294.64 420.46,308.41 421.78,307.64 				"/>
			</g>
			<g id="XMLID_1422_">
				<polygon id="XMLID_1423_" class="st2" points="418.67,295.66 417.91,296.1 417.91,309.87 418.67,309.43 				"/>
			</g>
			<g id="XMLID_1420_">
				<polygon id="XMLID_1421_" class="st2" points="416.33,296.99 414.8,297.89 414.8,311.67 416.33,310.76 				"/>
			</g>
			<g id="XMLID_1418_">
				<polygon id="XMLID_1419_" class="st2" points="412.46,299.25 411.69,299.69 411.69,313.46 412.46,313.02 				"/>
			</g>
			<g id="XMLID_1416_">
				<polygon id="XMLID_1417_" class="st2" points="410.22,300.51 408.58,301.48 408.58,315.25 410.22,314.28 				"/>
			</g>
			<g id="XMLID_1413_">
				<polygon id="XMLID_1414_" class="st2" points="406.24,302.84 405.47,303.28 405.48,317.05 406.24,316.61 				"/>
			</g>
			<g id="XMLID_1411_">
				<polygon id="XMLID_1412_" class="st2" points="404.47,303.84 404.08,304.07 404.08,317.84 404.47,317.61 				"/>
			</g>
			<g id="XMLID_1409_">
				<polygon id="XMLID_1410_" class="st2" points="407.66,302.09 407.27,302.31 407.27,316.08 407.66,315.86 				"/>
			</g>
			<g id="XMLID_1407_">
				<polygon id="XMLID_1408_" class="st2" points="413.92,298.42 413.54,298.64 413.54,312.41 413.92,312.19 				"/>
			</g>
			<g id="XMLID_1404_">
				<polygon id="XMLID_1406_" class="st2" points="417.35,296.45 416.96,296.67 416.96,310.44 417.35,310.22 				"/>
			</g>
			<g id="XMLID_1398_">
				<polygon id="XMLID_1401_" class="st2" points="419.81,295.09 419.43,295.31 419.43,309.08 419.81,308.86 				"/>
			</g>
			<g id="XMLID_1396_">
				<polygon id="XMLID_1397_" class="st2" points="423.15,293.06 422.77,293.28 422.77,307.05 423.15,306.83 				"/>
			</g>
			<g id="XMLID_1394_">
				<polygon id="XMLID_1395_" class="st2" points="403.13,304.63 402.37,305.07 402.37,318.84 403.13,318.4 				"/>
			</g>
		</g>
	</g>
	<polygon id="Shadow_15_" class="st7" points="423.05,249.48 339.23,297.93 250.56,246.63 334.38,198.18 	"/>
	<g id="XMLID_4745_">
		<polygon id="XMLID_4746_" class="st8" points="248.25,181.02 328.67,134.51 419.66,187.16 339.25,233.67 		"/>
		<polygon id="XMLID_4743_" class="st13" points="248.25,181.02 328.67,134.51 419.66,187.16 339.25,233.67 		"/>
	</g>
	<g>
		<g id="XMLID_1391_">
			<path id="XMLID_1392_" class="st6" d="M286.79,164.55l24.19,13.93c0.44,0.25,0.32,0.73-0.26,1.07l-27.31,15.77
				c-0.58,0.34-1.41,0.41-1.85,0.15l-24.19-13.94c-0.44-0.25-0.32-0.73,0.26-1.07l27.31-15.76
				C285.53,164.36,286.36,164.29,286.79,164.55z"/>
		</g>
		<g>
			<g>
				<path class="st1" d="M274.58,188.26c-0.17,0-0.34-0.09-0.43-0.25c-0.14-0.24-0.06-0.54,0.18-0.68L297,174.24
					c0.24-0.14,0.54-0.06,0.68,0.18c0.14,0.24,0.06,0.54-0.18,0.68l-22.67,13.09C274.75,188.24,274.66,188.26,274.58,188.26z"/>
			</g>
			<g>
				<path class="st1" d="M277.09,189.7c-0.17,0-0.34-0.09-0.43-0.25c-0.14-0.24-0.06-0.54,0.18-0.68l22.67-13.09
					c0.24-0.14,0.54-0.06,0.68,0.18c0.14,0.24,0.06,0.54-0.18,0.68l-22.67,13.09C277.27,189.68,277.18,189.7,277.09,189.7z"/>
			</g>
			<g>
				<path class="st1" d="M279.61,191.14c-0.17,0-0.34-0.09-0.43-0.25c-0.14-0.24-0.06-0.54,0.18-0.68l22.67-13.09
					c0.24-0.14,0.54-0.06,0.68,0.18c0.14,0.24,0.06,0.54-0.18,0.68l-22.67,13.09C279.78,191.12,279.7,191.14,279.61,191.14z"/>
			</g>
			<g>
				<path class="st1" d="M282.13,192.58c-0.17,0-0.34-0.09-0.43-0.25c-0.14-0.24-0.06-0.54,0.18-0.68l22.67-13.09
					c0.24-0.14,0.54-0.06,0.68,0.18c0.14,0.24,0.06,0.54-0.18,0.68l-22.67,13.09C282.3,192.56,282.21,192.58,282.13,192.58z"/>
			</g>
		</g>
		<g id="XMLID_1351_">
			<g id="XMLID_1388_">
				<polygon id="XMLID_1390_" class="st2" points="259.66,180.9 260.54,180.39 270.87,186.35 269.98,186.86 				"/>
			</g>
			<g id="XMLID_1383_">
				<polygon id="XMLID_1384_" class="st2" points="263.24,178.82 264.78,177.95 275.1,183.91 273.57,184.79 				"/>
			</g>
			<g id="XMLID_1380_">
				<polygon id="XMLID_1382_" class="st2" points="266.83,176.75 267.72,176.24 278.04,182.2 277.16,182.71 				"/>
			</g>
			<g id="XMLID_1378_">
				<polygon id="XMLID_1379_" class="st2" points="269.52,175.18 271.3,174.17 281.63,180.13 279.85,181.14 				"/>
			</g>
			<g id="XMLID_1376_">
				<polygon id="XMLID_1377_" class="st2" points="274.01,172.6 274.89,172.1 285.22,178.06 284.34,178.57 				"/>
			</g>
			<g id="XMLID_1373_">
				<polygon id="XMLID_1375_" class="st2" points="276.57,171.1 278.48,170.02 288.81,175.99 286.9,177.06 				"/>
			</g>
			<g id="XMLID_1370_">
				<polygon id="XMLID_1371_" class="st2" points="281.19,168.46 282.07,167.95 292.4,173.91 291.52,174.42 				"/>
			</g>
			<g id="XMLID_1368_">
				<polygon id="XMLID_1369_" class="st2" points="283.22,167.27 283.67,167.02 293.99,172.98 293.55,173.23 				"/>
			</g>
			<g id="XMLID_1366_">
				<polygon id="XMLID_1367_" class="st2" points="279.6,169.43 280.04,169.18 290.37,175.14 289.93,175.4 				"/>
			</g>
			<g id="XMLID_1364_">
				<polygon id="XMLID_1365_" class="st2" points="272.33,173.59 272.77,173.33 283.1,179.29 282.66,179.55 				"/>
			</g>
			<g id="XMLID_1362_">
				<polygon id="XMLID_1363_" class="st2" points="268.38,175.88 268.82,175.62 279.15,181.59 278.71,181.84 				"/>
			</g>
			<g id="XMLID_1360_">
				<polygon id="XMLID_1361_" class="st2" points="265.59,177.55 266.03,177.29 276.35,183.25 275.91,183.51 				"/>
			</g>
			<g id="XMLID_1357_">
				<polygon id="XMLID_1359_" class="st2" points="261.65,179.73 262.1,179.47 272.42,185.44 271.98,185.69 				"/>
			</g>
			<g id="XMLID_1353_">
				<polygon id="XMLID_1355_" class="st2" points="284.78,166.39 285.66,165.88 295.99,171.84 295.1,172.35 				"/>
			</g>
		</g>
	</g>
	<g id="XMLID_4740_">
		<polygon id="XMLID_4741_" class="st10" points="339.25,294.07 248.25,241.42 248.25,181.02 339.25,233.67 		"/>
	</g>
	<g id="XMLID_4558_">
		<polygon id="XMLID_4564_" class="st10" points="339.25,294.07 419.66,247.56 419.66,187.16 339.25,233.67 		"/>
		<polygon id="XMLID_4557_" class="st14" points="339.25,294.07 419.66,247.56 419.66,187.16 339.25,233.67 		"/>
	</g>
	<g>
		<g id="XMLID_4554_">
			<polygon id="XMLID_4555_" class="st3" points="383.39,217.28 377.48,220.69 377.48,211.52 383.39,208.1 			"/>
		</g>
		<g id="XMLID_4547_">
			<polygon id="XMLID_276_" class="st2" points="377.48,211.52 286.48,158.87 292.39,155.45 383.39,208.1 			"/>
		</g>
	</g>
	<g>
		<g id="XMLID_1264_">
			<g id="XMLID_1290_">
				<path id="XMLID_1291_" class="st2" d="M305.89,265.18c-1.18-0.68-2.11-2.44-2.11-3.99v-6.11l4.29,2.52l0.28-0.05v0.4
					c0,0,0,0.01,0,0.01v5.47c0,0.87-0.31,1.55-0.84,1.86c-0.21,0.12-0.43,0.18-0.67,0.18C306.54,265.46,306.22,265.36,305.89,265.18
					z M306.37,258.59l-0.31,2.14h-1.59v0.45c0,1.29,0.81,2.84,1.77,3.4c0.25,0.14,0.62,0.28,0.93,0.1c0.31-0.18,0.49-0.64,0.49-1.26
					v-5.06L306.37,258.59z M305.76,258l1.27-0.23l-2.56-1.5v3.78h0.99L305.76,258z"/>
			</g>
			<g id="XMLID_1288_">
				<path id="XMLID_1289_" class="st2" d="M306.07,269.82c0.19,0,0.34-0.15,0.34-0.34v-4.59c0-0.19-0.15-0.34-0.34-0.34
					c-0.19,0-0.34,0.15-0.34,0.34v4.59C305.72,269.67,305.88,269.82,306.07,269.82z"/>
			</g>
			<g id="XMLID_1265_">
				<path id="XMLID_1285_" class="st2" d="M308.06,270.97c0.12,0,0.23-0.06,0.3-0.17c0.1-0.16,0.04-0.37-0.13-0.47l-3.99-2.31
					c-0.16-0.1-0.37-0.04-0.47,0.13c-0.1,0.16-0.04,0.37,0.13,0.47l3.99,2.31C307.95,270.96,308.01,270.97,308.06,270.97z"/>
			</g>
		</g>
		<g id="XMLID_948_">
			<g id="XMLID_1262_">
				<path id="XMLID_1263_" class="st2" d="M320.03,278.07c0.13,0,0.26-0.03,0.38-0.1c0.26-0.15,0.41-0.45,0.41-0.83v-0.94
					c0-0.19-0.15-0.34-0.34-0.34c-0.19,0-0.34,0.15-0.34,0.34v0.94c0,0.14-0.04,0.21-0.07,0.23c-0.03,0.01-0.11,0.01-0.22-0.06
					c-0.3-0.18-0.64-0.86-0.64-1.55v-6.11c0-0.19-0.15-0.34-0.34-0.34c-0.19,0-0.34,0.15-0.34,0.34v6.11c0,0.9,0.42,1.82,0.98,2.15
					C319.67,278.02,319.86,278.07,320.03,278.07z"/>
			</g>
			<g id="XMLID_1236_">
				<path id="XMLID_1238_" class="st2" d="M314.51,267.45v-0.2c0-1.43,0.5-2.51,1.41-3.03c0.91-0.52,2.09-0.42,3.33,0.3
					c2.43,1.4,4.4,4.82,4.4,7.62v0.6L314.51,267.45z M316.27,264.81c-0.65,0.37-1.02,1.17-1.06,2.24l7.73,4.46
					c-0.25-2.45-1.96-5.22-4.02-6.41c-0.61-0.35-1.2-0.53-1.72-0.53C316.85,264.58,316.54,264.66,316.27,264.81z"/>
			</g>
		</g>
		<g id="XMLID_801_">
			<g id="XMLID_816_">
				<g id="XMLID_819_">
					<path id="XMLID_820_" class="st2" d="M333.86,285.78c0.19,0,0.34-0.15,0.34-0.34v-11.7c0-0.19-0.15-0.34-0.34-0.34
						c-0.19,0-0.34,0.15-0.34,0.34v11.7C333.51,285.63,333.67,285.78,333.86,285.78z"/>
				</g>
				<g id="XMLID_817_">
					<path id="XMLID_818_" class="st2" d="M334.86,276.41c0.05,0,0.09-0.01,0.14-0.03c0.18-0.08,0.25-0.28,0.18-0.45l-1.22-2.83
						l-1.36,1.58c-0.13,0.14-0.11,0.36,0.03,0.48c0.15,0.12,0.36,0.11,0.49-0.03l0.65-0.75l0.79,1.82
						C334.6,276.33,334.73,276.41,334.86,276.41z"/>
				</g>
			</g>
			<g id="XMLID_802_">
				<g id="XMLID_814_">
					<path id="XMLID_815_" class="st2" d="M330.67,283.97c0.19,0,0.34-0.15,0.34-0.34v-11.7c0-0.19-0.15-0.34-0.34-0.34
						c-0.19,0-0.34,0.15-0.34,0.34v11.7C330.33,283.82,330.48,283.97,330.67,283.97z"/>
				</g>
				<g id="XMLID_805_">
					<path id="XMLID_807_" class="st2" d="M331.68,274.59c0.05,0,0.09-0.01,0.14-0.03c0.18-0.08,0.25-0.28,0.18-0.45l-1.22-2.83
						l-1.36,1.58c-0.13,0.14-0.11,0.36,0.03,0.48c0.15,0.12,0.36,0.11,0.49-0.03l0.65-0.75l0.79,1.82
						C331.42,274.52,331.55,274.59,331.68,274.59z"/>
				</g>
			</g>
		</g>
	</g>
	<g>
		<g id="XMLID_786_">
			<path id="XMLID_794_" class="st6" d="M276.04,235.95l0,15.15c0,0.58-0.41,0.82-0.91,0.53l-23.65-13.65
				c-0.51-0.29-0.91-1-0.91-1.58l0-15.16c0-0.58,0.41-0.82,0.91-0.53l23.65,13.66C275.63,234.66,276.04,235.37,276.04,235.95z"/>
		</g>
		<g id="XMLID_277_">
			<g id="XMLID_780_">
				<polygon id="XMLID_785_" class="st2" points="252.02,222.88 252.79,223.32 252.79,237.09 252.02,236.65 				"/>
			</g>
			<g id="XMLID_778_">
				<polygon id="XMLID_779_" class="st2" points="255.13,224.67 256.45,225.44 256.45,239.21 255.13,238.44 				"/>
			</g>
			<g id="XMLID_758_">
				<polygon id="XMLID_760_" class="st2" points="258.24,226.46 259.01,226.9 259,240.67 258.24,240.23 				"/>
			</g>
			<g id="XMLID_741_">
				<polygon id="XMLID_746_" class="st2" points="260.59,227.79 262.11,228.7 262.11,242.47 260.59,241.56 				"/>
			</g>
			<g id="XMLID_735_">
				<polygon id="XMLID_736_" class="st2" points="264.46,230.05 265.22,230.49 265.22,244.26 264.46,243.82 				"/>
			</g>
			<g id="XMLID_733_">
				<polygon id="XMLID_734_" class="st2" points="266.7,231.31 268.33,232.29 268.33,246.06 266.7,245.08 				"/>
			</g>
			<g id="XMLID_727_">
				<polygon id="XMLID_730_" class="st2" points="270.68,233.64 271.44,234.08 271.44,247.85 270.67,247.41 				"/>
			</g>
			<g id="XMLID_722_">
				<polygon id="XMLID_725_" class="st2" points="272.45,234.65 272.83,234.87 272.83,248.64 272.45,248.42 				"/>
			</g>
			<g id="XMLID_712_">
				<polygon id="XMLID_719_" class="st2" points="269.26,232.89 269.64,233.11 269.64,246.88 269.26,246.66 				"/>
			</g>
			<g id="XMLID_703_">
				<polygon id="XMLID_708_" class="st2" points="263,229.22 263.38,229.44 263.38,243.21 263,242.99 				"/>
			</g>
			<g id="XMLID_701_">
				<polygon id="XMLID_702_" class="st2" points="259.57,227.25 259.95,227.47 259.95,241.24 259.57,241.02 				"/>
			</g>
			<g id="XMLID_681_">
				<polygon id="XMLID_700_" class="st2" points="257.1,225.89 257.49,226.11 257.49,239.88 257.1,239.66 				"/>
			</g>
			<g id="XMLID_471_">
				<polygon id="XMLID_671_" class="st2" points="253.76,223.86 254.15,224.09 254.15,237.86 253.76,237.63 				"/>
			</g>
			<g id="XMLID_402_">
				<polygon id="XMLID_470_" class="st2" points="273.78,235.43 274.55,235.87 274.55,249.64 273.78,249.2 				"/>
			</g>
		</g>
	</g>
	<polygon id="Shadow_34_" class="st7" points="246.81,180.19 333.96,230.62 402.25,191.19 314.95,140.78 	"/>
	<g id="XMLID_2436_">
		<polygon id="XMLID_2441_" class="st8" points="242.78,152.67 315.9,110.45 401.2,159.7 328.08,201.91 		"/>
		<polygon id="XMLID_2438_" class="st15" points="242.78,152.67 315.9,110.45 401.2,159.7 328.08,201.91 		"/>
	</g>
	<g>
		<g id="XMLID_2431_">
			<path id="XMLID_2433_" class="st6" d="M281.33,136.19l24.19,13.93c0.44,0.25,0.32,0.73-0.26,1.07l-27.31,15.77
				c-0.58,0.34-1.41,0.41-1.85,0.15l-24.19-13.94c-0.44-0.25-0.32-0.73,0.26-1.07l27.31-15.76
				C280.06,136,280.89,135.93,281.33,136.19z"/>
		</g>
		<g>
			<g>
				<path class="st1" d="M269.11,159.9c-0.17,0-0.34-0.09-0.43-0.25c-0.14-0.24-0.06-0.54,0.18-0.68l22.67-13.09
					c0.24-0.14,0.54-0.06,0.68,0.18c0.14,0.24,0.06,0.54-0.18,0.68l-22.67,13.09C269.28,159.88,269.19,159.9,269.11,159.9z"/>
			</g>
			<g>
				<path class="st1" d="M271.63,161.34c-0.17,0-0.34-0.09-0.43-0.25c-0.14-0.24-0.06-0.54,0.18-0.68l22.67-13.09
					c0.24-0.14,0.55-0.06,0.68,0.18c0.14,0.24,0.06,0.54-0.18,0.68l-22.67,13.09C271.8,161.32,271.71,161.34,271.63,161.34z"/>
			</g>
			<g>
				<path class="st1" d="M274.14,162.78c-0.17,0-0.34-0.09-0.43-0.25c-0.14-0.24-0.06-0.54,0.18-0.68l22.67-13.09
					c0.24-0.14,0.55-0.06,0.68,0.18c0.14,0.24,0.06,0.54-0.18,0.68l-22.67,13.09C274.31,162.76,274.23,162.78,274.14,162.78z"/>
			</g>
			<g>
				<path class="st1" d="M276.66,164.23c-0.17,0-0.34-0.09-0.43-0.25c-0.14-0.24-0.06-0.54,0.18-0.68l22.67-13.09
					c0.24-0.14,0.54-0.06,0.68,0.18c0.14,0.24,0.06,0.54-0.18,0.68l-22.67,13.09C276.83,164.21,276.74,164.23,276.66,164.23z"/>
			</g>
		</g>
		<g id="XMLID_2131_">
			<g id="XMLID_2415_">
				<polygon id="XMLID_2429_" class="st2" points="254.19,152.54 255.07,152.03 265.4,157.99 264.51,158.5 				"/>
			</g>
			<g id="XMLID_2342_">
				<polygon id="XMLID_2401_" class="st2" points="257.78,150.46 259.31,149.59 269.63,155.56 268.1,156.43 				"/>
			</g>
			<g id="XMLID_2226_">
				<polygon id="XMLID_2227_" class="st2" points="261.36,148.39 262.25,147.88 272.57,153.85 271.69,154.35 				"/>
			</g>
			<g id="XMLID_2213_">
				<polygon id="XMLID_2224_" class="st2" points="264.05,146.82 265.83,145.81 276.16,151.77 274.38,152.78 				"/>
			</g>
			<g id="XMLID_2201_">
				<polygon id="XMLID_2202_" class="st2" points="268.54,144.25 269.42,143.74 279.75,149.7 278.87,150.21 				"/>
			</g>
			<g id="XMLID_2195_">
				<polygon id="XMLID_2200_" class="st2" points="271.1,142.74 273.01,141.66 283.34,147.63 281.43,148.7 				"/>
			</g>
			<g id="XMLID_2168_">
				<polygon id="XMLID_2174_" class="st2" points="275.72,140.1 276.6,139.59 286.93,145.56 286.05,146.06 				"/>
			</g>
			<g id="XMLID_2165_">
				<polygon id="XMLID_2166_" class="st2" points="277.76,138.91 278.2,138.66 288.52,144.62 288.08,144.88 				"/>
			</g>
			<g id="XMLID_2147_">
				<polygon id="XMLID_2149_" class="st2" points="274.13,141.08 274.57,140.82 284.9,146.78 284.46,147.04 				"/>
			</g>
			<g id="XMLID_2141_">
				<polygon id="XMLID_2143_" class="st2" points="266.86,145.23 267.31,144.97 277.63,150.94 277.19,151.19 				"/>
			</g>
			<g id="XMLID_2138_">
				<polygon id="XMLID_2139_" class="st2" points="262.91,147.52 263.35,147.26 273.68,153.23 273.24,153.48 				"/>
			</g>
			<g id="XMLID_2136_">
				<polygon id="XMLID_2137_" class="st2" points="260.12,149.19 260.56,148.93 270.88,154.9 270.44,155.15 				"/>
			</g>
			<g id="XMLID_2134_">
				<polygon id="XMLID_2135_" class="st2" points="256.19,151.37 256.63,151.12 266.95,157.08 266.51,157.33 				"/>
			</g>
			<g id="XMLID_2132_">
				<polygon id="XMLID_2133_" class="st2" points="279.31,138.03 280.19,137.52 290.52,143.48 289.64,143.99 				"/>
			</g>
		</g>
	</g>
	<g id="XMLID_2107_">
		<polygon id="XMLID_2130_" class="st16" points="328.08,230.06 242.78,180.81 242.78,152.66 328.08,201.91 		"/>
	</g>
	<g id="XMLID_2457_">
		<polygon id="XMLID_2461_" class="st10" points="328.08,230.06 242.78,180.81 242.78,152.66 328.08,201.91 		"/>
	</g>
	<g id="XMLID_2100_">
		<polygon id="XMLID_2104_" class="st10" points="328.08,230.06 401.2,187.84 401.2,159.7 328.08,201.91 		"/>
		<polygon id="XMLID_2103_" class="st17" points="328.08,230.06 401.2,187.84 401.2,159.7 328.08,201.91 		"/>
	</g>
	<g>
		<g id="XMLID_2097_">
			<polygon id="XMLID_2099_" class="st3" points="372.23,185.52 366.31,188.93 366.31,179.76 372.23,176.34 			"/>
		</g>
		<g id="XMLID_2094_">
			<polygon id="XMLID_2095_" class="st2" points="366.31,179.76 281.01,130.51 286.92,127.09 372.23,176.34 			"/>
		</g>
	</g>
	<g>
		<g id="XMLID_2081_">
			<g id="XMLID_2088_">
				<path id="XMLID_2089_" class="st2" d="M294.73,201.16c-1.18-0.68-2.11-2.44-2.11-3.99v-6.11l4.29,2.52l0.28-0.05v0.4
					c0,0,0,0.01,0,0.01v5.47c0,0.87-0.31,1.55-0.84,1.86c-0.21,0.12-0.43,0.18-0.67,0.18C295.38,201.44,295.05,201.35,294.73,201.16
					z M295.21,194.58l-0.31,2.14h-1.59v0.45c0,1.29,0.81,2.84,1.77,3.4c0.25,0.14,0.62,0.28,0.93,0.1c0.31-0.18,0.49-0.64,0.49-1.26
					v-5.06L295.21,194.58z M294.6,193.99l1.27-0.23l-2.56-1.5v3.78h0.99L294.6,193.99z"/>
			</g>
			<g id="XMLID_2086_">
				<path id="XMLID_2087_" class="st2" d="M294.9,205.8c0.19,0,0.34-0.15,0.34-0.34v-4.59c0-0.19-0.15-0.34-0.34-0.34
					c-0.19,0-0.34,0.15-0.34,0.34v4.59C294.56,205.65,294.71,205.8,294.9,205.8z"/>
			</g>
			<g id="XMLID_2084_">
				<path id="XMLID_2085_" class="st2" d="M296.9,206.96c0.12,0,0.23-0.06,0.3-0.17c0.09-0.16,0.04-0.37-0.13-0.47l-3.99-2.31
					c-0.16-0.1-0.37-0.04-0.47,0.13c-0.1,0.16-0.04,0.37,0.13,0.47l3.99,2.31C296.78,206.94,296.84,206.96,296.9,206.96z"/>
			</g>
		</g>
		<g id="XMLID_2040_">
			<g id="XMLID_2046_">
				<path id="XMLID_2077_" class="st2" d="M308.87,214.06c0.13,0,0.26-0.03,0.38-0.1c0.26-0.15,0.41-0.45,0.41-0.83v-0.94
					c0-0.19-0.15-0.34-0.34-0.34c-0.19,0-0.34,0.15-0.34,0.34v0.94c0,0.14-0.04,0.21-0.07,0.23c-0.03,0.01-0.11,0.01-0.22-0.06
					c-0.3-0.18-0.64-0.86-0.64-1.55v-6.11c0-0.19-0.15-0.34-0.34-0.34c-0.19,0-0.34,0.15-0.34,0.34v6.11c0,0.9,0.42,1.82,0.98,2.15
					C308.51,214,308.7,214.06,308.87,214.06z"/>
			</g>
			<g id="XMLID_2041_">
				<path id="XMLID_2043_" class="st2" d="M303.35,203.44v-0.2c0-1.43,0.5-2.51,1.41-3.03c0.91-0.52,2.09-0.42,3.33,0.3
					c2.43,1.4,4.4,4.82,4.4,7.62v0.6L303.35,203.44z M305.1,200.8c-0.65,0.37-1.02,1.17-1.06,2.24l7.73,4.46
					c-0.25-2.45-1.96-5.22-4.02-6.41c-0.61-0.35-1.2-0.53-1.72-0.53C305.69,200.56,305.38,200.64,305.1,200.8z"/>
			</g>
		</g>
		<g id="XMLID_1922_">
			<g id="XMLID_1990_">
				<g id="XMLID_2038_">
					<path id="XMLID_2039_" class="st2" d="M322.69,221.77c0.19,0,0.34-0.15,0.34-0.34v-11.7c0-0.19-0.15-0.34-0.34-0.34
						c-0.19,0-0.34,0.15-0.34,0.34v11.7C322.35,221.62,322.5,221.77,322.69,221.77z"/>
				</g>
				<g id="XMLID_2030_">
					<path id="XMLID_2031_" class="st2" d="M323.7,212.39c0.05,0,0.09-0.01,0.14-0.03c0.18-0.08,0.25-0.28,0.18-0.45l-1.22-2.83
						l-1.36,1.58c-0.13,0.14-0.11,0.36,0.03,0.48c0.15,0.12,0.36,0.11,0.49-0.03l0.65-0.75l0.79,1.82
						C323.44,212.31,323.56,212.39,323.7,212.39z"/>
				</g>
			</g>
			<g id="XMLID_1943_">
				<g id="XMLID_1988_">
					<path id="XMLID_1989_" class="st2" d="M319.51,219.96c0.19,0,0.34-0.15,0.34-0.34v-11.7c0-0.19-0.15-0.34-0.34-0.34
						c-0.19,0-0.34,0.15-0.34,0.34v11.7C319.17,219.8,319.32,219.96,319.51,219.96z"/>
				</g>
				<g id="XMLID_1979_">
					<path id="XMLID_1981_" class="st2" d="M320.52,210.58c0.05,0,0.09-0.01,0.14-0.03c0.18-0.08,0.25-0.28,0.18-0.45l-1.22-2.83
						l-1.36,1.58c-0.13,0.14-0.11,0.36,0.03,0.48c0.15,0.12,0.36,0.11,0.49-0.03l0.65-0.75l0.79,1.82
						C320.26,210.5,320.39,210.58,320.52,210.58z"/>
				</g>
			</g>
		</g>
	</g>
	<g>
		<g id="XMLID_1912_">
			<path id="XMLID_1914_" class="st6" d="M270.57,175.34l0,15.15c0,0.58-0.41,0.82-0.91,0.53l-23.65-13.65
				c-0.51-0.29-0.91-1-0.91-1.58l0-15.16c0-0.58,0.41-0.82,0.91-0.53l23.65,13.66C270.16,174.05,270.57,174.76,270.57,175.34z"/>
		</g>
		<g id="XMLID_1431_">
			<g id="XMLID_1909_">
				<polygon id="XMLID_1910_" class="st2" points="246.56,162.26 247.32,162.7 247.32,176.47 246.56,176.03 				"/>
			</g>
			<g id="XMLID_1906_">
				<polygon id="XMLID_1907_" class="st2" points="249.66,164.06 250.98,164.83 250.98,178.6 249.66,177.83 				"/>
			</g>
			<g id="XMLID_1901_">
				<polygon id="XMLID_1902_" class="st2" points="252.77,165.85 253.54,166.29 253.54,180.06 252.77,179.62 				"/>
			</g>
			<g id="XMLID_1877_">
				<polygon id="XMLID_1878_" class="st2" points="255.12,167.18 256.64,168.08 256.64,181.85 255.12,180.95 				"/>
			</g>
			<g id="XMLID_1845_">
				<polygon id="XMLID_1874_" class="st2" points="258.99,169.44 259.75,169.88 259.75,183.65 258.99,183.21 				"/>
			</g>
			<g id="XMLID_1843_">
				<polygon id="XMLID_1844_" class="st2" points="261.23,170.7 262.86,171.67 262.86,185.44 261.23,184.47 				"/>
			</g>
			<g id="XMLID_1812_">
				<polygon id="XMLID_1813_" class="st2" points="265.21,173.02 265.97,173.47 265.97,187.24 265.21,186.79 				"/>
			</g>
			<g id="XMLID_1736_">
				<polygon id="XMLID_1811_" class="st2" points="266.98,174.03 267.36,174.25 267.36,188.02 266.98,187.8 				"/>
			</g>
			<g id="XMLID_1693_">
				<polygon id="XMLID_1694_" class="st2" points="263.79,172.27 264.17,172.49 264.17,186.26 263.79,186.04 				"/>
			</g>
			<g id="XMLID_1489_">
				<polygon id="XMLID_1578_" class="st2" points="257.53,168.61 257.91,168.83 257.91,182.6 257.53,182.38 				"/>
			</g>
			<g id="XMLID_1487_">
				<polygon id="XMLID_1488_" class="st2" points="254.1,166.64 254.48,166.86 254.48,180.63 254.1,180.41 				"/>
			</g>
			<g id="XMLID_1483_">
				<polygon id="XMLID_1486_" class="st2" points="251.64,165.28 252.02,165.5 252.02,179.27 251.64,179.05 				"/>
			</g>
			<g id="XMLID_1481_">
				<polygon id="XMLID_1482_" class="st2" points="248.3,163.25 248.68,163.47 248.68,177.24 248.3,177.02 				"/>
			</g>
			<g id="XMLID_1463_">
				<polygon id="XMLID_1470_" class="st2" points="268.32,174.82 269.08,175.26 269.08,189.03 268.31,188.59 				"/>
			</g>
		</g>
	</g>
	<polygon id="Shadow_43_" class="st7" points="283.53,344.76 216.72,383.29 166.71,354.38 233.67,315.94 	"/>
	<g id="XMLID_3233_">
		<polygon id="XMLID_3235_" class="st8" points="172.81,231.24 233.74,196.07 278.43,221.86 217.49,257.04 		"/>
		<polygon id="XMLID_3234_" class="st15" points="172.81,231.24 233.74,196.07 278.43,221.86 217.49,257.04 		"/>
	</g>
	<g>
		<g id="XMLID_3228_">
			<path id="XMLID_3232_" class="st6" d="M233.15,201.12l-18.7,10.77c-0.34,0.2-0.25,0.56,0.2,0.83l21.11,12.19
				c0.45,0.26,1.09,0.31,1.43,0.12l18.71-10.78c0.34-0.2,0.25-0.56-0.2-0.83l-21.12-12.19
				C234.13,200.98,233.49,200.93,233.15,201.12z"/>
		</g>
		<g>
			<g>
				<path class="st1" d="M242.6,219.45c0.13,0,0.26-0.07,0.33-0.19c0.11-0.19,0.04-0.42-0.14-0.53l-17.53-10.12
					c-0.18-0.11-0.42-0.04-0.53,0.14c-0.11,0.18-0.04,0.42,0.14,0.53l17.53,10.12C242.46,219.44,242.53,219.45,242.6,219.45z"/>
			</g>
			<g>
				<path class="st1" d="M240.65,220.57c0.13,0,0.26-0.07,0.33-0.19c0.11-0.18,0.04-0.42-0.14-0.53l-17.53-10.12
					c-0.18-0.11-0.42-0.04-0.53,0.14c-0.11,0.18-0.04,0.42,0.14,0.53l17.53,10.12C240.52,220.55,240.58,220.57,240.65,220.57z"/>
			</g>
			<g>
				<path class="st1" d="M238.7,221.68c0.13,0,0.26-0.07,0.33-0.19c0.11-0.18,0.04-0.42-0.14-0.53l-17.53-10.12
					c-0.18-0.11-0.42-0.04-0.53,0.14c-0.11,0.18-0.04,0.42,0.14,0.53l17.53,10.12C238.57,221.67,238.64,221.68,238.7,221.68z"/>
			</g>
			<g>
				<path class="st1" d="M236.76,222.8c0.13,0,0.26-0.07,0.33-0.19c0.11-0.18,0.04-0.42-0.14-0.53l-17.53-10.12
					c-0.18-0.11-0.42-0.04-0.53,0.14c-0.11,0.18-0.04,0.42,0.14,0.53l17.53,10.12C236.62,222.78,236.69,222.8,236.76,222.8z"/>
			</g>
		</g>
		<g id="XMLID_2996_">
			<g id="XMLID_3204_">
				<polygon id="XMLID_3205_" class="st2" points="254.13,213.76 253.45,213.37 245.47,217.98 246.15,218.37 				"/>
			</g>
			<g id="XMLID_3202_">
				<polygon id="XMLID_3203_" class="st2" points="251.36,212.16 250.17,211.49 242.19,216.1 243.37,216.77 				"/>
			</g>
			<g id="XMLID_3200_">
				<polygon id="XMLID_3201_" class="st2" points="248.58,210.56 247.9,210.16 239.92,214.77 240.6,215.17 				"/>
			</g>
			<g id="XMLID_3198_">
				<polygon id="XMLID_3199_" class="st2" points="246.5,209.34 245.13,208.56 237.14,213.17 238.52,213.95 				"/>
			</g>
			<g id="XMLID_3196_">
				<polygon id="XMLID_3197_" class="st2" points="243.03,207.35 242.35,206.96 234.37,211.57 235.05,211.96 				"/>
			</g>
			<g id="XMLID_3194_">
				<polygon id="XMLID_3195_" class="st2" points="241.05,206.19 239.58,205.36 231.59,209.97 233.07,210.8 				"/>
			</g>
			<g id="XMLID_3099_">
				<polygon id="XMLID_3193_" class="st2" points="237.48,204.15 236.8,203.75 228.82,208.36 229.5,208.76 				"/>
			</g>
			<g id="XMLID_3094_">
				<polygon id="XMLID_3098_" class="st2" points="235.91,203.23 235.57,203.03 227.58,207.64 227.93,207.84 				"/>
			</g>
			<g id="XMLID_3036_">
				<polygon id="XMLID_3044_" class="st2" points="238.71,204.9 238.37,204.7 230.38,209.31 230.73,209.51 				"/>
			</g>
			<g id="XMLID_3011_">
				<polygon id="XMLID_3027_" class="st2" points="244.33,208.11 243.99,207.91 236.01,212.52 236.35,212.72 				"/>
			</g>
			<g id="XMLID_3009_">
				<polygon id="XMLID_3010_" class="st2" points="247.38,209.88 247.04,209.68 239.06,214.29 239.4,214.49 				"/>
			</g>
			<g id="XMLID_3001_">
				<polygon id="XMLID_3002_" class="st2" points="249.55,211.17 249.21,210.98 241.22,215.59 241.56,215.78 				"/>
			</g>
			<g id="XMLID_2999_">
				<polygon id="XMLID_3000_" class="st2" points="252.59,212.86 252.25,212.66 244.26,217.27 244.6,217.47 				"/>
			</g>
			<g id="XMLID_2997_">
				<polygon id="XMLID_2998_" class="st2" points="234.71,202.54 234.03,202.15 226.04,206.76 226.73,207.15 				"/>
			</g>
		</g>
	</g>
	<g id="XMLID_2994_">
		<polygon id="XMLID_2995_" class="st16" points="217.49,379.01 172.81,353.21 172.81,231.24 217.49,257.04 		"/>
	</g>
	<g id="XMLID_2992_" class="st18">
		<polygon id="XMLID_2993_" class="st10" points="217.49,379.01 172.81,353.21 172.81,231.24 217.49,257.04 		"/>
	</g>
	<g id="XMLID_2989_">
		<polygon id="XMLID_2991_" class="st10" points="217.5,379.01 278.43,343.83 278.43,221.86 217.49,257.04 		"/>
		<polygon id="XMLID_2990_" class="st17" points="217.5,379.01 278.43,343.83 278.43,221.86 217.49,257.04 		"/>
	</g>
	<g>
		<g id="XMLID_2987_">
			<polygon id="XMLID_2988_" class="st3" points="249.99,247.46 244.08,250.87 244.08,241.69 249.99,238.28 			"/>
		</g>
		<g id="XMLID_2985_">
			<polygon id="XMLID_2986_" class="st2" points="244.08,241.69 199.4,215.9 205.31,212.48 249.99,238.28 			"/>
		</g>
	</g>
	<g>
		<g id="XMLID_2967_">
			<g id="XMLID_2980_">
				<path id="XMLID_2981_" class="st2" d="M184.14,350.12c-1.18-0.68-2.11-2.44-2.11-3.99v-6.11l4.29,2.52l0.28-0.05v0.4
					c0,0,0,0.01,0,0.01v5.47c0,0.87-0.31,1.55-0.84,1.86c-0.21,0.12-0.43,0.18-0.67,0.18C184.79,350.4,184.47,350.3,184.14,350.12z
					 M184.62,343.53l-0.31,2.14h-1.59v0.45c0,1.29,0.81,2.84,1.77,3.4c0.25,0.14,0.62,0.28,0.93,0.1c0.31-0.18,0.49-0.64,0.49-1.26
					v-5.06L184.62,343.53z M184.01,342.94l1.27-0.23l-2.56-1.5v3.78h0.99L184.01,342.94z"/>
			</g>
			<g id="XMLID_2978_">
				<path id="XMLID_2979_" class="st2" d="M184.32,354.76c0.19,0,0.34-0.15,0.34-0.34v-4.59c0-0.19-0.15-0.34-0.34-0.34
					c-0.19,0-0.34,0.15-0.34,0.34v4.59C183.97,354.61,184.13,354.76,184.32,354.76z"/>
			</g>
			<g id="XMLID_2971_">
				<path id="XMLID_2977_" class="st2" d="M186.31,355.91c0.12,0,0.23-0.06,0.3-0.17c0.1-0.16,0.04-0.37-0.13-0.47l-3.99-2.31
					c-0.16-0.1-0.37-0.04-0.47,0.13c-0.1,0.16-0.04,0.37,0.13,0.47l3.99,2.31C186.19,355.9,186.25,355.91,186.31,355.91z"/>
			</g>
		</g>
		<g id="XMLID_2916_">
			<g id="XMLID_2926_">
				<path id="XMLID_2959_" class="st2" d="M198.28,363.01c0.13,0,0.26-0.03,0.38-0.1c0.26-0.15,0.41-0.45,0.41-0.83v-0.94
					c0-0.19-0.15-0.34-0.34-0.34s-0.34,0.15-0.34,0.34v0.94c0,0.14-0.04,0.21-0.07,0.23c-0.03,0.01-0.11,0.01-0.22-0.06
					c-0.3-0.18-0.64-0.86-0.64-1.55v-6.11c0-0.19-0.15-0.34-0.34-0.34c-0.19,0-0.34,0.15-0.34,0.34v6.11c0,0.9,0.42,1.82,0.98,2.15
					C197.92,362.96,198.11,363.01,198.28,363.01z"/>
			</g>
			<g id="XMLID_2918_">
				<path id="XMLID_2919_" class="st2" d="M192.76,352.39v-0.2c0-1.43,0.5-2.51,1.41-3.03c0.91-0.52,2.09-0.42,3.33,0.3
					c2.43,1.4,4.4,4.82,4.4,7.62v0.6L192.76,352.39z M194.52,349.75c-0.65,0.37-1.02,1.17-1.06,2.24l7.73,4.46
					c-0.25-2.45-1.96-5.22-4.02-6.41c-0.61-0.35-1.2-0.53-1.72-0.53C195.1,349.52,194.79,349.6,194.52,349.75z"/>
			</g>
		</g>
		<g id="XMLID_2868_">
			<g id="XMLID_2874_">
				<g id="XMLID_2890_">
					<path id="XMLID_2905_" class="st2" d="M212.1,370.72c0.19,0,0.34-0.15,0.34-0.34v-11.7c0-0.19-0.15-0.34-0.34-0.34
						c-0.19,0-0.34,0.15-0.34,0.34v11.7C211.76,370.57,211.91,370.72,212.1,370.72z"/>
				</g>
				<g id="XMLID_2875_">
					<path id="XMLID_2876_" class="st2" d="M213.11,361.35c0.05,0,0.09-0.01,0.14-0.03c0.18-0.08,0.25-0.28,0.18-0.45l-1.22-2.83
						l-1.36,1.58c-0.13,0.14-0.11,0.36,0.03,0.48c0.15,0.12,0.36,0.11,0.49-0.03l0.65-0.75l0.79,1.82
						C212.85,361.27,212.98,361.35,213.11,361.35z"/>
				</g>
			</g>
			<g id="XMLID_2869_">
				<g id="XMLID_2872_">
					<path id="XMLID_2873_" class="st2" d="M208.92,368.91c0.19,0,0.34-0.15,0.34-0.34v-11.7c0-0.19-0.15-0.34-0.34-0.34
						c-0.19,0-0.34,0.15-0.34,0.34v11.7C208.58,368.76,208.73,368.91,208.92,368.91z"/>
				</g>
				<g id="XMLID_2870_">
					<path id="XMLID_2871_" class="st2" d="M209.93,359.53c0.05,0,0.09-0.01,0.14-0.03c0.18-0.08,0.25-0.28,0.18-0.45l-1.22-2.83
						l-1.36,1.58c-0.13,0.14-0.11,0.36,0.03,0.48c0.15,0.12,0.36,0.11,0.49-0.03l0.65-0.75l0.79,1.82
						C209.67,359.46,209.8,359.53,209.93,359.53z"/>
				</g>
			</g>
		</g>
	</g>
	<g>
		<g id="XMLID_2866_">
			<path id="XMLID_2867_" class="st6" d="M213.43,333.38l0,15.15c0,0.58-0.41,0.82-0.91,0.53l-23.65-13.65
				c-0.51-0.29-0.92-1-0.91-1.58l0-15.16c0-0.58,0.41-0.82,0.91-0.53l23.65,13.66C213.02,332.08,213.43,332.79,213.43,333.38z"/>
		</g>
		<g id="XMLID_2462_">
			<g id="XMLID_2864_">
				<polygon id="XMLID_2865_" class="st2" points="189.42,320.3 190.18,320.74 190.18,334.51 189.42,334.07 				"/>
			</g>
			<g id="XMLID_2853_">
				<polygon id="XMLID_2862_" class="st2" points="192.53,322.09 193.84,322.87 193.84,336.64 192.53,335.86 				"/>
			</g>
			<g id="XMLID_2851_">
				<polygon id="XMLID_2852_" class="st2" points="195.64,323.89 196.4,324.33 196.4,338.1 195.64,337.66 				"/>
			</g>
			<g id="XMLID_2813_">
				<polygon id="XMLID_2847_" class="st2" points="197.98,325.22 199.51,326.12 199.51,339.89 197.98,338.99 				"/>
			</g>
			<g id="XMLID_2811_">
				<polygon id="XMLID_2812_" class="st2" points="201.85,327.47 202.62,327.92 202.62,341.69 201.85,341.24 				"/>
			</g>
			<g id="XMLID_2784_">
				<polygon id="XMLID_2810_" class="st2" points="204.09,328.74 205.72,329.71 205.72,343.48 204.09,342.51 				"/>
			</g>
			<g id="XMLID_2776_">
				<polygon id="XMLID_2782_" class="st2" points="208.07,331.06 208.83,331.5 208.83,345.27 208.07,344.83 				"/>
			</g>
			<g id="XMLID_2743_">
				<polygon id="XMLID_2775_" class="st2" points="209.84,332.07 210.22,332.29 210.22,346.06 209.84,345.84 				"/>
			</g>
			<g id="XMLID_2648_">
				<polygon id="XMLID_2650_" class="st2" points="206.65,330.31 207.03,330.53 207.03,344.3 206.65,344.08 				"/>
			</g>
			<g id="XMLID_2638_">
				<polygon id="XMLID_2639_" class="st2" points="200.39,326.64 200.77,326.86 200.77,340.63 200.39,340.41 				"/>
			</g>
			<g id="XMLID_2636_">
				<polygon id="XMLID_2637_" class="st2" points="196.96,324.68 197.34,324.9 197.34,338.67 196.96,338.45 				"/>
			</g>
			<g id="XMLID_2634_">
				<polygon id="XMLID_2635_" class="st2" points="194.5,323.32 194.88,323.54 194.88,337.31 194.5,337.09 				"/>
			</g>
			<g id="XMLID_2563_">
				<polygon id="XMLID_2633_" class="st2" points="191.16,321.29 191.54,321.51 191.54,335.28 191.16,335.06 				"/>
			</g>
			<g id="XMLID_2521_">
				<polygon id="XMLID_2562_" class="st2" points="211.18,332.86 211.94,333.3 211.94,347.07 211.18,346.63 				"/>
			</g>
		</g>
	</g>
	<polygon id="Shadow_35_" class="st7" points="338.17,376.27 271.36,414.8 220.06,385.26 287.02,346.82 	"/>
	<g id="XMLID_3779_">
		<polygon id="XMLID_3781_" class="st16" points="227.82,325.62 288.75,290.44 333.43,316.24 272.5,351.42 		"/>
	</g>
	<g id="XMLID_3780_">
		<polygon id="XMLID_3784_" class="st8" points="227.82,325.62 288.75,290.44 333.43,316.24 272.5,351.42 		"/>
	</g>
	<g>
		<g id="XMLID_3777_">
			<path id="XMLID_3778_" class="st6" d="M288.15,295.5l-18.7,10.77c-0.34,0.2-0.25,0.56,0.2,0.83l21.11,12.19
				c0.45,0.26,1.09,0.31,1.43,0.12l18.71-10.78c0.34-0.2,0.25-0.56-0.2-0.83l-21.12-12.19C289.13,295.35,288.49,295.3,288.15,295.5z
				"/>
		</g>
		<g>
			<g>
				<path class="st1" d="M297.6,313.83c0.13,0,0.26-0.07,0.33-0.19c0.11-0.18,0.04-0.42-0.14-0.53l-17.53-10.12
					c-0.18-0.11-0.42-0.04-0.53,0.14c-0.11,0.18-0.04,0.42,0.14,0.53l17.53,10.12C297.47,313.81,297.53,313.83,297.6,313.83z"/>
			</g>
			<g>
				<path class="st1" d="M295.65,314.95c0.13,0,0.26-0.07,0.33-0.19c0.11-0.18,0.04-0.42-0.14-0.53l-17.53-10.12
					c-0.18-0.11-0.42-0.04-0.53,0.14c-0.11,0.18-0.04,0.42,0.14,0.53l17.53,10.12C295.52,314.93,295.59,314.95,295.65,314.95z"/>
			</g>
			<g>
				<path class="st1" d="M293.71,316.06c0.13,0,0.26-0.07,0.33-0.19c0.11-0.18,0.04-0.42-0.14-0.53l-17.53-10.12
					c-0.18-0.11-0.42-0.04-0.53,0.14c-0.11,0.18-0.04,0.42,0.14,0.53l17.53,10.12C293.57,316.04,293.64,316.06,293.71,316.06z"/>
			</g>
			<g>
				<path class="st1" d="M291.76,317.18c0.13,0,0.26-0.07,0.33-0.19c0.11-0.18,0.04-0.42-0.14-0.53l-17.53-10.12
					c-0.18-0.11-0.42-0.04-0.53,0.14c-0.11,0.18-0.04,0.42,0.14,0.53l17.53,10.12C291.63,317.16,291.69,317.18,291.76,317.18z"/>
			</g>
		</g>
		<g id="XMLID_3729_">
			<g id="XMLID_3775_">
				<polygon id="XMLID_3776_" class="st2" points="309.13,308.14 308.45,307.74 300.47,312.35 301.15,312.75 				"/>
			</g>
			<g id="XMLID_3773_">
				<polygon id="XMLID_3774_" class="st2" points="306.36,306.54 305.18,305.86 297.19,310.47 298.37,311.15 				"/>
			</g>
			<g id="XMLID_3771_">
				<polygon id="XMLID_3772_" class="st2" points="303.58,304.93 302.9,304.54 294.92,309.15 295.6,309.54 				"/>
			</g>
			<g id="XMLID_3769_">
				<polygon id="XMLID_3770_" class="st2" points="301.51,303.72 300.13,302.94 292.14,307.55 293.52,308.33 				"/>
			</g>
			<g id="XMLID_3767_">
				<polygon id="XMLID_3768_" class="st2" points="298.04,301.73 297.35,301.33 289.37,305.94 290.05,306.34 				"/>
			</g>
			<g id="XMLID_3765_">
				<polygon id="XMLID_3766_" class="st2" points="296.05,300.57 294.58,299.73 286.6,304.34 288.07,305.17 				"/>
			</g>
			<g id="XMLID_3762_">
				<polygon id="XMLID_3763_" class="st2" points="292.49,298.52 291.8,298.13 283.82,302.74 284.5,303.13 				"/>
			</g>
			<g id="XMLID_3760_">
				<polygon id="XMLID_3761_" class="st2" points="290.91,297.6 290.57,297.41 282.59,302.02 282.93,302.21 				"/>
			</g>
			<g id="XMLID_3758_">
				<polygon id="XMLID_3759_" class="st2" points="293.71,299.28 293.37,299.08 285.39,303.69 285.73,303.89 				"/>
			</g>
			<g id="XMLID_3755_">
				<polygon id="XMLID_3757_" class="st2" points="299.33,302.49 298.99,302.29 291.01,306.9 291.35,307.1 				"/>
			</g>
			<g id="XMLID_3752_">
				<polygon id="XMLID_3754_" class="st2" points="302.39,304.26 302.05,304.06 294.06,308.67 294.4,308.87 				"/>
			</g>
			<g id="XMLID_3747_">
				<polygon id="XMLID_3751_" class="st2" points="304.55,305.55 304.21,305.35 296.22,309.96 296.57,310.16 				"/>
			</g>
			<g id="XMLID_3734_">
				<polygon id="XMLID_3746_" class="st2" points="307.59,307.24 307.25,307.04 299.26,311.65 299.6,311.85 				"/>
			</g>
			<g id="XMLID_3730_">
				<polygon id="XMLID_3732_" class="st2" points="289.71,296.92 289.03,296.53 281.05,301.14 281.73,301.53 				"/>
			</g>
		</g>
	</g>
	<g id="XMLID_3726_">
		<polygon id="XMLID_3727_" class="st16" points="272.5,410.77 227.82,384.97 227.81,325.62 272.5,351.42 		"/>
	</g>
	<g id="XMLID_3724_">
		<polygon id="XMLID_3725_" class="st10" points="272.5,410.77 227.82,384.97 227.81,325.62 272.5,351.42 		"/>
	</g>
	<g id="XMLID_3717_">
		<polygon id="XMLID_3723_" class="st10" points="272.5,410.77 333.43,375.59 333.43,316.24 272.5,351.42 		"/>
		<polygon id="XMLID_3719_" class="st14" points="272.5,410.77 333.43,375.59 333.43,316.24 272.5,351.42 		"/>
	</g>
	<g>
		<g id="XMLID_3665_">
			<polygon id="XMLID_3666_" class="st3" points="304.99,341.83 299.08,345.25 299.08,336.07 304.99,332.66 			"/>
		</g>
		<g id="XMLID_3659_">
			<polygon id="XMLID_3660_" class="st2" points="299.08,336.07 254.4,310.27 260.31,306.86 304.99,332.66 			"/>
		</g>
	</g>
	<g>
		<g id="XMLID_3644_">
			<g id="XMLID_3654_">
				<path id="XMLID_3655_" class="st2" d="M327.79,369.88c-0.16,0-0.31-0.04-0.44-0.12c-0.35-0.2-0.55-0.65-0.55-1.22v-3.6
					c0,0,0,0,0-0.01v-0.27l0.18,0.03l2.83-1.66v4.03c0,1.02-0.61,2.18-1.39,2.63C328.2,369.82,327.99,369.88,327.79,369.88z
					 M327.25,365.21v3.34c0,0.41,0.12,0.71,0.33,0.83c0.21,0.12,0.45,0.03,0.61-0.07c0.63-0.37,1.16-1.39,1.16-2.24v-0.3h-1.05
					l-0.21-1.41L327.25,365.21z M328.7,366.32h0.65v-2.49l-1.69,0.99l0.83,0.15L328.7,366.32z"/>
			</g>
			<g id="XMLID_3652_">
				<path id="XMLID_3653_" class="st2" d="M328.3,372.75c-0.12,0-0.23-0.1-0.23-0.23v-3.03c0-0.13,0.1-0.23,0.23-0.23
					c0.13,0,0.23,0.1,0.23,0.23v3.03C328.53,372.65,328.43,372.75,328.3,372.75z"/>
			</g>
			<g id="XMLID_3645_">
				<path id="XMLID_3647_" class="st2" d="M326.99,373.51c-0.08,0-0.15-0.04-0.2-0.11c-0.06-0.11-0.03-0.25,0.08-0.31l2.63-1.52
					c0.11-0.06,0.25-0.03,0.31,0.08c0.06,0.11,0.03,0.25-0.08,0.31l-2.63,1.52C327.06,373.5,327.03,373.51,326.99,373.51z"/>
			</g>
		</g>
		<g id="XMLID_3595_">
			<g id="XMLID_3642_">
				<path id="XMLID_3643_" class="st2" d="M319.1,378.19c-0.09,0-0.17-0.02-0.25-0.06c-0.17-0.1-0.27-0.3-0.27-0.55v-0.62
					c0-0.13,0.1-0.23,0.23-0.23c0.13,0,0.23,0.1,0.23,0.23v0.62c0,0.09,0.03,0.14,0.04,0.15c0.02,0.01,0.07,0.01,0.15-0.04
					c0.2-0.12,0.42-0.57,0.42-1.02v-4.03c0-0.13,0.1-0.23,0.23-0.23s0.23,0.1,0.23,0.23v4.03c0,0.59-0.28,1.2-0.64,1.41
					C319.34,378.16,319.22,378.19,319.1,378.19z"/>
			</g>
			<g id="XMLID_3597_">
				<path id="XMLID_3598_" class="st2" d="M316.72,374.67v-0.39c0-1.85,1.3-4.1,2.9-5.02c0.82-0.47,1.6-0.54,2.2-0.19
					c0.6,0.35,0.93,1.06,0.93,2v0.13L316.72,374.67z M320.97,369.3c-0.34,0-0.73,0.12-1.13,0.35c-1.36,0.78-2.48,2.61-2.65,4.22
					l5.09-2.94c-0.03-0.71-0.27-1.23-0.7-1.48C321.4,369.35,321.2,369.3,320.97,369.3z"/>
			</g>
		</g>
		<g id="XMLID_3566_">
			<g id="XMLID_3574_">
				<g id="XMLID_3578_">
					<path id="XMLID_3594_" class="st2" d="M309.99,383.27c-0.13,0-0.23-0.1-0.23-0.23v-7.71c0-0.12,0.1-0.23,0.23-0.23
						c0.13,0,0.23,0.1,0.23,0.23v7.71C310.22,383.17,310.12,383.27,309.99,383.27z"/>
				</g>
				<g id="XMLID_3575_">
					<path id="XMLID_3577_" class="st2" d="M309.33,377.09c-0.03,0-0.06-0.01-0.09-0.02c-0.12-0.05-0.17-0.18-0.12-0.3l0.81-1.86
						l0.9,1.04c0.08,0.09,0.07,0.24-0.02,0.32c-0.1,0.08-0.24,0.07-0.32-0.02l-0.43-0.49l-0.52,1.2
						C309.5,377.04,309.42,377.09,309.33,377.09z"/>
				</g>
			</g>
			<g id="XMLID_3567_">
				<g id="XMLID_3572_">
					<path id="XMLID_3573_" class="st2" d="M312.09,382.08c-0.12,0-0.23-0.1-0.23-0.23v-7.71c0-0.13,0.1-0.23,0.23-0.23
						c0.13,0,0.23,0.1,0.23,0.23v7.71C312.32,381.98,312.22,382.08,312.09,382.08z"/>
				</g>
				<g id="XMLID_3568_">
					<path id="XMLID_3571_" class="st2" d="M311.43,375.9c-0.03,0-0.06-0.01-0.09-0.02c-0.12-0.05-0.17-0.18-0.12-0.3l0.81-1.86
						l0.9,1.04c0.08,0.09,0.07,0.24-0.02,0.32c-0.1,0.08-0.24,0.07-0.32-0.02l-0.43-0.49l-0.52,1.2
						C311.6,375.85,311.51,375.9,311.43,375.9z"/>
				</g>
			</g>
		</g>
	</g>
	<g>
		<g id="XMLID_3563_">
			<path id="XMLID_3564_" class="st6" d="M277.3,386.24l0,15.15c0,0.58,0.41,0.82,0.91,0.53l23.65-13.65c0.51-0.29,0.91-1,0.91-1.58
				l0-15.16c0-0.58-0.41-0.82-0.91-0.53l-23.65,13.66C277.71,384.95,277.3,385.66,277.3,386.24z"/>
		</g>
		<g id="XMLID_3236_">
			<g id="XMLID_3561_">
				<polygon id="XMLID_3562_" class="st2" points="301.31,373.17 300.55,373.61 300.55,387.38 301.31,386.94 				"/>
			</g>
			<g id="XMLID_3559_">
				<polygon id="XMLID_3560_" class="st2" points="298.2,374.96 296.89,375.73 296.89,389.5 298.2,388.73 				"/>
			</g>
			<g id="XMLID_3556_">
				<polygon id="XMLID_3558_" class="st2" points="295.1,376.75 294.33,377.19 294.33,390.96 295.1,390.52 				"/>
			</g>
			<g id="XMLID_3552_">
				<polygon id="XMLID_3555_" class="st2" points="292.75,378.08 291.22,378.99 291.22,392.76 292.75,391.85 				"/>
			</g>
			<g id="XMLID_3548_">
				<polygon id="XMLID_3551_" class="st2" points="288.88,380.34 288.11,380.78 288.12,394.55 288.88,394.11 				"/>
			</g>
			<g id="XMLID_3541_">
				<polygon id="XMLID_3542_" class="st2" points="286.64,381.6 285.01,382.58 285.01,396.35 286.64,395.37 				"/>
			</g>
			<g id="XMLID_3521_">
				<polygon id="XMLID_3522_" class="st2" points="282.66,383.93 281.9,384.37 281.9,398.14 282.66,397.7 				"/>
			</g>
			<g id="XMLID_3498_">
				<polygon id="XMLID_3499_" class="st2" points="280.89,384.94 280.51,385.16 280.51,398.93 280.89,398.71 				"/>
			</g>
			<g id="XMLID_3488_">
				<polygon id="XMLID_3489_" class="st2" points="284.08,383.18 283.7,383.4 283.7,397.17 284.08,396.95 				"/>
			</g>
			<g id="XMLID_3452_">
				<polygon id="XMLID_3455_" class="st2" points="290.34,379.51 289.96,379.73 289.96,393.5 290.34,393.28 				"/>
			</g>
			<g id="XMLID_3243_">
				<polygon id="XMLID_3244_" class="st2" points="293.77,377.54 293.39,377.76 293.39,391.53 293.77,391.31 				"/>
			</g>
			<g id="XMLID_3241_">
				<polygon id="XMLID_3242_" class="st2" points="296.23,376.18 295.85,376.4 295.85,390.17 296.23,389.95 				"/>
			</g>
			<g id="XMLID_3239_">
				<polygon id="XMLID_3240_" class="st2" points="299.57,374.15 299.19,374.38 299.19,388.15 299.57,387.93 				"/>
			</g>
			<g id="XMLID_3237_">
				<polygon id="XMLID_3238_" class="st2" points="279.55,385.72 278.79,386.16 278.79,399.93 279.55,399.49 				"/>
			</g>
		</g>
	</g>
</g>
<g id="Character">
	<g>
		<g id="XMLID_10840_">
			<path id="XMLID_10841_" class="st19" d="M137.41,362.25c0.33-5.31,3.17-58.8,3.17-58.8l-25.97,18.34
				c4.54,30.58,5.53,39.79,5.73,44.9l0,0c-0.04,0.12-0.14,0.55-0.12,1.31c0.14,6.06,7.39,9.23,13.08,13.18
				c2.25,1.56,8.78,6.18,15.36,9.2c4.11,1.89,12.4,1.95,13.38-0.56c-6.92-4.86-14.93-10.16-20.47-15.75
				C138.92,371.4,137.02,368.62,137.41,362.25z"/>
		</g>
		<g>
			<path class="st4" d="M173.81,396.17c0.35-0.01,0.95,3.66-0.92,5.24c-2.16,1.83-8.55,4.88-17.09,3.95
				c-8.54-0.93-13.19-3.36-16.65-6.03c-3.46-2.66-8.31-6.42-12.17-7.17c-3.59-0.7-7.51-2.18-8.67-3.22
				c-1.16-1.04-1.09-5.71-1.09-5.71L173.81,396.17z"/>
			<path id="XMLID_10838_" class="st3" d="M120.26,365.2c0,0-1.07,0.03-1.27,1.11c-0.24,1.29-0.45,5.04-0.97,7.16
				c-0.73,2.95-1.14,8.98-0.62,11.37c0.51,2.39,6.38,3.97,10.13,5.27c3.83,1.32,8.29,4.1,12.21,7.08c4.06,3.08,12.54,6.11,18.09,6.1
				c8.48,0,13.92-2.27,15.56-5.18c2.03-3.61,0.35-5.66-9.47-9.81c-1.86-0.79-8.4-4.34-10.63-5.62c-6.04-3.49-12.05-8.38-14.91-14.66
				c-0.34-0.73-0.69-1.55-1.44-1.91c-0.57-0.28-1.26-0.23-1.9-0.14c-1.62,0.24-3.19,0.72-4.66,1.41c-1.3,0.61-3.14,1.33-3.08,2.92
				c0.02,0.55,0.2,1.09,0.4,1.61c0.12,0.32,0.22,0.75-0.07,0.95c-0.28,0.19-0.66-0.02-0.92-0.23c-1.04-0.85-1.8-1.96-2.68-2.96
				c-0.47-0.54-0.98-1.05-1.57-1.47c-0.53-0.38-1.21-0.57-1.69-1C120.17,366.64,120.3,365.95,120.26,365.2z"/>
			<path class="st6" d="M165.5,388.98c-12.25,0.98-15.98,8.23-16.42,12.7c3.06,0.98,6.21,1.62,8.74,1.62
				c8.47,0,14.27-2.27,15.91-5.19C175.65,394.7,174.26,391.99,165.5,388.98z"/>
			<g>
				<g>
					<path class="st5" d="M147.12,389.36c-0.13,0-0.27-0.04-0.38-0.12c-0.26-0.2-0.3-0.55-0.1-0.8c1.67-2.01,6.55-4.71,11.01-4.32
						c0.33,0.03,0.57,0.31,0.54,0.62c-0.03,0.31-0.31,0.54-0.65,0.51c-4.17-0.36-8.64,2.29-9.96,3.89
						C147.46,389.29,147.29,389.36,147.12,389.36z"/>
				</g>
				<g>
					<path class="st5" d="M141.78,386.51c-0.13,0-0.27-0.04-0.38-0.12c-0.26-0.19-0.3-0.55-0.1-0.8c1.67-2.01,6.55-4.72,11.01-4.32
						c0.33,0.03,0.57,0.31,0.54,0.62c-0.03,0.31-0.31,0.54-0.65,0.51c-4.17-0.37-8.64,2.29-9.96,3.89
						C142.12,386.43,141.95,386.51,141.78,386.51z"/>
				</g>
				<g>
					<path class="st5" d="M136.82,383.24c-0.13,0-0.27-0.04-0.38-0.12c-0.26-0.19-0.3-0.55-0.1-0.8c1.67-2.01,6.57-4.72,11.01-4.32
						c0.33,0.03,0.57,0.31,0.54,0.62c-0.03,0.31-0.31,0.54-0.65,0.51c-4.16-0.36-8.64,2.29-9.96,3.89
						C137.16,383.16,136.99,383.24,136.82,383.24z"/>
				</g>
				<g>
					<path class="st5" d="M131.96,379.96c-0.13,0-0.26-0.04-0.37-0.12c-0.26-0.19-0.31-0.55-0.11-0.8c2.3-2.85,7.57-4.79,12.03-4.39
						c0.33,0.03,0.57,0.31,0.54,0.62c-0.03,0.31-0.31,0.53-0.65,0.51c-4.02-0.36-8.94,1.42-10.97,3.95
						C132.31,379.89,132.14,379.96,131.96,379.96z"/>
				</g>
			</g>
		</g>
	</g>
	<g>
		<g id="XMLID_10836_">
			<path id="XMLID_10837_" class="st19" d="M94.58,319.21l-27.09-5.86c-0.71,16.77-0.28,39.46-0.86,55.21
				c-0.11,2.96-1.64,22.99-0.79,29.14c1.28,9.24,13.67,8.64,14.7,3.2c1.03-5.44,1.92-28.69,2.12-31.1
				c0.58-10.09,6.33-27.04,10.37-44.99C93.22,323.93,94.39,320.07,94.58,319.21z"/>
		</g>
		<g>
			<path class="st4" d="M84.91,404.95c-0.11,5.39-0.89,8.99-2.91,12.22c-2.02,3.23-6.05,4.37-10.23,3.6
				c-4.17-0.77-9.58-3.04-10.98-7.63c-1.4-4.59-1.3-7.78-0.59-12.8L84.91,404.95z"/>
			<path id="XMLID_10834_" class="st3" d="M66.69,366.63c-1.7,0.18-1.87,7.42-2.52,14.68c-0.7,7.78-3.17,11.09-3.82,17.47
				c-0.74,7.3-0.16,10.52,2.92,14.8c3.08,4.28,13.49,8.21,18.23,1.74c3.86-5.27,3.77-10.96,3.07-18.19
				c-0.73-7.48-1.31-12.73-1.22-18.43c0.08-5.45,1.02-10.52-0.49-11.07c-0.08,0.8-0.14,1.82-0.23,2.61c-0.06,0.6-0.1,3.55-1.05,3.62
				c-0.12-0.69-0.13-1.34-0.11-2.05c0.02-0.62-0.07-1.28-0.55-1.74c-0.48-0.45-1.98-0.79-2.68-0.88c-1.69-0.23-3.39-0.43-5.09-0.5
				c-0.85-0.04-1.7-0.04-2.55,0c-0.69,0.03-1.5,0.11-2.14,0.35c-0.4,0.15-0.76,0.41-0.89,0.77c-0.1,0.27-0.06,0.55-0.05,0.83
				c0.02,0.5-0.03,1.01-0.14,1.5c-0.05,0.22-0.21,0.48-0.45,0.44c-0.2-0.03-0.29-0.25-0.3-0.43c-0.05-0.87,0.05-1.52,0.05-2.54
				c0-0.47,0.06-1.12,0.04-1.59C66.69,367.56,66.67,367.1,66.69,366.63z"/>
			<path class="st6" d="M60.07,403.01c-0.09,4.52,0.35,7.59,2.76,10.94c3.08,4.28,14.31,8.19,19.05,1.72
				c2.36-3.22,2.86-6.94,3.03-10.72C81.67,400.21,64.63,398.71,60.07,403.01z"/>
			<g>
				<g>
					<path class="st5" d="M80.18,397.22c-0.07,0-0.14-0.02-0.21-0.04c-0.07-0.03-7.15-2.64-14.74-0.79
						c-0.34,0.08-0.68-0.09-0.78-0.39c-0.09-0.3,0.11-0.6,0.44-0.69c8.03-1.95,15.27,0.73,15.58,0.84c0.32,0.12,0.47,0.45,0.33,0.73
						C80.69,397.1,80.44,397.23,80.18,397.22z"/>
				</g>
				<g>
					<path class="st5" d="M65.39,390.96c-0.24-0.01-0.46-0.15-0.55-0.35c-0.12-0.29,0.04-0.61,0.36-0.72
						c7.53-2.56,15.23,0.58,15.55,0.72c0.32,0.13,0.45,0.46,0.3,0.74c-0.15,0.28-0.53,0.39-0.84,0.27
						c-0.07-0.03-7.55-3.08-14.55-0.68C65.57,390.95,65.48,390.96,65.39,390.96z"/>
				</g>
				<g>
					<path class="st5" d="M65.59,385.84c-0.24-0.01-0.45-0.14-0.55-0.35c-0.13-0.29,0.02-0.61,0.35-0.73
						c8.27-2.96,15.55,0.51,15.86,0.66c0.31,0.15,0.42,0.49,0.25,0.76c-0.17,0.27-0.56,0.37-0.86,0.22
						c-0.07-0.03-7.07-3.36-14.77-0.61C65.78,385.84,65.68,385.85,65.59,385.84z"/>
				</g>
				<g>
					<path class="st20" d="M65.85,380.09c-0.23-0.01-0.45-0.14-0.54-0.34c-0.14-0.28,0.01-0.61,0.34-0.73
						c7.75-2.89,15.65,0.66,15.98,0.81c0.31,0.14,0.43,0.48,0.27,0.75c-0.16,0.27-0.54,0.38-0.85,0.24
						c-0.08-0.03-7.71-3.46-14.9-0.77C66.04,380.09,65.94,380.1,65.85,380.09z"/>
				</g>
			</g>
		</g>
	</g>
	<path id="XMLID_10833_" class="st2" d="M78.86,181.8c-0.64,30.52-6.1,98.31-6.1,98.31c-0.46,3.75-5.89,19.69-6.09,33.25
		c-0.31,21.27-0.77,37.39-0.77,37.39s11.88,4.7,20.61,1.45c0,0,11.36-45.22,14.54-59.33c3.79-16.81,13.26-48.06,13.26-48.06
		l-0.69,44.43c0,0-1.9,13.7-0.36,26.86c1.05,8.96,4.65,33.91,4.65,33.91s10.94,2.2,20.42-0.6c0,0,5.71-53.58,6.18-61.82
		c0.54-9.4,3.44-103.93,3.44-103.93L78.86,181.8z"/>
	<path class="st3" d="M114.32,244.8l4.25-28.32c0,0,10.37-0.41,17.48-7.06c0,0-0.89,6.64-13.85,10.65l-4.91,23.88l-3.8,44.45
		L114.32,244.8z"/>
	<path class="st19" d="M132.83,92.82c5.51-0.29,15.77-0.64,23.14,8.44c5.18,6.38,19.32,21.73,27.32,31.86
		c5.37-5.59,18.39-19.13,20.52-23.08c2.66-4.66,4.05-9.25,4.86-11.66c1.04-3.07,1.43-5.46,1.71-7.27c0.67-4.31,0.19-7.53,0.16-9.11
		c-0.07-2.75,4.03-1.34,5.59,3.03c1.14,3.2,1.05,5.52,1.2,7.48c1.52-0.73,5.92-2.89,6.61-3.21c2.4-1.11,10.01-3.79,10.74,0.51
		c0.16,0.96-0.14,2.01,0.28,2.89c0.2,0.42,0.55,0.75,0.83,1.12c1.08,1.38,1.32,3.37,0.6,4.97c-0.36,0.78-0.52,1.41-0.42,2.27
		c0.1,0.81,0.34,1.66,0.1,2.47c-0.18,0.65-0.65,1.18-0.96,1.78c-0.4,0.78-0.54,1.66-0.66,2.53c-0.12,0.87-0.23,1.75-0.58,2.55
		c-0.84,1.9-3.14,2.34-4.91,2.97c-2.35,0.84-5.5,1.94-7.94,3.13c-4.25,2.8-15.69,23.5-27.28,36.76c-3.97,4.54-7.53,7.39-11.3,6.89
		l0.03-0.01c-3.05-0.07-6.82-2.84-10.45-5.97c-11.55-9.98-30.1-29.58-30.1-29.58C134.13,115.19,131.95,99.12,132.83,92.82z"/>
	<path class="st2" d="M137.95,91.28c3.66,0.57,6.18,0.46,10.84,3.11c4.1,2.33,5.58,4.29,10.33,9.61c4.75,5.31,16.1,19.11,16.1,19.11
		s-4.84,11.55-19.8,15.74l-16.55-16.07L137.95,91.28z"/>
	<path class="st21" d="M220.4,92.93c-2.36,0.83-2.96,2.43-2.78,5.86c0.11,2.03-0.38,5.8-2.53,7.38c0,0,1.82-0.23,2.83-1.34
		c1.01-1.11,1.29-1.24,1.89-0.64c0.6,0.59,1.55,0.83,1.55,0.83s-1.26,1.43-0.14,3.15c1.12,1.72,5.88,1.61,9.71-0.53
		c0,0-6.26,2.17-7.79,0.21c-1.53-1.96,1.74-4.59,4.21-5.35c0,0-6.06,1.65-7.06-0.32c-1-1.97,1.48-3.57,5.04-4.61
		c0,0-5.02,1.08-5.94-0.61C218.27,94.89,219.76,93.63,220.4,92.93z"/>
	<path id="XMLID_10830_" class="st8" d="M81.75,94.41c0,0-5.87,5.16-7.37,10.74c-0.74,2.74-1.42,5.03,0.9,20.25
		c2.22,14.53,2.21,18.89,2.71,30.2l0.58,30.35c8.69,10.18,50.87,15.72,71.17,2c0,0,0.12-52.62-1.32-69.96
		c-0.97-11.78-4.59-22.84-8.64-26.46c-5.52-0.96-10.82-1.6-10.82-1.6l-20.3-1.18L81.75,94.41z"/>
	<g id="XMLID_10821_">
		<g id="XMLID_10828_">
			<path class="st3" d="M139.17,52.22c2.7-6.2,0.06-14.43-3.17-18.29c-4.67-5.58-11.94-7.99-22.9-7.31
				c-8.33,0.52-16.53,3.98-18.09,12.53c-6.7,2-5.93,13-4.27,17.85c3.38,9.85,10.03,18.41,10.14,23.45L139.17,52.22z"/>
			<path class="st19" d="M139.17,75.38c-1.32,4.75-4.07,8.24-8.46,8.92c-2.63,0.42-6.94,0.04-6.94,0.04l0.17,6.05
				c5.91,5.06,3.75,11.71-0.2,17.7c-4.9-5.45-10.51-7.39-15.41-9.55c-4.89-2.15-7.15-6.92-7.15-6.92l-0.63-20.44
				c0,0-2.69,3.05-7.13,0.17c-3.04-1.99-5.22-7.12-3.01-11.84c2.19-4.64,6.6-2.72,7.95-1.31c1.35,1.41,2.93,4.06,4.06,3.69
				c1.72-0.57,2.29-1.65,2.73-2.78c0.79-1.99,1.35-4.56,1.44-8.99c1.23-0.62,2.4-1.52,3.44-2.66c1.89-2.1,2.9-4.59,2.99-6.88
				c9.5-2.97,20.43-1.57,24.38,1.48c2.27,4,2.36,13.31,2.73,18.67C140.53,66.55,140.27,71.41,139.17,75.38z"/>
			<path class="st21" d="M123.76,84.34c-4.86-0.27-14.64-2.54-17.24-5.26c-2.6-2.71-3.71-8.27-3.71-8.27s0.39,7.01,2.4,10.11
				c2.01,3.09,7.1,4.44,10.19,5.21c3.09,0.77,8.45,1.28,8.45,1.28L123.76,84.34z"/>
			<g>
				<path class="st2" d="M123.73,108.1c-2.54-1.56-8.16-7.94-10.95-4.97c-2.79,2.96-4.29,3.78-6.13,3.23
					c-1.84-0.55-5.92-4.57-8.58-7.51c-2.66-2.94-3.5-7.16-3.5-7.16s2.58-3.13,3.75-5.21c1.26-2.25,1-2.88,2.61-2.99l0.14,4.23
					c0,0,1.03,2.31,5.6,5.43C111.24,96.26,120.45,100.91,123.73,108.1z"/>
				<path class="st2" d="M123.73,108.1c1.51-1.38,3.98-7.84,4.64-7.65c0.97,0.28,2.71,4.73,3.55,3.7c1.33-1.64,0.93-9.13-1.28-11.85
					c-2.13-2.62-5.16-5.61-6.81-5.9l0.12,3.99c0,0,1.66,3.23,1.64,6.44C125.56,99.1,124.05,105.93,123.73,108.1z"/>
			</g>
		</g>
		<g id="XMLID_10822_">
			<path id="XMLID_10827_" class="st4" d="M120.69,57.62c0,1.13-0.87,2.04-1.96,2.04c-1.09,0-1.97-0.91-1.97-2.04
				c0-1.13,0.87-2.04,1.96-2.04C119.8,55.58,120.68,56.5,120.69,57.62z"/>
			<path id="XMLID_10826_" class="st4" d="M117.94,51.34l-3.98,2.69c-0.73-1.15-0.42-2.68,0.68-3.42
				C115.73,49.86,117.21,50.19,117.94,51.34z"/>
			<path id="XMLID_10825_" class="st4" d="M137.01,53.18l-4.37-2.09c0.54-1.24,1.95-1.77,3.15-1.2
				C137,50.47,137.55,51.94,137.01,53.18z"/>
			<path id="XMLID_10824_" class="st4" d="M135.54,57.5c0,1.13-0.87,2.04-1.96,2.04c-1.09,0-1.97-0.91-1.97-2.04
				c0-1.13,0.87-2.04,1.96-2.04C134.65,55.46,135.54,56.37,135.54,57.5z"/>
			<polygon id="XMLID_10823_" class="st21" points="125.2,53.39 126.62,67.53 134.21,65.24 			"/>
		</g>
	</g>
	<path id="XMLID_10820_" class="st22" d="M120.68,70.82l8.13,1.8c-0.45,2.32-2.63,3.8-4.88,3.31
		C121.68,75.43,120.23,73.14,120.68,70.82z"/>
	<path class="st21" d="M123.93,75.92c0.17,0.04,0.34,0.04,0.51,0.06c-0.05-2.05-1.73-3.69-3.78-3.69
		C120.91,74.04,122.17,75.53,123.93,75.92z"/>
	<polygon id="XMLID_3793_" class="st4" points="189.56,139.52 136.41,149.92 116.79,213.79 167.42,202.56 	"/>
	<path id="XMLID_3792_" class="st23" d="M145.24,187.6c-0.34,1.71-2.47,7.25-8.61,8.86c-6.98,1.84-14.25-0.84-14.25-0.84l1.64-5.34
		L145.24,187.6z"/>
	<path id="XMLID_3791_" class="st23" d="M173.65,147.93c0,0,0.25-0.88,0.56-1.97c0.31-1.09-2.76-1.33-6.84-0.55l-7.83,1.5
		c-4.09,0.78-7.65,2.3-7.96,3.38l-0.56,1.97L173.65,147.93z"/>
	<g id="XMLID_3788_">
		<path id="XMLID_3790_" class="st16" d="M177.76,140.64c0.2-0.68-1.03-0.94-2.75-0.58l-3.1,0.65c0,0,1.19-4.25-5.68-3.18
			c-6.86,1.07-8.66,5.87-8.66,5.87s-1.48,0.32-3.32,0.71c-1.83,0.39-3.52,1.26-3.78,1.93l-0.47,1.22l27.38-5.35
			C177.39,141.9,177.57,141.32,177.76,140.64z"/>
		<path id="XMLID_3789_" class="st24" d="M177.76,140.64c0.2-0.68-1.03-0.94-2.75-0.58l-3.1,0.65c0,0,1.19-4.25-5.68-3.18
			c-6.86,1.07-8.66,5.87-8.66,5.87s-1.48,0.32-3.32,0.71c-1.83,0.39-3.52,1.26-3.78,1.93l-0.47,1.22l27.38-5.35
			C177.39,141.9,177.57,141.32,177.76,140.64z"/>
		<path class="st16" d="M151.89,150.51c0.26-0.9,2.77-2.1,5.96-2.93c0.03-0.11,0.06-0.23,0.09-0.32c0.25-0.94-0.12-1.55-2.05-1.17
			l-0.11-0.77l18.98-3.55l-0.84,0.78c-2.51,0.44-3.55,0.7-4.03,2.37c-0.04,0.14-0.07,0.25-0.1,0.38c2.98-0.34,5-0.03,4.74,0.86
			c-0.31,1.09-0.56,1.97-0.56,1.97l-22.64,4.34L151.89,150.51z"/>
		<path class="st25" d="M151.89,150.51c0.26-0.9,2.77-2.1,5.96-2.93c0.03-0.11,0.06-0.23,0.09-0.32c0.25-0.94-0.12-1.55-2.05-1.17
			l-0.11-0.77l18.98-3.55l-0.84,0.78c-2.51,0.44-3.55,0.7-4.03,2.37c-0.04,0.14-0.07,0.25-0.1,0.38c2.98-0.34,5-0.03,4.74,0.86
			c-0.31,1.09-0.56,1.97-0.56,1.97l-22.64,4.34L151.89,150.51z"/>
	</g>
	<path class="st19" d="M128.2,176.66c6.51,2.18,13.01,2.34,19.77,2.33c1.65,0,2.9,0.25,3.39,1.83c0.17,0.56,0.4,1.33-1.73,1.96
		c-0.56,0.17-1.34,0.37-1.66,0.86c-0.5,0.77-0.25,1.55-0.38,2.46c-0.19,1.34-1.13,2.44-2.02,3.45c-1.01,1.14-2.05,2.31-3.34,3.12
		c-4.12,2.59-10.47,2.91-15.16,2.15c-3.18-0.51-6.35-1.65-9.36-2.77c-2.86-1.06-20.29-6.19-22.37-6.92
		c-15.39-5.37-36.55-11.95-37.8-19.25c-1.24-7.29,2.67-30.02,5.47-48.54c2.26-14.96,8.33-20.29,18.16-22.35
		c10.77,12.24,3.96,33.45,3.96,33.45l-3.92,28.26c1.66,1.38,26.84,15.52,31.19,16.92c1.58,0.51,4.53-0.11,6.1-0.65
		c4.21-1.44,7.09-1.32,11.17-1.13"/>
	<path class="st2" d="M81.75,94.41c-10.44,1.43-16.62,6.78-18.74,16.9c-1.77,8.5-5.07,35.95-5.07,35.95
		c6.95,6.13,18.34,5.79,24.5,3.65l3.18-22.05C88.19,123.22,92.21,106.39,81.75,94.41z"/>
	<path class="st2" d="M75.04,183.58l-5.27,2.91c-0.64,0.35-1.18,1.23-1.2,1.97c-0.13,4.73-0.51,20.95,0.24,29.84
		c0.06,0.73,0.64,1.61,1.28,1.97c3.01,1.69,11.14,6.15,14.87,7.18c0.71,0.2,1.86-0.01,2.53-0.28l3.76-1.51
		c0.68-0.27,1.22-1.09,1.22-1.82c0.04-9.44,1.67-19.81,3.23-30.09c0.11-0.72-0.34-1.57-1-1.89l-17.32-8.36
		C76.74,183.2,75.69,183.23,75.04,183.58z"/>
	<path class="st3" d="M68.81,218.31c-0.76-8.89-0.38-25.11-0.24-29.84c0.02-0.73,0.57-1.06,1.23-0.74l16.12,8.01
		c0.66,0.33,1.13,1.18,1.08,1.91c-0.34,4.19-1.31,17.57-0.79,28.7c0.03,0.73-0.53,1.3-1.24,1.11c-3.73-1.03-11.85-5.49-14.87-7.18
		C69.46,219.92,68.88,219.04,68.81,218.31z"/>
	<path class="st4" d="M85.16,227.49c0.71,0.14,1.72-0.07,2.34-0.31l3.76-1.51c0.68-0.26,1.16-1.09,1.22-1.82
		c0.74-9.69,1.67-19.81,3.24-30.09c0.06-0.35-0.02-0.7-0.19-1.03l-8.72,3.98c0.14,0.3,0.22,0.63,0.19,0.94
		c-0.34,4.2-1.31,17.58-0.79,28.71C86.23,227.02,85.77,227.55,85.16,227.49z"/>
	<path class="st4" d="M71.7,191.82l11.83,5.72l-0.63,9.63l-11.53-5.08C71.37,202.1,71.45,195.9,71.7,191.82z"/>
	<path class="st16" d="M82.95,206.44l-10.92-4.81c0,0,0.07-5.47,0.29-9.52l11.22,5.43L82.95,206.44z"/>
	<path class="st25" d="M82.95,206.44l-10.92-4.81c0,0,0.07-5.47,0.29-9.52l11.22,5.43L82.95,206.44z"/>
	<polygon class="st4" points="88.5,191.21 85.56,192.62 74.96,187.43 77.82,185.99 	"/>
	<polygon class="st16" points="88.06,191.42 85.56,192.62 75.4,187.64 77.83,186.42 	"/>
	<polygon class="st25" points="88.06,191.42 85.56,192.62 75.4,187.64 77.83,186.42 	"/>
	<polygon class="st25" points="86.55,190.68 84.03,191.86 83.71,191.71 86.22,190.52 	"/>
	<polygon class="st25" points="84.29,189.57 81.79,190.77 81.43,190.59 83.95,189.41 	"/>
	<polygon class="st25" points="82.04,188.48 79.53,189.66 79.21,189.51 81.71,188.32 	"/>
	<polygon class="st25" points="79.99,187.48 77.48,188.66 77.16,188.5 79.66,187.31 	"/>
	<g>
		<path class="st4" d="M83.42,210.47l-0.08,1.19c-0.03,0.37-0.32,0.55-0.66,0.41l-2.14-0.88c-0.34-0.14-0.6-0.55-0.57-0.91
			l0.07-1.22c0.02-0.37,0.31-0.55,0.65-0.41l2.17,0.9C83.19,209.69,83.44,210.1,83.42,210.47z"/>
		<path class="st4" d="M83.44,214.34l-0.06,1.19c-0.02,0.37-0.31,0.55-0.65,0.42l-2.15-0.84c-0.34-0.13-0.6-0.54-0.59-0.9l0.05-1.22
			c0.02-0.37,0.3-0.55,0.64-0.42l2.18,0.87C83.2,213.57,83.46,213.97,83.44,214.34z"/>
		<path class="st4" d="M83.46,218.21l-0.05,1.19c-0.01,0.37-0.3,0.56-0.65,0.43l-2.16-0.81c-0.34-0.13-0.61-0.53-0.6-0.9l0.03-1.22
			c0.01-0.37,0.3-0.56,0.64-0.43l2.2,0.83C83.21,217.44,83.47,217.84,83.46,218.21z"/>
		<path class="st4" d="M83.48,222.08l-0.03,1.19c-0.01,0.37-0.3,0.56-0.64,0.44l-2.18-0.78c-0.35-0.12-0.62-0.52-0.62-0.89
			l0.01-1.22c0-0.37,0.29-0.56,0.63-0.44l2.21,0.8C83.21,221.32,83.49,221.71,83.48,222.08z"/>
	</g>
	<g>
		<path class="st4" d="M78.63,208.28l-0.06,1.24c-0.02,0.37-0.31,0.55-0.65,0.41l-2.13-0.88c-0.34-0.14-0.6-0.55-0.59-0.92
			l0.05-1.27c0.01-0.37,0.3-0.55,0.64-0.41l2.16,0.9C78.39,207.5,78.64,207.92,78.63,208.28z"/>
		<path class="st4" d="M78.61,212.13l-0.06,1.24c-0.02,0.37-0.31,0.55-0.64,0.41l-2.13-0.87c-0.34-0.14-0.6-0.55-0.59-0.91
			l0.05-1.27c0.01-0.37,0.3-0.55,0.64-0.41l2.16,0.89C78.37,211.35,78.63,211.76,78.61,212.13z"/>
		<path class="st4" d="M78.59,215.97l-0.05,1.24c-0.02,0.37-0.3,0.55-0.64,0.41l-2.13-0.86c-0.34-0.14-0.61-0.54-0.59-0.91
			l0.04-1.27c0.01-0.37,0.3-0.55,0.63-0.41l2.16,0.88C78.35,215.2,78.61,215.6,78.59,215.97z"/>
		<path class="st4" d="M78.58,219.81l-0.05,1.24c-0.01,0.37-0.3,0.55-0.64,0.42l-2.14-0.85c-0.34-0.14-0.61-0.54-0.6-0.91l0.03-1.27
			c0.01-0.37,0.29-0.55,0.63-0.41l2.17,0.87C78.33,219.04,78.59,219.45,78.58,219.81z"/>
	</g>
	<g>
		<g>
			<path class="st4" d="M73.83,206.1l-0.04,1.29c-0.01,0.37-0.3,0.55-0.63,0.41l-2.11-0.88c-0.34-0.14-0.61-0.55-0.6-0.92l0.03-1.32
				c0.01-0.37,0.29-0.55,0.63-0.4l2.14,0.91C73.58,205.32,73.85,205.73,73.83,206.1z"/>
		</g>
		<g>
			<path class="st4" d="M73.85,209.84l-0.04,1.29c-0.01,0.37-0.3,0.55-0.63,0.41l-2.11-0.88c-0.34-0.14-0.61-0.55-0.6-0.92
				l0.03-1.32c0.01-0.37,0.29-0.55,0.63-0.4l2.14,0.91C73.6,209.06,73.86,209.47,73.85,209.84z"/>
		</g>
		<g>
			<path class="st4" d="M73.86,213.57l-0.04,1.29c-0.01,0.37-0.3,0.55-0.63,0.41l-2.11-0.88c-0.34-0.14-0.61-0.55-0.6-0.92
				l0.03-1.32c0.01-0.37,0.29-0.55,0.63-0.4l2.14,0.91C73.61,212.8,73.87,213.21,73.86,213.57z"/>
		</g>
		<path class="st4" d="M73.87,217.31l-0.04,1.29c-0.01,0.37-0.3,0.55-0.63,0.41l-2.11-0.88c-0.34-0.14-0.61-0.55-0.6-0.92l0.03-1.32
			c0.01-0.37,0.29-0.55,0.63-0.4l2.14,0.91C73.62,216.54,73.89,216.95,73.87,217.31z"/>
	</g>
</g>
<g id="Speech_Bubble">
	<path class="st16" d="M288.03,89.08l-12.37,7.16l4.91,11.04c0.11,0.24,0.27,0.42,0.47,0.53c0.59,0.33,4.06,2.34,4.25,2.45
		c0.59,0.34,1.43,0.1,1.66-0.66l5.33-18.06L288.03,89.08z"/>
	<path class="st10" d="M288.03,89.08l-12.37,7.16l4.91,11.04c0.11,0.24,0.27,0.42,0.47,0.53c0.59,0.33,4.06,2.34,4.25,2.45
		c0.59,0.34,1.43,0.1,1.66-0.66l5.33-18.06L288.03,89.08z"/>
	<path class="st26" d="M279.92,98.7l4.91,11.04c0.43,0.96,1.82,0.87,2.12-0.14l5.33-18.06L279.92,98.7z"/>
	<path id="XMLID_3797_" class="st16" d="M303.6,19.52l-46.64,26.93c-0.59,0.34-1.07,1.17-1.07,1.85v57.87
		c0,0.68,0.48,1.51,1.08,1.84l3.84,2.15c0.59,0.34,1.56,0.33,2.15-0.01l46.64-26.93c0.59-0.34,1.07-1.17,1.07-1.85V23.5
		c0-0.68-0.48-1.51-1.08-1.84l-3.84-2.15C305.15,19.18,304.19,19.18,303.6,19.52z"/>
	<path id="XMLID_3796_" class="st26" d="M310.64,23.31c-0.08-0.54-0.52-0.73-1.06-0.43l-46.63,26.93c-0.3,0.17-0.56,0.46-0.76,0.8
		l-5.97-3.4c0.19-0.32,0.45-0.6,0.74-0.76l46.64-26.93c0.59-0.34,1.55-0.35,2.15-0.01l3.83,2.15
		C310.12,21.97,310.57,22.67,310.64,23.31z"/>
	<path id="XMLID_3795_" class="st10" d="M261.88,109.54V51.67c0-0.68,0.48-1.51,1.07-1.85l46.64-26.93
		c0.59-0.34,1.07-0.06,1.07,0.62v57.87c0,0.68-0.48,1.51-1.07,1.85l-46.64,26.93C262.35,110.5,261.88,110.22,261.88,109.54z"/>
	<path id="XMLID_3786_" class="st10" d="M262.95,110.16c-0.57,0.33-1.61,0.34-2.15,0.01l-3.83-2.15c-0.59-0.33-1.08-1.16-1.08-1.84
		V48.3c0-0.36,0.13-0.75,0.34-1.09l5.96,3.4c-0.2,0.33-0.32,0.71-0.32,1.05v57.87C261.88,110.16,262.32,110.52,262.95,110.16z"/>
	<g>
		<path class="st6" d="M266.87,67.78c-0.09,0-0.19-0.02-0.27-0.07c-0.17-0.1-0.27-0.27-0.27-0.46V57.17c0-0.19,0.1-0.37,0.27-0.46
			l8.73-5.04c0.17-0.1,0.37-0.1,0.54,0c0.17,0.1,0.27,0.27,0.27,0.46l0,10.08c0,0.19-0.1,0.37-0.27,0.46l-8.73,5.04
			C267.05,67.76,266.96,67.78,266.87,67.78z M267.41,57.48v8.84l7.65-4.42l0-8.84L267.41,57.48z"/>
	</g>
	<path id="Check_2_" class="st2" d="M276.62,49.61c-0.54-0.23-1.16,0.03-1.39,0.57l-4,9.52l-0.95-0.93c-0.42-0.41-1.09-0.4-1.5,0.02
		c-0.41,0.42-0.4,1.09,0.02,1.5l2.07,2.01c0.2,0.19,0.46,0.3,0.74,0.3c0.07,0,0.14-0.01,0.21-0.02c0.34-0.07,0.63-0.3,0.76-0.63
		l4.6-10.95C277.41,50.45,277.16,49.83,276.62,49.61z"/>
	<path class="st2" d="M283.01,51.37l22.26-12.85c0.77-0.44,1.4-0.13,1.4,0.71c0,0.84-0.62,1.88-1.4,2.33l-22.26,12.85
		c-0.77,0.44-1.4,0.13-1.4-0.71C281.62,52.86,282.24,51.81,283.01,51.37z"/>
	<g>
		<path class="st6" d="M266.87,82.9c-0.09,0-0.19-0.02-0.27-0.07c-0.17-0.1-0.27-0.27-0.27-0.46V72.29c0-0.19,0.1-0.37,0.27-0.46
			l8.73-5.04c0.17-0.1,0.37-0.1,0.54,0c0.17,0.1,0.27,0.27,0.27,0.46v10.08c0,0.19-0.1,0.37-0.27,0.46l-8.73,5.04
			C267.05,82.88,266.96,82.9,266.87,82.9z M267.4,72.6v8.84l7.65-4.42v-8.84L267.4,72.6z"/>
	</g>
	<path id="Check_1_" class="st2" d="M276.62,64.72c-0.54-0.23-1.16,0.03-1.39,0.57l-4,9.52l-0.95-0.93c-0.42-0.41-1.09-0.4-1.5,0.02
		c-0.41,0.42-0.4,1.09,0.02,1.5l2.07,2.01c0.2,0.19,0.46,0.3,0.74,0.3c0.07,0,0.14-0.01,0.21-0.02c0.34-0.07,0.63-0.3,0.76-0.63
		l4.6-10.95C277.41,65.57,277.16,64.95,276.62,64.72z"/>
	<path class="st2" d="M283.01,66.44l22.26-12.85c0.77-0.44,1.4-0.13,1.4,0.71c0,0.84-0.62,1.88-1.4,2.33l-22.26,12.85
		c-0.77,0.44-1.4,0.13-1.4-0.71C281.62,67.92,282.24,66.88,283.01,66.44z"/>
	<g>
		<path class="st6" d="M266.87,98.02c-0.09,0-0.19-0.02-0.27-0.07c-0.17-0.1-0.27-0.27-0.27-0.46V87.4c0-0.19,0.1-0.37,0.27-0.46
			l8.73-5.04c0.17-0.1,0.37-0.1,0.54,0c0.17,0.1,0.27,0.27,0.27,0.46v10.08c0,0.19-0.1,0.37-0.27,0.46l-8.73,5.04
			C267.05,97.99,266.96,98.02,266.87,98.02z M267.4,87.71v8.84l7.65-4.42v-8.84L267.4,87.71z"/>
	</g>
	<path id="Check_3_" class="st2" d="M276.62,79.84c-0.54-0.23-1.16,0.03-1.39,0.57l-4,9.52l-0.95-0.93c-0.42-0.41-1.09-0.4-1.5,0.02
		c-0.41,0.42-0.4,1.09,0.02,1.5l2.07,2.01c0.2,0.19,0.46,0.3,0.74,0.3c0.07,0,0.14-0.01,0.21-0.02c0.34-0.07,0.63-0.3,0.76-0.63
		l4.6-10.95C277.41,80.68,277.16,80.06,276.62,79.84z"/>
	<path class="st2" d="M283.01,81.51l22.26-12.85c0.77-0.44,1.4-0.13,1.4,0.71c0,0.84-0.62,1.88-1.4,2.33l-22.26,12.85
		c-0.77,0.44-1.4,0.13-1.4-0.71C281.62,82.99,282.24,81.95,283.01,81.51z"/>
	<g>
		<g>
			<path class="st10" d="M526.14,37.71c0,23.92,14.66,45.31,37.7,59.57c22.7-14.26,37.12-35.49,37.12-59.2
				c0-23.92-14.66-45.31-37.7-59.57C540.56-7.23,526.14,14,526.14,37.71z"/>
			<path class="st27" d="M522.76,37.69c0,26.08,15.99,49.41,41.12,64.97c24.76-15.56,40.48-38.7,40.48-64.56
				c0-26.09-15.99-49.41-41.12-64.97C538.48-11.31,522.76,11.83,522.76,37.69z"/>
			<linearGradient id="SVGID_1_" gradientUnits="userSpaceOnUse" x1="560.9159" y1="-13.5254" x2="566.193" y2="-13.5254">
				<stop  offset="0" style="stop-color:#FFFFFF"/>
				<stop  offset="1" style="stop-color:#222221"/>
			</linearGradient>
			<circle class="st28" cx="563.55" cy="-13.53" r="2.64"/>
			
				<linearGradient id="SVGID_00000030466720238398712880000003018222955369861796_" gradientUnits="userSpaceOnUse" x1="561.2647" y1="88.8827" x2="566.5417" y2="88.8827">
				<stop  offset="0" style="stop-color:#FFFFFF"/>
				<stop  offset="1" style="stop-color:#222221"/>
			</linearGradient>
			<circle style="fill:url(#SVGID_00000030466720238398712880000003018222955369861796_);" cx="563.9" cy="88.88" r="2.64"/>
		</g>
		<text transform="matrix(1 0 0 1 617.3823 26.1019)"><tspan x="0" y="0" style="fill:#222221; font-family:'Orbitron-Light'; font-size:13.2308px;">CMYK: 26 - 68 - 0 - 0</tspan><tspan x="0" y="15.88" style="fill:#222221; font-family:'Orbitron-Light'; font-size:13.2308px;">RGB: 195 - 109 - 169</tspan><tspan x="0" y="31.75" style="fill:#222221; font-family:'Orbitron-Light'; font-size:13.2308px;">Hexadecimal: #C36DA9</tspan></text>
	</g>
	<g>
		<g>
			<path class="st26" d="M526.14,197.53c0,23.92,14.66,45.31,37.7,59.57c22.7-14.26,37.12-35.49,37.12-59.2
				c0-23.92-14.66-45.31-37.7-59.57C540.56,152.59,526.14,173.81,526.14,197.53z"/>
			<path class="st27" d="M522.76,197.51c0,26.08,15.99,49.41,41.12,64.97c24.76-15.56,40.48-38.7,40.48-64.56
				c0-26.09-15.99-49.41-41.12-64.97C538.48,148.51,522.76,171.65,522.76,197.51z"/>
			
				<linearGradient id="SVGID_00000040551567344513508460000002374873301449876924_" gradientUnits="userSpaceOnUse" x1="560.9159" y1="146.2903" x2="566.193" y2="146.2903">
				<stop  offset="0" style="stop-color:#FFFFFF"/>
				<stop  offset="1" style="stop-color:#222221"/>
			</linearGradient>
			<circle style="fill:url(#SVGID_00000040551567344513508460000002374873301449876924_);" cx="563.55" cy="146.29" r="2.64"/>
			
				<linearGradient id="SVGID_00000032608082033052476420000001490317377661858944_" gradientUnits="userSpaceOnUse" x1="560.9159" y1="248.6984" x2="566.193" y2="248.6984">
				<stop  offset="0" style="stop-color:#FFFFFF"/>
				<stop  offset="1" style="stop-color:#222221"/>
			</linearGradient>
			<circle style="fill:url(#SVGID_00000032608082033052476420000001490317377661858944_);" cx="563.55" cy="248.7" r="2.64"/>
		</g>
		<text transform="matrix(1 0 0 1 615.683 177.9799)"><tspan x="0" y="0" style="fill:#222221; font-family:'Orbitron-Light'; font-size:13.2308px;">CMYK: 26 - 68 - 0 - 0</tspan><tspan x="0" y="15.88" style="fill:#222221; font-family:'Orbitron-Light'; font-size:13.2308px;">RGB: 195 - 109 - 169</tspan><tspan x="0" y="31.75" style="fill:#222221; font-family:'Orbitron-Light'; font-size:13.2308px;">Hexadecimal: #C36DA9</tspan><tspan x="0" y="47.63" style="fill:#222221; font-family:'Orbitron-Light'; font-size:13.2308px;">Opacidad: 81%</tspan></text>
	</g>
	<g>
		<g>
			<path class="st8" d="M526.14,357.34c0,23.92,14.66,45.31,37.7,59.57c22.7-14.26,37.12-35.49,37.12-59.2
				c0-23.92-14.66-45.31-37.7-59.57C540.56,312.41,526.14,333.63,526.14,357.34z"/>
			<path class="st32" d="M522.76,357.33c0,26.08,15.99,49.41,41.12,64.97c24.76-15.56,40.48-38.7,40.48-64.56
				c0-26.09-15.99-49.41-41.12-64.97C538.48,308.32,522.76,331.46,522.76,357.33z"/>
			
				<linearGradient id="SVGID_00000098933430383063466250000018127424188257276069_" gradientUnits="userSpaceOnUse" x1="560.9159" y1="306.106" x2="566.193" y2="306.106">
				<stop  offset="0" style="stop-color:#FFFFFF"/>
				<stop  offset="1" style="stop-color:#222221"/>
			</linearGradient>
			<circle style="fill:url(#SVGID_00000098933430383063466250000018127424188257276069_);" cx="563.55" cy="306.11" r="2.64"/>
			
				<linearGradient id="SVGID_00000045599812321360957580000000320580819784525484_" gradientUnits="userSpaceOnUse" x1="560.9159" y1="404.875" x2="566.193" y2="404.875">
				<stop  offset="0" style="stop-color:#FFFFFF"/>
				<stop  offset="1" style="stop-color:#222221"/>
			</linearGradient>
			<circle style="fill:url(#SVGID_00000045599812321360957580000000320580819784525484_);" cx="563.55" cy="404.88" r="2.64"/>
		</g>
		<g>
			<text transform="matrix(1 0 0 1 616.9292 345.7342)"><tspan x="0" y="0" style="fill:#222221; font-family:'Orbitron-Light'; font-size:13.2308px;">CMYK: 65 - 75 - 43 - 46</tspan><tspan x="0" y="15.88" style="fill:#222221; font-family:'Orbitron-Light'; font-size:13.2308px;">RGB: 79 - 54 - 73</tspan><tspan x="0" y="31.75" style="fill:#222221; font-family:'Orbitron-Light'; font-size:13.2308px;">Hexadecimal: #4F3649</tspan></text>
		</g>
	</g>
</g>
</svg>
