<?xml version="1.0" encoding="utf-8"?>
<!-- Generator: Adobe Illustrator 26.0.0, SVG Export Plug-In . SVG Version: 6.00 Build 0)  -->
<svg version="1.1" xmlns="http://www.w3.org/2000/svg" xmlns:xlink="http://www.w3.org/1999/xlink" x="0px" y="0px"
	 viewBox="0 0 500 500" style="enable-background:new 0 0 500 500;" xml:space="preserve">
<style type="text/css">
	.st0{fill:#FAFAFA;}
	.st1{fill:#BA68C8;}
	.st2{opacity:0.65;}
	.st3{fill:#FFFFFF;}
	.st4{fill:#E0E0E0;}
	.st5{fill:#FFA8A7;}
	.st6{fill:#263238;}
	.st7{fill:#37474F;}
	.st8{fill:#F0F0F0;}
	.st9{fill:#EBEBEB;}
	.st10{opacity:0.1;fill:#BA68C8;}
	.st11{fill:#F28F8F;}
	.st12{fill:#455A64;}
	.st13{opacity:0.4;}
	.st14{fill:#B16668;}
	.st15{opacity:0.7;fill:#FFFFFF;}
	.st16{opacity:0.4;fill:#FFFFFF;}
	.st17{opacity:0.6;fill:#FFFFFF;}
	.st18{opacity:0.6;fill:#BA68C8;}
	.st19{opacity:0.3;fill:#FFFFFF;}
	.st20{opacity:0.1;}
	.st21{fill:#F5F5F5;}
	.st22{opacity:0.3;}
	.st23{opacity:0.1;fill:#FFFFFF;}
	.st24{opacity:0.25;}
</style>
<g id="Floor">
	
		<ellipse id="Floor_00000160151211258969163600000004186087420310611588_" class="st0" cx="250" cy="372.09" rx="240.88" ry="119.85"/>
</g>
<g id="Plants">
	<g id="Plants_00000065780636504750480210000012025879537515534979_">
		<g>
			<g>
				<g>
					<path class="st1" d="M461.33,309.35c-0.97,2.89-1.71,5.85-2.21,8.85c-0.96,5.76-0.29,25.82,0.01,31.62c0,0.01,0,0.02,0,0.03
						l-0.99,0.33c0-0.02-0.01-0.03-0.02-0.05c-1.07-5.88-1.21-26.74-0.04-32.57c0.58-2.9,1.35-5.76,2.34-8.55
						c1.02-2.91,2.2-6.07,4.07-8.56c0.13-0.18,0.32,0.21,0.27,0.33C463.68,303.67,462.31,306.43,461.33,309.35z"/>
					<path class="st1" d="M462.31,306.14c2.53-1.6,5.76-4.25,7.05-10.51c1.29-6.26,3.04-11.7,2.5-13.05
						c-0.54-1.35-6.55,4.62-9.52,10.75C459.36,299.46,460.7,302.95,462.31,306.14z"/>
					<path class="st1" d="M464.88,310.76c-0.53-0.99,1.27-3.98,5.82-6.71c4.54-2.73,11.24-4.44,11.81-3.87
						c0.57,0.58-4.28,6.46-9.34,8.78C468.11,311.3,465.37,311.68,464.88,310.76z"/>
					<path class="st1" d="M445.46,290.38c0.7-0.61,7.08,5.4,9.37,11.38c1.98,5.2,2.42,8.27,1.78,9.31c0.04,0.07,0.08,0.13,0.12,0.19
						c0.5,0.89,0.9,1.81,1.21,2.78c0.59,1.84,1.12,4.07,0.51,5.97c-0.04,0.12-0.16-0.02-0.18-0.08c-0.43-1.75-0.63-3.55-1.18-5.26
						c-0.35-1.1-0.79-2.16-1.31-3.19c-1.43-0.08-4.31-2.42-6.8-7.25C446.21,298.8,444.75,290.99,445.46,290.38z"/>
					<path class="st1" d="M460.19,325.21c-0.62-0.93,0.88-4.08,5.13-7.25c4.26-3.16,10.75-5.52,11.37-5.01
						c0.62,0.52-3.62,6.85-8.43,9.66C463.45,325.42,460.77,326.07,460.19,325.21z"/>
					<path class="st1" d="M458.56,315.74c0.06-0.73,0.66-1.42,1.15-1.92c0.63-0.64,1.33-1.21,2.07-1.72
						c1.57-1.09,3.31-1.92,5.08-2.63c0.18-0.08,0.38,0.33,0.23,0.44c-1.49,1.08-3.07,1.99-4.6,3.01c-0.71,0.47-1.39,0.99-2,1.58
						c-0.29,0.28-0.57,0.57-0.84,0.87c-0.22,0.25-0.49,0.69-0.85,0.74C458.66,316.13,458.55,315.85,458.56,315.74z"/>
					<path class="st1" d="M459.34,325.08c0.53-0.5,1.1-0.93,1.7-1.34c0.61-0.4,1.26-0.66,1.95-0.88c0.17-0.05,0.32,0.25,0.18,0.35
						c-1.09,0.8-2.17,1.65-3.17,2.56c-0.48,0.43-0.93,0.89-1.34,1.39c-0.36,0.44-0.57,0.84-0.68,1.39c-0.08,0.42-0.52,0.5-0.64,0.04
						C457,327.24,458.48,325.91,459.34,325.08z"/>
					<path class="st1" d="M457.83,333.06l-0.63,0.79c-1.66,0.05-6.3-2.7-9.28-6.82c-3.48-4.82-4.49-9.84-4.2-10.56
						c0.3-0.72,6.81,2.5,10.63,8.16C456.61,327.97,457.8,331.63,457.83,333.06z"/>
				</g>
				<g class="st2">
					<path class="st3" d="M461.33,309.35c-0.97,2.89-1.71,5.85-2.21,8.85c-0.96,5.76-0.29,25.82,0.01,31.62c0,0.01,0,0.02,0,0.03
						l-0.99,0.33c0-0.02-0.01-0.03-0.02-0.05c-1.07-5.88-1.21-26.74-0.04-32.57c0.58-2.9,1.35-5.76,2.34-8.55
						c1.02-2.91,2.2-6.07,4.07-8.56c0.13-0.18,0.32,0.21,0.27,0.33C463.68,303.67,462.31,306.43,461.33,309.35z"/>
					<path class="st3" d="M462.31,306.14c2.53-1.6,5.76-4.25,7.05-10.51c1.29-6.26,3.04-11.7,2.5-13.05
						c-0.54-1.35-6.55,4.62-9.52,10.75C459.36,299.46,460.7,302.95,462.31,306.14z"/>
					<path class="st3" d="M464.88,310.76c-0.53-0.99,1.27-3.98,5.82-6.71c4.54-2.73,11.24-4.44,11.81-3.87
						c0.57,0.58-4.28,6.46-9.34,8.78C468.11,311.3,465.37,311.68,464.88,310.76z"/>
					<path class="st3" d="M445.46,290.38c0.7-0.61,7.08,5.4,9.37,11.38c1.98,5.2,2.42,8.27,1.78,9.31c0.04,0.07,0.08,0.13,0.12,0.19
						c0.5,0.89,0.9,1.81,1.21,2.78c0.59,1.84,1.12,4.07,0.51,5.97c-0.04,0.12-0.16-0.02-0.18-0.08c-0.43-1.75-0.63-3.55-1.18-5.26
						c-0.35-1.1-0.79-2.16-1.31-3.19c-1.43-0.08-4.31-2.42-6.8-7.25C446.21,298.8,444.75,290.99,445.46,290.38z"/>
					<path class="st3" d="M460.19,325.21c-0.62-0.93,0.88-4.08,5.13-7.25c4.26-3.16,10.75-5.52,11.37-5.01
						c0.62,0.52-3.62,6.85-8.43,9.66C463.45,325.42,460.77,326.07,460.19,325.21z"/>
					<path class="st3" d="M458.56,315.74c0.06-0.73,0.66-1.42,1.15-1.92c0.63-0.64,1.33-1.21,2.07-1.72
						c1.57-1.09,3.31-1.92,5.08-2.63c0.18-0.08,0.38,0.33,0.23,0.44c-1.49,1.08-3.07,1.99-4.6,3.01c-0.71,0.47-1.39,0.99-2,1.58
						c-0.29,0.28-0.57,0.57-0.84,0.87c-0.22,0.25-0.49,0.69-0.85,0.74C458.66,316.13,458.55,315.85,458.56,315.74z"/>
					<path class="st3" d="M459.34,325.08c0.53-0.5,1.1-0.93,1.7-1.34c0.61-0.4,1.26-0.66,1.95-0.88c0.17-0.05,0.32,0.25,0.18,0.35
						c-1.09,0.8-2.17,1.65-3.17,2.56c-0.48,0.43-0.93,0.89-1.34,1.39c-0.36,0.44-0.57,0.84-0.68,1.39c-0.08,0.42-0.52,0.5-0.64,0.04
						C457,327.24,458.48,325.91,459.34,325.08z"/>
					<path class="st3" d="M457.83,333.06l-0.63,0.79c-1.66,0.05-6.3-2.7-9.28-6.82c-3.48-4.82-4.49-9.84-4.2-10.56
						c0.3-0.72,6.81,2.5,10.63,8.16C456.61,327.97,457.8,331.63,457.83,333.06z"/>
				</g>
			</g>
			<g>
				<path class="st1" d="M475.31,329.31c2.28-0.45,5.37-1.46,8.06-5.64c2.69-4.17,5.48-7.62,5.47-8.75
					c-0.01-1.13-6.04,1.52-9.92,5.12C475.04,323.65,475.03,326.55,475.31,329.31z"/>
				<path class="st1" d="M470.36,331.99c-0.91,0.26-2.03-4.08-1.15-8.06c0.88-3.99,3-6.78,3.5-6.95c0.5-0.17,1.53,6.14,0.67,9.2
					C472.54,329.23,470.95,331.82,470.36,331.99z"/>
				<path class="st1" d="M465.11,339.98c-0.94,0.5-3.16-4.04-3.08-8.66c0.08-4.62,1.79-8.21,2.31-8.52
					c0.52-0.31,3.07,6.44,2.81,10.02C466.9,336.41,465.72,339.66,465.11,339.98z"/>
				<path class="st1" d="M470.01,338.8c-0.67-0.83,3.34-3.89,7.88-4.73c4.55-0.83,8.4,0.13,8.81,0.58c0.4,0.45-4.03,3.94-9.27,4.73
					C473.87,339.92,470.45,339.34,470.01,338.8z"/>
				<path class="st1" d="M477.94,326.57c-3.15,2.66-5.89,5.84-8.47,9.07c0.07-0.19,0.15-0.37,0.22-0.56
					c0.36-0.95,0.62-1.93,0.83-2.93c0.19-0.89,0.49-2.06,0.23-2.96c-0.05-0.16-0.23-0.02-0.27,0.07c-0.46,0.95-0.62,2.07-0.9,3.09
					c-0.25,0.9-0.55,1.78-0.87,2.66c-0.43,1.22-0.99,2.38-1.52,3.56c-0.7,0.93-1.38,1.88-2.04,2.84c0.14-0.72,0.24-1.46,0.22-2.2
					c-0.01-0.41-0.03-0.81-0.06-1.21c-0.03-0.34-0.03-0.68-0.21-0.98c-0.09-0.15-0.28,0.05-0.31,0.15
					c-0.22,0.67-0.14,1.46-0.22,2.16c-0.08,0.71-0.16,1.43-0.31,2.14c-0.15,0.74-0.39,1.45-0.65,2.16
					c-0.09,0.18-0.22,0.47-0.31,0.64c-0.54,0.92-1.71,3.03-2.51,4.5l0.72,0.98c0.74-1.53,1.54-3.03,2.42-4.48
					c0.95-1.57,1.87-3.06,2.51-3.98c0.53-0.46,1.1-0.87,1.67-1.27c0.63-0.44,1.3-0.84,1.99-1.17c0.78-0.37,1.61-0.61,2.4-0.97
					c0.12-0.05,0.32-0.4,0.06-0.4c-0.85-0.02-1.72,0.28-2.5,0.59c-0.75,0.3-1.46,0.67-2.13,1.1c0.5-0.69,1.01-1.38,1.54-2.06
					c2.77-3.55,5.96-6.76,8.64-10.38C478.21,326.59,478.1,326.44,477.94,326.57z"/>
			</g>
		</g>
	</g>
</g>
<g id="Shadows">
	
		<ellipse id="Shadow_00000072974309603863909670000009128854171732154266_" class="st4" cx="399.5" cy="375.65" rx="77.97" ry="45.01"/>
	<path id="Shadow_31_" class="st4" d="M140.27,377.69l100.05-57.59c1.69-0.98,4.43-0.98,6.12,0l148.12,85.52
		c1.69,0.98,1.69,2.56,0,3.53L294.5,466.74c-1.69,0.98-4.43,0.98-6.12,0l-148.12-85.52C138.58,380.25,138.58,378.67,140.27,377.69z"
		/>
	<polygon id="Shadow_22_" class="st4" points="101.48,357.14 21.43,403.36 121.67,461.36 201.72,415.01 	"/>
</g>
<g id="Character">
	<g id="Chartacter_1_">
		<g id="Bottom_5_">
			<g>
				<path class="st5" d="M442.84,350.56c-0.83-12.07-1.35-16.81-2.5-38.38v0c-0.1-5.53-0.3-11.45-0.67-16.71
					c-1.25-17.7-3.52-21.91-5.05-27.98c-1.52-6.07-2.75-17.42-5.07-55.48c-1.29-21.11-4.34-32.8-7.02-43h-54.51
					c-5.6,23.86-7.2,75.52-7.03,100.12c0.09,12.54,0.22,77.31-0.09,82.49c-0.33,5.47-3.1,8.93-5.24,11.23
					c-4.49,4.82-7.71,6.77-13.34,10.97c0.82,2.15,12.61,2.07,15.96,0.44c5.35-2.62,12.26-6.92,14.08-8.27
					c4.63-3.42,6.67-8.34,6.74-13.55c0,0,0.2-1.25,0.16-1.35c0.09-3.04,7.69-45.94,9.6-56.19c1.49-7.96-0.14-23.38-0.14-23.38
					l5.78-37.92c0,0,6.52,25.17,10,40.5c2.56,11.27,8.89,29.06,13.03,47.08l0,0c4.84,18.31,5.23,19.93,8.08,33.04
					c1.44,6.61,2.74,32.84,4.35,37.41c5.17,14.76,17.43,4.82,18.09-3.35C448.49,382.86,443.02,353.16,442.84,350.56z"/>
			</g>
			<g>
				<path class="st6" d="M330.96,380.92c-0.31,0.01-0.69,3.46,1.04,4.87c2,1.64,7.81,4.26,15.36,3.08
					c7.56-1.17,11.6-3.63,14.57-6.24c2.97-2.62,7.13-6.31,10.54-7.15c3.17-0.78,8.31-2.71,9.3-3.72c0.99-1.01,0.74-5.39,0.74-5.39
					L330.96,380.92z"/>
				<path id="XMLID_792_" class="st7" d="M379.26,351.09c0,0,1.03,0.45,1.26,1.46c0.26,1.2,0.31,2.75,0.87,4.71
					c0.77,2.73,1.38,8.36,1.02,10.62c-0.36,2.25-7.23,4.34-10.52,5.69c-3.36,1.38-7.21,4.14-10.58,7.07
					c-3.49,3.03-10.91,6.17-15.85,6.37c-7.54,0.3-12.48-1.62-14.06-4.29c-1.95-3.31-0.51-6.9,8.05-11.14
					c1.62-0.8,7.3-4.36,9.23-5.65c2.04-1.36,3.99-2.86,5.79-4.54c0.91-0.85,1.77-1.74,2.58-2.69c0.71-0.83,1.72-1.84,2.12-2.86
					c0.09-0.23,0.15-0.5,0.23-0.74c0.24-0.69,0.39-1.33,0.51-2.05c0.12-0.72,0.18-1.78,0.86-2.23c0.77-0.52,2.2-0.49,3.09-0.45
					c1.12,0.06,3.61,0.7,4.68,1.02c1.79,0.54,3.13,0.91,3.91,2.09c0.6,0.9,0.72,2.06,0.79,3.12c0.03,0.51,0.04,1.02,0.05,1.52
					c0.01,0.22-0.07,0.61,0.23,0.51c0.29-0.09,0.59-0.86,0.69-1.12c0.23-0.57,0.36-1.18,0.61-1.75c0.28-0.65,0.51-1.4,1.03-1.86
					c1.41-1.25,2.81-1.05,3.22-1.47C379.1,352.44,379.23,351.52,379.26,351.09z"/>
				<path class="st0" d="M338.08,372.28c10.94,0.47,14.53,8.74,15.1,12.9c-2.68,1.03-5.46,1.74-7.71,1.83
					c-7.54,0.3-12.79-1.61-14.37-4.28C329.25,379.61,330.41,375.41,338.08,372.28z"/>
				<g>
					<g>
						<path class="st8" d="M354.43,373.58c0.12,0,0.24-0.05,0.33-0.13c0.22-0.19,0.25-0.53,0.06-0.75
							c-1.57-1.82-5.99-5.78-9.95-5.25c-0.29,0.04-0.5,0.31-0.46,0.6c0.04,0.29,0.3,0.5,0.6,0.46c3.7-0.49,7.75,3.44,9,4.89
							C354.12,373.52,354.27,373.58,354.43,373.58z"/>
					</g>
					<g>
						<path class="st8" d="M359.06,370.72c0.12,0,0.24-0.04,0.33-0.13c0.22-0.19,0.25-0.53,0.06-0.75
							c-1.57-1.82-5.99-5.79-9.95-5.25c-0.29,0.04-0.5,0.31-0.46,0.6c0.04,0.29,0.3,0.5,0.6,0.46c3.69-0.49,7.76,3.44,9,4.89
							C358.75,370.66,358.91,370.72,359.06,370.72z"/>
					</g>
					<g>
						<path class="st8" d="M363.34,367.47c0.12,0,0.24-0.05,0.33-0.13c0.22-0.19,0.25-0.53,0.06-0.75
							c-1.57-1.82-6.01-5.79-9.95-5.25c-0.29,0.04-0.5,0.31-0.46,0.6c0.04,0.29,0.3,0.5,0.6,0.46c3.69-0.49,7.75,3.44,9,4.89
							C363.03,367.41,363.18,367.48,363.34,367.47z"/>
					</g>
					<g>
						<path class="st8" d="M367.53,364.23c0.12,0,0.23-0.04,0.33-0.12c0.23-0.19,0.26-0.53,0.07-0.75
							c-2.16-2.59-6.9-5.82-10.86-5.28c-0.29,0.04-0.5,0.31-0.46,0.6c0.04,0.29,0.3,0.49,0.6,0.46c3.56-0.48,7.98,2.61,9.9,4.91
							C367.21,364.17,367.37,364.24,367.53,364.23z"/>
					</g>
				</g>
			</g>
			<g>
				<path class="st6" d="M428.16,387.55c0.51,5.02,1.44,8.33,3.36,11.21c1.92,2.88,5.33,3.66,8.71,2.64
					c3.38-1.02,7.65-3.52,8.44-7.91c0.79-4.39,1.23-7.39,0.25-12.03L428.16,387.55z"/>
				<path id="XMLID_00000070839855756055649120000001285603217677786770_" class="st7" d="M442.84,350.56
					c1.41,0.05,1.33,6.74,2.44,13.48c1.19,7.22,2.36,10.05,3.4,15.97c1.19,6.76,0.19,9.85-2.01,14.07
					c-2.2,4.22-10.46,8.62-14.88,2.91c-3.6-4.65-3.97-9.97-3.96-16.77c0.01-7.03-0.88-11.72-1.68-17
					c-0.83-5.46-2.16-10.34-0.97-10.96c0.13,0.74,1.08,4.52,1.45,5.37c0.16,0.37,0.75,1.29,0.9-0.14c0.05-0.42-0.13-1.39-0.11-1.81
					c0.05-1.18,0.75-1.41,1.21-1.68c0.98-0.6,3.19-1.44,5.94-1.58c2.75-0.13,5.12-0.33,6.69,0.39c0.94,0.43,0.96,1.31,1.1,2.16
					c0.16,1.02,0.21,1.65,0.45,1.43C443.28,355.97,442.72,351.3,442.84,350.56z"/>
				<path class="st0" d="M449.24,383.94c0.43,4.21-0.45,7.15-2.18,10.45c-2.2,4.22-11.14,8.66-15.55,2.96
					c-2.2-2.84-2.9-6.28-3.34-9.8C430.46,382.9,445.14,380.25,449.24,383.94z"/>
				<g>
					<g>
						<path class="st8" d="M430.91,380.02c0.06-0.01,0.12-0.03,0.17-0.06c0.06-0.03,6.45-3.01,12.85-1.82
							c0.28,0.05,0.56-0.14,0.61-0.42c0.05-0.28-0.14-0.56-0.42-0.61c-6.77-1.25-13.29,1.8-13.53,1.92
							c-0.25,0.14-0.35,0.45-0.22,0.71C430.48,379.94,430.7,380.05,430.91,380.02z"/>
					</g>
					<g>
						<path class="st8" d="M443.4,373.09c0.2-0.03,0.37-0.17,0.43-0.37c0.08-0.28-0.08-0.57-0.36-0.65
							c-6.4-1.86-13.26,1.66-13.52,1.81c-0.25,0.14-0.33,0.46-0.19,0.71c0.15,0.25,0.47,0.33,0.71,0.19
							c0.06-0.03,6.74-3.44,12.7-1.7C443.25,373.09,443.32,373.1,443.4,373.09z"/>
					</g>
					<g>
						<path class="st8" d="M442.96,368.32c0.19-0.03,0.36-0.16,0.42-0.36c0.09-0.28-0.07-0.57-0.34-0.65
							c-7.05-2.18-13.54,1.62-13.78,1.78c-0.24,0.16-0.3,0.48-0.14,0.72c0.16,0.24,0.49,0.3,0.72,0.14
							c0.05-0.04,6.33-3.67,12.89-1.65C442.81,368.32,442.89,368.33,442.96,368.32z"/>
					</g>
					<g>
						<path class="st9" d="M442.41,363.63c0.19-0.03,0.36-0.16,0.42-0.35c0.09-0.27-0.06-0.57-0.33-0.66
							c-6.61-2.15-13.6,1.76-13.87,1.93c-0.24,0.15-0.31,0.48-0.16,0.72c0.15,0.24,0.48,0.32,0.72,0.16
							c0.06-0.04,6.85-3.81,12.98-1.81C442.25,363.63,442.33,363.64,442.41,363.63z"/>
					</g>
				</g>
			</g>
			<g>
				<path class="st7" d="M426.86,169.02c2.04,14.88,2.68,18.54,4.91,51.68c2.16,32.14,2.33,36.85,2.65,40.73
					c0.73,8.88,4.66,11.95,5.81,32.9c1.05,19.2,1.68,42.89,1.68,42.89s-2.58,3.55-9.9,4.21c-6.75,0.6-10.12-1.93-10.12-1.93
					s-12.51-44.76-16-56.03c-4.74-15.3-11.39-42.15-11.39-42.15l-4.41,30.73c0,0,1.42,14.72-1.43,28.62
					c-3.54,17.23-7.15,35.96-7.15,35.96s-4.42,1.85-10.17,1.27c-7.9-0.8-10.54-2.63-10.54-2.63s-2.22-52.06-2.22-71.08
					c0-19.02,0.24-65.56,1.35-95.16H426.86z"/>
				<path class="st6" d="M394.5,241.31l-5.48-33.27c0,0-11.01-2.91-18.08-10.3c0.52,5.51,10.32,12.58,14.9,13.68l6.12,29.48
					l-1.87,31.14L394.5,241.31z"/>
				<path class="st6" d="M407.28,174.17c1.73,2.73,3.02,5.71,4.13,8.73c1.11,3.03,1.99,6.13,2.75,9.25
					c0.73,3.13,1.33,6.29,1.74,9.48c0.42,3.18,0.71,6.4,0.64,9.62c-0.77-3.13-1.48-6.23-2.19-9.34c-0.73-3.1-1.41-6.21-2.16-9.29
					c-0.71-3.09-1.49-6.17-2.28-9.25C409.1,180.3,408.24,177.24,407.28,174.17z"/>
				<path class="st6" d="M411.48,175.33c1.62,1.48,3.05,3.14,4.35,4.88c1.32,1.74,2.47,3.59,3.54,5.49c1.03,1.92,1.96,3.9,2.68,5.97
					c0.73,2.06,1.29,4.2,1.47,6.39l-2.93-5.76c-0.99-1.89-1.97-3.77-3.01-5.63c-1-1.88-2.06-3.73-3.08-5.61
					C413.48,179.19,412.43,177.31,411.48,175.33z"/>
				<path class="st6" d="M407.08,213.38c1.39,9.97,2.63,19.95,3.89,29.92c1.29,9.97,3.69,20.97,5.52,30.82
					c1.88,9.84,11.72,51.48,13.24,61.43c-2.3-9.8-13.3-51.15-15.23-61.06c-1.81-9.94-4.12-21-5.09-31.01
					C408.41,233.46,407.69,223.42,407.08,213.38z"/>
				<path class="st6" d="M369.78,213.81l-1.64,26.23c-0.24,4.37-0.52,8.74-0.72,13.11c-0.2,4.36-0.46,8.75-0.39,13.06
					c0.09,4.33,0.36,46.22-0.23,54.98c-1.03-9.76-1.5-46.13-1.8-54.95c0.03-8.87,0.78-17.57,1.56-26.32
					C367.38,231.18,368.43,222.47,369.78,213.81z"/>
				<path class="st7" d="M382.32,332.4l-1.49,9.12c0,0-3.65,2.33-11.32,1.54s-8.77-3.27-8.77-3.27v-8.58c0,0,1.84,1.78,8.83,2.57
					C376.58,334.57,382.32,332.4,382.32,332.4z"/>
				<path class="st7" d="M441.76,330.86l0.68,9.21c0,0-3.01,3.12-10.64,4.14c-7.64,1.02-9.29-1.14-9.29-1.14l-2-8.34
					c0,0,2.2,1.3,9.19,0.44C436.69,334.31,441.76,330.86,441.76,330.86z"/>
			</g>
		</g>
		<g id="Top_16_">
			<g id="aRM">
				<polygon class="st10" points="266.6,67.37 197.17,18.88 43.61,107.53 43.61,248.46 197.17,159.81 286.15,94.34 				"/>
				<path class="st5" d="M372.49,89.92c-8.12,1.5-12.92,3.33-19.35,12.89c-5.41,8.04-16.46,22.49-16.46,22.49
					s-14.79-12.9-17.01-16.69c-3.3-5.64-27.8-4.31-22.15,3.79c1.58,2.27,6.1,3.85,8.46,6.89c5.68,7.28,11.72,18.58,17.19,25.25
					c5.86,7.14,11.15,11.12,14.22,11.12c3.84,0,9.57-6.23,11.19-8.09c6.44-7.41,19.78-23.13,19.78-23.13L372.49,89.92z"/>
				<path class="st11" d="M311.56,112.48c-0.54-0.19-1.05-0.93-1.3-1.43c-0.3-0.59-0.42-1.26-0.52-1.91
					c-0.24-1.46-0.43-2.92-0.65-4.38c-0.2-1.37-0.37-2.76-0.61-4.12c-0.2-1.12-0.57-2.2-1.41-3.01c-0.5-0.47-1.49,0.16-0.92,0.7
					c0.94,0.89,1.09,2.26,1.27,3.48c0.24,1.59,0.47,3.19,0.71,4.78c0.21,1.43,0.29,2.96,0.81,4.32c0.48,1.25,1.31,1.92,2.61,2.17
					C311.95,113.16,311.84,112.58,311.56,112.48z"/>
				<path class="st12" d="M372.49,89.2c-8.21,1.53-11.55,2.69-16.52,8.77c-4.97,6.08-15.69,22.18-15.69,22.18s1.79,6.3,6.79,11.18
					c5,4.89,9.74,6.81,9.74,6.81l12.83-13.7L372.49,89.2z"/>
				<g>
					<g id="Barcode_Lector">
						<g>
							<path class="st7" d="M306.97,80.47c-1.36,0.82-0.96,3.37,0.12,9.48s3.07,19.34,3.07,19.34s-3.1,1.33-5.56,2.47
								c-2.46,1.15-6.66,2.16-8.71,0.22c-2.04-1.94,0.12-4.29,3.48-5.89l-4.64-16.42c0,0-0.11-2.95,4.97-5.81
								C304.77,81.02,306.97,80.47,306.97,80.47z"/>
							<path class="st12" d="M296.76,86.01c-2.09,2.03-2.04,3.68-2.04,3.68l4.64,16.42c0.38,1.34,1.55,3.95,3.61,2.8
								c2.06-1.15,4.25-6.34,2.15-12.7C303.16,90.26,299,87.08,296.76,86.01z"/>
							<path class="st13" d="M306.97,80.47c0,0-2.2,0.55-7.27,3.41c-5.07,2.86-4.97,5.81-4.97,5.81l0.41,1.45
								c1.86-1.26,4.56-3.17,6.7-4.97c2.56-2.15,3.38-3.09,4.27-3.73C306.16,81.42,306.41,80.8,306.97,80.47z"/>
						</g>
						<g>
							<path class="st12" d="M298.75,66.22c0.14-0.57-0.59-0.85-3.33-1.31c-6.58-1.12-14.3-1.59-22.27,0.83l-2.05,0.58l17.19,16.66
								l-0.83,3.32c0,0,12.31-3.5,16.45-4.68c4.14-1.18,5.69-2.64,6.25-4.86l0.29-1.17l-6.5-6.3L298.75,66.22z"/>
							<path class="st7" d="M308.51,69.59c-1.28-1.2-4.24-1.99-6.57-2.57c-1.76-0.43-3.18-0.8-3.18-0.8s-6.7,1.29-2.7,5.31
								c4.01,4.02,15.08,1.22,14.09,5.23C311.22,72.51,310.74,71.69,308.51,69.59z"/>
							<path class="st1" d="M295.9,67.37L295.9,67.37c-1.17,0.83-1.84,2.15,0.16,4.16c1.42,1.43,3.74,2,6.09,2.31
								c-2.71-0.68-4.99-2.6-5.63-3.57C295.87,69.32,295.34,68.04,295.9,67.37z"/>
							<path class="st7" d="M305.43,81.13c-0.4,1.61-10.27,8.61-15.83,11.66c-1.86,1.02-3.46,1.77-4.76,2.3
								c-2.28,0.94-4.89,0.45-6.65-1.26l-10.63-10.3c-1.58-1.53-2.22-3.79-1.69-5.92l1.04-4.15c0.32-1.29-0.21-2.55-0.89-3.55
								c-0.73-1.07-0.24-2.53,1-2.89c1.17-0.34,2.52-0.72,3.7-1.05c2.44-0.68,5.31,1.56,11.68,7.78c6.37,6.22,7.53,9.3,6.84,12.04
								L305.43,81.13z"/>
							<path class="st6" d="M289.25,85.79c-0.77,3.07-1.43,7.02-2.67,8.55c1.05-0.88,1.48-1.02,3.43-8.76L289.25,85.79z"/>
							<path class="st6" d="M266.03,69.9c0.68,1,1.21,2.26,0.89,3.55l-1.04,4.15c-0.54,2.13,0.11,4.39,1.69,5.92l10.63,10.3
								c1.77,1.71,4.38,2.2,6.65,1.26c1.3-0.54,2.9-1.28,4.76-2.3c0.41-0.23,0.85-0.48,1.3-0.74c-0.1,0.05-6.28,2.91-8.1,2.81
								c-2.46-0.13-3.67-1.02-6.1-3.45c-2.63-2.63-7.67-7.62-8.83-8.96c-0.43-0.49-0.9-1.85-0.15-2.3c1.77-1.08,3.82-1.02,4.28-0.57
								c1.36,1.32,11.32,10.98,11.32,10.98c0.7-2.8-0.13-5.57-3.49-9.42c-3.36-3.85-8.76-8.65-11.25-10.71
								c-2.48-2.06-2.51-2.85-1.56-3.41C265.78,67.37,265.3,68.84,266.03,69.9z"/>
							<path class="st1" d="M283.33,90.56c0,0,0.83-2.56-1.38-5.9c-2.54-3.83-8.12-8.89-10.17-10.88l-1.13,4.49L283.33,90.56z"/>
							<path class="st6" d="M285.3,71.98l1.31,1.27c0.89,0.86,2.52,1.31,3.64,0.99s1.3-1.28,0.41-2.14l-1.31-1.27
								c-0.89-0.86-2.52-1.31-3.64-0.99C284.59,70.15,284.41,71.11,285.3,71.98z"/>
						</g>
					</g>
					<g>
						<path class="st11" d="M306.41,85.97l0.73,4.61l5.71,0.63C310.45,88.99,306.41,85.97,306.41,85.97z"/>
						<path class="st11" d="M308.07,105.96c0.2-0.81-0.77-2.59-1.63-2.8c2.12-0.47,2.38-1.49,2.22-2.53
							c-0.16-1.04-1.83-2.17-1.83-2.17s1.03-0.29,1.32-1.12c0.29-0.84-0.58-2.33-2.07-3.07c-1.48-0.75-4.19-0.26-5.75-0.4
							c-1.55-0.14-5.27-2.97-5.27-2.97l-0.34-1.21l-4.63,2.84c0,0,0.76,0.8,0.5,1.86c-0.27,1.06-1.08,2.51-0.47,3.54
							c0.61,1.02,0.69,1.24,0.44,2.26c-0.56,1.21-0.42,2.19,0,2.96c0,0,0.47,1.03-0.04,1.87c-0.51,0.84,0.07,2.06,0.7,2.53
							s4,2.83,5.83,3.45c1.83,0.62,2.07,0.31,4-0.12c1.93-0.43,3.77-0.93,3.79-1.64c0.02-0.71-0.75-1.29-1.66-1.59
							c0.48-0.12,0.96-0.24,1.43-0.35C306.69,106.81,307.86,106.77,308.07,105.96z"/>
						<path class="st5" d="M319.67,108.61c-3.58-5.63-2.75-13.78-4.28-15.64c-1.54-1.86-8.62-4.59-9.99-4.61
							c-2.17-0.04-5.36,3.74-7.39,6.12c-1.41,1.65,0.45,2.62,2.06,2.64c2.79,0.03,4.97-2.06,4.97-2.06l2.99,1.36
							c0,0,2.24,14.81,2.32,14.47C310.45,110.56,319.67,108.61,319.67,108.61z"/>
					</g>
				</g>
				<path class="st11" d="M336.68,125.3c3.02,2.85,6.87,6.94,7.57,10.93c1.49-5.34-3.61-10.53-5.86-13.17L336.68,125.3z"/>
			</g>
			<path id="Chest_00000114789054041174476480000002565183309398780052_" class="st12" d="M407.93,86.43
				c4.2,0.87,9.52,1.95,14.88,3.43c5.39,1.49,6.14,1.8,7.88,2.41c0,0,2.85,12.25,1.18,41.6c-0.25,4.35-3.4,16.01-3.93,25.03
				c-0.72,12.17-0.31,17.61,0.75,28.12c0,0-10.71,10.31-40.39,8.07c-23.3-1.76-29.35-11.92-29.35-11.92s0.26-37.25,0.87-54.43
				c0.8-22.57,7.63-35.59,12.66-39.54l15.29-2.55L407.93,86.43z"/>
			<g id="Head_1_">
				<g>
					<g id="XMLID_541_">
						<g id="XMLID_00000080178676494918776400000012178384223656864951_">
							<path class="st7" d="M414,38.21c0,0,3.59,0.27,5.95,4.8c1.18,2.28,2.03,6.43-1.21,18.29c-2.09,7.64-4.59,10.97-5.71,13.09
								c-1.12,2.13-3.41,2.72-3.41,2.72l0.24-9.12l0.34-6.36c0,0-5.12-4.65-5.57-9.22c-0.57-5.88,1.73-9.21,1.73-9.21L414,38.21z"/>
							<path class="st7" d="M415.25,38.51c-0.89-5.13-7.39-11.25-19.94-11.92c-10.28-0.55-16,3.17-19.87,8.98
								c-4.04,6.07-1.22,13.76-1.22,13.76l32.3-2.11L415.25,38.51z"/>
							<path class="st5" d="M418.2,70.67c-4.73,2.3-6.88-1.44-6.88-1.44l-0.71,18.81c-9.07,12.14-33.29,7.75-23.36-1.34l0.02-4.29
								c0,0-1.59,0-4.09-0.4c-4.18-0.66-7.11-3.43-8.36-7.96c-1.84-6.7-1.27-21.23-0.17-29.15c0.31-2.24,1.87-4.86,3.89-5.86
								c5.02-2.48,9.67,1.1,16.66,3.82c2.9,1.13,9.92,1.63,11.78,0.76c-2.44,2.69-2.42,11.21,1.18,14.66c0.63,1.2,1.29,1.9,1.8,2.35
								c1.53,1.33,2.78-2.1,4.07-3.45c1.3-1.33,6.12-2.54,8.2,1.89C424.34,63.57,422.58,68.54,418.2,70.67z"/>
							<path class="st1" d="M387.25,86.7c0,0-13.19,6.34-17.1,21.35c-3.92,15.01-4.95,58.32-5.09,72.56c-0.13,14.24,0,19.54,0,19.54
								s0-1.17-8.14-4.45c0-16.7,1.24-72.64,3.61-83.88c3.9-18.55,11.96-22.61,11.96-22.61L387.25,86.7z"/>
							<g>
								<path class="st0" d="M357.5,162.61c-0.05,1.93-0.1,3.84-0.15,5.71c2.56,1.57,5.37,2.71,7.85,3.48
									c0.04-1.76,0.08-3.66,0.14-5.65C362.8,165.21,359.95,163.98,357.5,162.61z"/>
								<path class="st0" d="M357.16,177.03c-0.04,1.79-0.07,3.51-0.09,5.16c2.56,1.59,5.37,2.63,7.96,3.3
									c0.01-1.49,0.02-3.12,0.04-4.88c0-0.04,0-0.08,0-0.12C362.58,179.77,359.84,178.67,357.16,177.03z"/>
							</g>
							<path class="st1" d="M410.69,86.03l-0.08,2c0,0-3.31,9.53-5.6,21.94c-1.25,6.78-1.71,14.68-2.26,21.74
								c-1.32,17.1-1.56,58-1.6,72.09c9.85,1.92,23.59-0.02,29.76-4.6c-1.17-18.8-2.32-28.53-1.29-42.7
								c1.09-14.91,7.26-42.66,1.47-64.78C425.87,90.27,417.48,87.75,410.69,86.03z"/>
							<path class="st0" d="M429.71,180.86c-5.2,4.22-17.07,7.61-28.46,7.26c-0.02,1.86-0.03,3.63-0.04,5.31
								c0,0,18.74,0.78,28.84-7.37C429.92,184.26,429.81,182.53,429.71,180.86z"/>
							<path class="st0" d="M401.42,172.39c-0.03,1.79-0.05,3.57-0.07,5.32c13.72,0.66,23.35-2.97,27.96-5.25
								c-0.06-1.95-0.09-3.88-0.08-5.84C423.12,169.87,413.24,173.3,401.42,172.39z"/>
							<path class="st11" d="M387.27,82.4c5.49-0.03,10.36-0.71,13.6-2.08c3.24-1.37,6.11-5.75,7.05-10.1c0,3.5-1.54,9.7-6.45,12.28
								c-4.91,2.58-10.63,2.71-14.22,2.79L387.27,82.4z"/>
						</g>
						<g id="XMLID_542_">
							<path id="XMLID_552_" class="st7" d="M394.9,50.29l4.56,2.13c0.56-1.31,0-2.84-1.26-3.43
								C396.94,48.4,395.47,48.98,394.9,50.29z"/>
							<path id="XMLID_545_" class="st7" d="M376.8,51.05l4.78-1.69c-0.42-1.35-1.83-2.06-3.15-1.6
								C377.1,48.23,376.37,49.7,376.8,51.05z"/>
							<path class="st6" d="M397.4,55.72c-0.08,1.13-1.07,1.98-2.2,1.9c-1.13-0.08-1.98-1.07-1.9-2.2c0.08-1.13,1.07-1.98,2.2-1.9
								C396.63,53.6,397.48,54.59,397.4,55.72z"/>
							<path class="st6" d="M381.88,55.02c-0.08,1.13-1.07,1.98-2.2,1.9c-1.13-0.08-1.98-1.07-1.9-2.2c0.08-1.13,1.07-1.98,2.2-1.9
								C381.11,52.9,381.96,53.89,381.88,55.02z"/>
							<path id="XMLID_00000070834791852507661070000007200470087308975783_" class="st11" d="M389.13,52.04l-1.6,12.99l-7.38-2.81
								C382.77,57.71,385.77,54.32,389.13,52.04z"/>
						</g>
					</g>
				</g>
				<path id="XMLID_00000170995339706687306580000008265994555697498811_" class="st14" d="M392.92,68.57l-5.4,1.56
					c0.4,1.54,1.94,2.45,3.43,2.02C392.44,71.71,393.33,70.11,392.92,68.57z"/>
				<path class="st11" d="M392.32,69.51c0.23-0.04,0.46-0.05,0.68-0.04c-0.06,1.22-0.85,2.33-2.05,2.67c-0.3,0.09-0.6,0.11-0.9,0.09
					C389.88,70.98,390.88,69.77,392.32,69.51z"/>
			</g>
			<g>
				<g id="Box_00000011721767395025011030000017424001097688600704_">
					<g>
						<polygon class="st1" points="281.89,143.33 323.7,155.66 343.77,137.08 301.96,124.74 						"/>
						<polygon class="st15" points="281.89,143.33 323.7,155.66 343.77,137.08 301.96,124.74 						"/>
						<polygon class="st1" points="281.89,143.33 328.6,200.44 370.4,212.77 323.7,155.66 						"/>
						<polygon class="st16" points="281.89,143.33 328.6,200.44 370.4,212.77 323.7,155.66 						"/>
						<polygon class="st1" points="343.77,137.08 390.47,194.18 370.4,212.77 323.7,155.66 						"/>
						<polygon class="st17" points="343.77,137.08 390.47,194.18 370.4,212.77 323.7,155.66 						"/>
					</g>
					<path class="st6" d="M305.79,150.38l-5.99-1.77l46.7,57.11l5.99,1.77L305.79,150.38z"/>
					<path class="st12" d="M308.56,140.49l-8.76,8.11l5.99,1.77l8.76-8.11L308.56,140.49z"/>
				</g>
				<path id="Shadow_00000175316348009380865680000013636810664049604511_" class="st18" d="M381.25,182.9l-15.08-18.44
					c-0.98,0.27-1.85,1.05-2.87,1.21c-1.68,0.26-3.33,0.44-5.03,0.4c-3.41-0.08-6.77-0.78-10.07-1.62
					c-1.82-0.47-3.64-0.98-5.45-1.49c-1.05-0.29-2.48-0.4-2.92,0.59c-0.34,0.76,0.21,1.62,0.81,2.2c3.46,3.39,8.83,3.75,13.04,6.14
					c0.31,0.18,0.65,0.46,0.57,0.81c-0.08,0.31-0.45,0.42-0.76,0.48c-3.87,0.71-13.26,1.39-17.01,2.59
					c-0.69,0.22-1.49,0.66-1.47,1.38c0.02,0.5,0.45,0.89,0.87,1.16c0.87,0.56,1.86,0.92,2.89,1.06c-0.47,0.68-0.15,1.67,0.47,2.21
					c0.62,0.54,1.47,0.73,2.28,0.89c1.32,0.25,2.66,0.45,4,0.6c0.01,0.56-0.85,0.51-1.38,0.7c-0.66,0.24-0.88,1.13-0.63,1.78
					s0.84,1.12,1.41,1.52c1.64,1.14,3.55,2.09,5.54,1.97c0.85-0.05,1.68-0.3,2.5-0.55c6.58-2,18.53-4.96,25.4-5.37
					C379.32,183.05,380.29,183.01,381.25,182.9z"/>
				<g id="Arm_00000076587835727760392600000014363084205341173182_">
					<g>
						<path class="st5" d="M379.1,166.33c-2.73,0.4-5.26-1.53-7.4-4.34c-2.13-2.81-2.96-5.38-7.03-6.09
							c-4.08-0.71-6.25-0.91-6.25-0.91l3.55,4.35c0,0,3.18,4.15-0.63,5.1c-2.42,0.61-5.02,0.58-9.39-0.83
							c-7.18-2.32-11.14-4.01-11.93-1.83c-0.78,2.19,1.41,2.82,4.06,4.02c2.65,1.2,9.1,3.54,10.72,4.34c1.62,0.8,1.8,1.57-1.5,2.13
							c-3.3,0.56-14.04,1.43-16.2,1.66c-2.16,0.23-3.19,1.78-2.09,2.75s5.03,1.54,5.03,1.54s-2.06,2.68,2.01,3.39
							c4.08,0.71,13.78-0.22,14.36-0.1c0.58,0.12-6.61,2.54-7.62,2.58c-1.01,0.04-4.98-1.54-5.52-0.65
							c-0.54,0.89,0.07,1.88,1.69,2.54c1.62,0.66,3.85,2.45,5.58,2.1s10.62-3.57,13.2-4.1s15.91-3.51,15.91-3.51L379.1,166.33z"/>
						<path class="st5" d="M430.69,92.27c-6.42,3.79-11.64,14.07-12.73,23.81c-1.09,9.74-3.38,34.6-3.38,34.6
							s-21.94,9.59-27.68,11.45c-5.74,1.87-12.03,3.21-15.19-0.15l2.25,19.76c0,0,22.17-3.52,32.59-5.5
							c10.96-2.08,17.98-4.07,21.39-5.45c6.03-2.44,7.65-2.85,9.52-13.26c1.61-8.98,3.3-26.26,4.47-35.1
							C443.08,113.6,444.45,96.18,430.69,92.27z"/>
						<g>
							<path class="st11" d="M340.04,178.23c1.71,0.02,3.41-0.12,5.12-0.2l5.11-0.29l2.56-0.13c0.86,0,1.68-0.08,2.53-0.19
								l5.09-0.59c-1.67,0.38-3.35,0.72-5.04,0.96c-1.7,0.28-3.43,0.24-5.12,0.34c-1.71,0.08-3.41,0.15-5.12,0.18
								C343.46,178.34,341.74,178.36,340.04,178.23z"/>
						</g>
					</g>
					<path class="st12" d="M430.2,91.47c4.08,1,8.7,2.9,10.87,9.15c2.17,6.25,2.53,9.87,1.54,21.82
						c-0.99,11.94-2.71,22.83-2.71,22.83s-3.53,1.31-11.95,0.69c-8.42-0.62-13.12-4.42-13.12-4.42s1.7-18.74,2.53-26.61
						C418.17,107.04,421.61,95.73,430.2,91.47z"/>
				</g>
			</g>
		</g>
	</g>
</g>
<g id="Cargo_Car_00000110442395377405425330000002376550636179373460_">
	<g id="Cargo_Car">
		<g id="Cargo_Car_00000049216572566111687060000010411969207720558231_">
			<path class="st4" d="M238.33,184.49l-51.14,29.53c-5.61,3.24-10.19,11.18-10.19,17.65v112.89l-4.75,2.74v-119.5
				c0-6.47,4.59-14.42,10.19-17.65l56.11-32.39c5.61-3.24,10.19-0.59,10.19,5.88v119.5l-4.78,2.76l0-118.16
				C243.96,184.17,241.43,182.71,238.33,184.49z"/>
			<g>
				<path id="XMLID_1103_" class="st12" d="M283.32,436.09c0-5.82-4.09-12.9-9.13-15.81c-2.65-1.53-5.02-1.59-6.69-0.47l0,0
					l-6.16,3.52l13.09,22.25l6.1-3.51l-0.01-0.02C282.25,441.11,283.32,439.06,283.32,436.09z"/>
				<path id="XMLID_1101_" class="st7" d="M267.8,423.96c5.04,2.91,9.13,9.99,9.13,15.81c0,5.82-4.09,8.18-9.13,5.27
					c-5.04-2.91-9.13-9.99-9.13-15.81C258.67,423.41,262.76,421.05,267.8,423.96z"/>
				<path id="XMLID_965_" class="st6" d="M264.71,432.72c0-2.28,1.38-3.32,3.09-2.34c1.71,0.99,3.09,3.63,3.09,5.91
					s-1.38,3.32-3.09,2.34C266.1,437.64,264.71,434.99,264.71,432.72z"/>
				<path id="XMLID_791_" class="st8" d="M278.5,414.25c0,0,0,10.42-4.97,14.1c-0.94,0.69-1.93,1.18-2.52,1.66
					c-1.27,1.05-0.43,2.99,1.11,3.82c2.24,1.2,14.43-2.05,19.59-11.95L278.5,414.25z"/>
				<path id="XMLID_00000075869363902382811600000007796465822918753688_" class="st0" d="M273.77,416.96c0,0,0,10.42-4.97,14.1
					c-0.94,0.69-1.93,1.18-2.52,1.66c-1.27,1.05-0.43,2.99,1.11,3.82c2.24,1.2,14.43-2.05,19.59-11.95L273.77,416.96z"/>
				<path id="XMLID_00000116226200012608262160000013105484361708520340_" class="st6" d="M267.8,433.49
					c0.48,0.28,0.88,0.96,0.88,1.52s-0.39,0.79-0.88,0.51c-0.48-0.28-0.88-0.96-0.88-1.52S267.32,433.21,267.8,433.49z"/>
			</g>
			<g>
				<path id="XMLID_00000132078431282522929480000006394142773421432764_" class="st12" d="M184.21,378.87
					c0-5.82-4.09-12.9-9.13-15.81c-2.65-1.53-5.02-1.59-6.69-0.47l0,0l-6.16,3.52l13.09,22.25l6.1-3.51l-0.01-0.02
					C183.14,383.89,184.21,381.84,184.21,378.87z"/>
				<path id="XMLID_487_" class="st7" d="M168.69,366.74c5.04,2.91,9.13,9.99,9.13,15.81c0,5.82-4.09,8.18-9.13,5.27
					c-5.04-2.91-9.13-9.99-9.13-15.81C159.56,366.19,163.65,363.83,168.69,366.74z"/>
				<path id="XMLID_481_" class="st6" d="M165.6,375.49c0-2.28,1.38-3.32,3.09-2.34c1.71,0.99,3.09,3.63,3.09,5.91
					c0,2.28-1.38,3.32-3.09,2.34C166.98,380.41,165.6,377.77,165.6,375.49z"/>
				<path id="XMLID_478_" class="st8" d="M179.39,357.02c0,0,0,10.42-4.97,14.1c-0.94,0.69-1.93,1.18-2.52,1.66
					c-1.27,1.05-0.43,2.99,1.11,3.82c2.24,1.2,14.43-2.05,19.59-11.95L179.39,357.02z"/>
				<path id="XMLID_474_" class="st0" d="M174.66,359.74c0,0,0,10.42-4.97,14.1c-0.94,0.69-1.93,1.18-2.52,1.66
					c-1.27,1.05-0.43,2.99,1.11,3.82c2.24,1.2,14.43-2.05,19.59-11.95L174.66,359.74z"/>
				<path id="XMLID_473_" class="st6" d="M168.69,376.27c0.48,0.28,0.88,0.96,0.88,1.52c0,0.56-0.39,0.79-0.88,0.51
					c-0.48-0.28-0.88-0.96-0.88-1.52C167.81,376.21,168.21,375.99,168.69,376.27z"/>
			</g>
			<g>
				<polygon class="st12" points="167.47,350.07 253.52,300.38 387.39,377.67 301.33,427.35 				"/>
				<polygon class="st7" points="167.47,350.07 167.47,355.59 301.33,432.88 301.33,427.35 				"/>
				<polygon class="st6" points="387.39,377.67 387.39,383.19 301.33,432.88 301.33,427.35 				"/>
			</g>
		</g>
		<g id="Items">
			<polygon id="Shadow_00000021114496738056266990000012496730647514966145_" class="st7" points="175,349.83 250.38,393.37 
				330.02,347.45 254.43,304.02 			"/>
			<g id="Box_00000101076251124536332000000002614332343053741755_">
				<g id="XMLID_4745_">
					<polygon id="XMLID_4746_" class="st1" points="322.73,299.77 253.68,259.85 180.97,301.92 250.02,341.84 					"/>
					<polygon id="XMLID_4743_" class="st19" points="322.73,299.77 253.68,259.85 180.97,301.92 250.02,341.84 					"/>
				</g>
				<g id="XMLID_4740_">
					<polygon id="XMLID_4741_" class="st1" points="250.02,390.1 322.73,348.03 322.73,299.77 250.02,341.84 					"/>
				</g>
				<g>
					<g id="XMLID_4707_">
						<g id="XMLID_4712_">
							<path id="XMLID_4715_" class="st12" d="M258.48,372.64c-0.29,0-0.56-0.07-0.8-0.21c-0.64-0.37-1-1.18-1-2.22v-6.55
								c0,0,0-0.01,0-0.01v-0.48l0.33,0.06l5.14-3.02v7.32c0,1.86-1.11,3.96-2.53,4.78C259.23,372.53,258.84,372.64,258.48,372.64z
								 M257.5,364.15v6.06c0,0.74,0.22,1.29,0.59,1.51c0.37,0.21,0.81,0.05,1.11-0.12c1.15-0.66,2.12-2.53,2.12-4.07v-0.54h-1.9
								l-0.38-2.57L257.5,364.15z M260.13,366.17h1.19v-4.52l-3.06,1.8l1.52,0.27L260.13,366.17z"/>
						</g>
						<g id="XMLID_4710_">
							<path id="XMLID_4711_" class="st12" d="M259.41,377.87c-0.23,0-0.41-0.18-0.41-0.41v-5.5c0-0.23,0.18-0.41,0.41-0.41
								c0.23,0,0.41,0.18,0.41,0.41v5.5C259.82,377.68,259.64,377.87,259.41,377.87z"/>
						</g>
						<g id="XMLID_4708_">
							<path id="XMLID_4709_" class="st12" d="M257.02,379.25c-0.14,0-0.28-0.07-0.36-0.21c-0.11-0.2-0.05-0.45,0.15-0.56l4.78-2.76
								c0.19-0.12,0.45-0.05,0.56,0.15c0.11,0.2,0.05,0.45-0.15,0.56l-4.78,2.76C257.16,379.23,257.09,379.25,257.02,379.25z"/>
						</g>
					</g>
					<g id="XMLID_4700_">
						<g id="XMLID_4705_">
							<path id="XMLID_4706_" class="st12" d="M274.06,369.77c-0.16,0-0.31-0.04-0.45-0.12c-0.31-0.18-0.49-0.54-0.49-0.99v-1.13
								c0-0.23,0.18-0.41,0.41-0.41c0.23,0,0.41,0.18,0.41,0.41v1.13c0,0.17,0.05,0.26,0.08,0.28c0.03,0.02,0.13,0.01,0.27-0.07
								c0.36-0.21,0.77-1.03,0.77-1.86v-7.32c0-0.23,0.18-0.41,0.41-0.41c0.23,0,0.41,0.18,0.41,0.41v7.32
								c0,1.07-0.5,2.18-1.17,2.57C274.49,369.71,274.27,369.77,274.06,369.77z"/>
						</g>
						<g id="XMLID_4701_">
							<path id="XMLID_4702_" class="st12" d="M269.72,363.37v-0.71c0-3.36,2.36-7.45,5.27-9.13c1.49-0.86,2.91-0.98,3.99-0.35
								c1.09,0.63,1.69,1.92,1.69,3.63v0.24L269.72,363.37z M277.46,353.61c-0.62,0-1.32,0.21-2.06,0.64
								c-2.47,1.42-4.51,4.74-4.82,7.67l9.26-5.35c-0.05-1.29-0.5-2.24-1.27-2.68C278.24,353.7,277.87,353.61,277.46,353.61z"/>
						</g>
					</g>
					<g id="XMLID_4631_">
						<g id="XMLID_4695_">
							<g id="XMLID_4698_">
								<path id="XMLID_4699_" class="st12" d="M288.85,361.34c-0.23,0-0.41-0.18-0.41-0.41v-14.01c0-0.23,0.18-0.41,0.41-0.41
									c0.23,0,0.41,0.18,0.41,0.41v14.01C289.26,361.15,289.08,361.34,288.85,361.34z"/>
							</g>
							<g id="XMLID_4696_">
								<path id="XMLID_4697_" class="st12" d="M287.64,350.11c-0.06,0-0.11-0.01-0.16-0.03c-0.21-0.09-0.3-0.33-0.21-0.54
									l1.47-3.39l1.63,1.89c0.15,0.17,0.13,0.43-0.04,0.58c-0.18,0.15-0.43,0.13-0.58-0.04l-0.78-0.9l-0.95,2.18
									C287.96,350.02,287.8,350.11,287.64,350.11z"/>
							</g>
						</g>
						<g id="XMLID_4638_">
							<g id="XMLID_4693_">
								<path id="XMLID_4694_" class="st12" d="M292.66,359.17c-0.23,0-0.41-0.18-0.41-0.41v-14.01c0-0.23,0.18-0.41,0.41-0.41
									c0.23,0,0.41,0.18,0.41,0.41v14.01C293.07,358.98,292.89,359.17,292.66,359.17z"/>
							</g>
							<g id="XMLID_1085_">
								<path id="XMLID_4690_" class="st12" d="M291.45,347.94c-0.06,0-0.11-0.01-0.16-0.03c-0.21-0.09-0.3-0.33-0.21-0.54
									l1.47-3.38l1.63,1.89c0.15,0.17,0.13,0.43-0.04,0.58c-0.18,0.15-0.43,0.13-0.58-0.04l-0.78-0.9l-0.95,2.18
									C291.76,347.84,291.61,347.94,291.45,347.94z"/>
							</g>
						</g>
					</g>
				</g>
				<g id="XMLID_4558_">
					<polygon id="XMLID_4564_" class="st1" points="250.02,390.1 180.97,350.19 180.97,301.92 250.02,341.84 					"/>
					<polygon id="XMLID_4557_" class="st20" points="250.02,390.1 180.97,350.19 180.97,301.92 250.02,341.84 					"/>
					<g>
						<g id="XMLID_00000114067040373815809190000001850506882919618983_">
							<path id="XMLID_00000018206676250662661530000013569572713097352882_" class="st0" d="M189.7,331.11l20.26,11.7
								c0.5,0.29,0.91,1,0.91,1.58l0,14.08c0,1.16-0.82,1.63-1.83,1.05l-20.26-11.7c-0.5-0.29-0.91-1-0.91-1.58l0-14.08
								C187.88,331.01,188.7,330.53,189.7,331.11z"/>
						</g>
						<g id="XMLID_00000049920315634863923360000004057365707795451549_">
							<g id="XMLID_00000160868580884276106700000006143558090634126725_">
								<polygon id="XMLID_00000003822057184405684770000017305301394838611343_" class="st12" points="189.2,333.3 189.89,333.7 
									189.89,346.13 189.2,345.73 								"/>
							</g>
							<g id="XMLID_00000101806921161136552820000005421246906048849050_">
								<polygon id="XMLID_00000052099610112674705400000014320899784658461109_" class="st12" points="192,334.92 193.19,335.62 
									193.19,348.05 192,347.35 								"/>
							</g>
							<g id="XMLID_00000085212458994363404660000007789678938020649630_">
								<polygon id="XMLID_00000023278664559206755860000017817391600822459320_" class="st12" points="194.81,336.54 195.5,336.94 
									195.5,349.37 194.81,348.97 								"/>
							</g>
							<g id="XMLID_00000035526105603147685980000003507655146565784196_">
								<polygon id="XMLID_00000147198934116455666930000017864843717066141886_" class="st12" points="196.93,337.74 198.3,338.56 
									198.3,350.99 196.93,350.17 								"/>
							</g>
							<g id="XMLID_00000149350957571692802730000011120578336260425102_">
								<polygon id="XMLID_00000110451282809875877310000002157593965119950976_" class="st12" points="200.42,339.78 
									201.11,340.18 201.11,352.61 200.42,352.21 								"/>
							</g>
							<g id="XMLID_00000050626400814151767450000009815684019025501834_">
								<polygon id="XMLID_00000004524127612751033270000017422287731221693887_" class="st12" points="202.44,340.92 203.92,341.8 
									203.92,354.23 202.44,353.35 								"/>
							</g>
							<g id="XMLID_00000062889037510719480960000013984333909029817272_">
								<polygon id="XMLID_00000181051548338294230230000003299777339390300084_" class="st12" points="206.03,343.02 
									206.72,343.42 206.72,355.85 206.03,355.45 								"/>
							</g>
							<g id="XMLID_00000171697541541767678910000003083566283672348804_">
								<polygon id="XMLID_00000124146797093370047700000016092419665395368635_" class="st12" points="207.63,343.93 
									207.98,344.13 207.98,356.56 207.63,356.36 								"/>
							</g>
							<g id="XMLID_00000060741332899351741060000013149402746001476248_">
								<polygon id="XMLID_00000116205976533674740270000002413975953524236168_" class="st12" points="204.75,342.34 205.1,342.54 
									205.1,354.97 204.75,354.77 								"/>
							</g>
							<g id="XMLID_00000164485871847661963480000001401207497763207868_">
								<polygon id="XMLID_00000031888275235103760600000003548657344943565725_" class="st12" points="199.1,339.03 199.45,339.23 
									199.45,351.66 199.1,351.46 								"/>
							</g>
							<g id="XMLID_00000118397001250988956750000007955578738391342997_">
								<polygon id="XMLID_00000037685573703831536260000000765082594324380094_" class="st12" points="196.01,337.25 
									196.35,337.45 196.35,349.88 196.01,349.69 								"/>
							</g>
							<g id="XMLID_00000028297109199463049740000012828493766329886628_">
								<polygon id="XMLID_00000093169800402906675460000000792217330120990137_" class="st12" points="193.78,336.03 
									194.13,336.23 194.13,348.66 193.78,348.46 								"/>
							</g>
							<g id="XMLID_00000172416895967675544670000000088899079592368010_">
								<polygon id="XMLID_00000181780237883337641030000003248692577335220898_" class="st12" points="190.77,334.2 191.11,334.39 
									191.11,346.83 190.77,346.63 								"/>
							</g>
							<g id="XMLID_00000109022350266588601880000008023808990054712212_">
								<polygon id="XMLID_00000005967894333087739290000017937420072269420708_" class="st12" points="208.84,344.64 
									209.53,345.04 209.53,357.47 208.84,357.07 								"/>
							</g>
						</g>
					</g>
				</g>
				<g>
					<g id="XMLID_4554_">
						<polygon id="XMLID_4555_" class="st7" points="209.96,325.99 214.68,328.72 214.68,321.39 209.96,318.66 						"/>
					</g>
					<g id="XMLID_4547_">
						<polygon id="XMLID_00000142887793096528312890000004616145427970630280_" class="st12" points="214.68,321.39 287.39,279.32 
							282.67,276.59 209.96,318.66 						"/>
					</g>
				</g>
			</g>
			<polygon id="Shadow_00000134214376247410460880000011430188367936745349_" class="st20" points="181.97,301.35 238.12,333.67 
				309.76,292.26 253.68,259.85 			"/>
			<g id="Box_00000168086092608075083450000004212706278154340483_">
				<g id="XMLID_28325_">
					<g id="XMLID_28343_">
						<polygon id="XMLID_28977_" class="st1" points="304.07,245.8 248.17,213.59 182.09,251.8 237.99,284.01 						"/>
						<polygon id="XMLID_00000140008928779859771970000014803559230401156497_" class="st15" points="304.07,245.8 248.17,213.59 
							182.09,251.8 237.99,284.01 						"/>
					</g>
					<g id="XMLID_28342_">
						<polygon id="XMLID_28975_" class="st1" points="237.99,330.37 304.07,292.15 304.07,245.8 237.99,284.01 						"/>
						<polygon id="XMLID_1091_" class="st17" points="237.99,330.37 304.07,292.15 304.07,245.8 237.99,284.01 						"/>
					</g>
					<g>
						<g id="XMLID_28327_">
							<g id="XMLID_28326_">
								<path id="XMLID_28569_" class="st12" d="M246.96,312.54c-0.25,0-0.49-0.06-0.7-0.18c-0.55-0.32-0.87-1.03-0.87-1.93v-5.69
									c0,0,0-0.01,0-0.01v-0.42l0.29,0.05l4.46-2.62v6.36c0,1.62-0.97,3.44-2.2,4.16C247.61,312.44,247.27,312.54,246.96,312.54z
									 M246.1,305.15v5.27c0,0.64,0.19,1.12,0.51,1.31c0.32,0.19,0.7,0.04,0.97-0.11c1-0.58,1.84-2.2,1.84-3.54v-0.47h-1.65
									l-0.33-2.23L246.1,305.15z M248.39,306.91h1.03v-3.93l-2.66,1.56l1.32,0.23L248.39,306.91z"/>
							</g>
							<g id="XMLID_28329_">
								<path id="XMLID_28568_" class="st12" d="M247.77,317.08c-0.2,0-0.36-0.16-0.36-0.36v-4.78c0-0.2,0.16-0.36,0.36-0.36
									c0.2,0,0.36,0.16,0.36,0.36v4.78C248.12,316.92,247.96,317.08,247.77,317.08z"/>
							</g>
							<g id="XMLID_28357_">
								<path id="XMLID_28567_" class="st12" d="M245.69,318.28c-0.12,0-0.24-0.06-0.31-0.18c-0.1-0.17-0.04-0.39,0.13-0.49
									l4.16-2.4c0.17-0.1,0.39-0.04,0.49,0.13c0.1,0.17,0.04,0.39-0.13,0.49l-4.16,2.4C245.81,318.26,245.75,318.28,245.69,318.28
									z"/>
							</g>
						</g>
						<g id="XMLID_28339_">
							<g id="XMLID_28341_">
								<path id="XMLID_28566_" class="st12" d="M260.5,310.04c-0.14,0-0.27-0.03-0.39-0.1c-0.27-0.16-0.43-0.47-0.43-0.86v-0.98
									c0-0.2,0.16-0.36,0.36-0.36c0.2,0,0.36,0.16,0.36,0.36v0.98c0,0.15,0.04,0.22,0.07,0.24c0.03,0.02,0.11,0.01,0.23-0.06
									c0.32-0.19,0.67-0.9,0.67-1.62v-6.36c0-0.2,0.16-0.36,0.36-0.36c0.2,0,0.36,0.16,0.36,0.36v6.36c0,0.93-0.44,1.89-1.02,2.23
									C260.88,309.98,260.68,310.04,260.5,310.04z"/>
							</g>
							<g id="XMLID_28340_">
								<path id="XMLID_28563_" class="st12" d="M256.73,304.48v-0.62c0-2.92,2.05-6.48,4.58-7.93c1.29-0.74,2.53-0.85,3.47-0.31
									c0.95,0.55,1.47,1.67,1.47,3.16v0.21L256.73,304.48z M263.45,295.99c-0.54,0-1.15,0.19-1.79,0.55
									c-2.14,1.24-3.92,4.12-4.19,6.67l8.05-4.65c-0.04-1.12-0.43-1.94-1.11-2.33C264.14,296.07,263.81,295.99,263.45,295.99z"/>
							</g>
						</g>
						<g id="XMLID_28332_">
							<g id="XMLID_28336_">
								<g id="XMLID_28338_">
									<path id="XMLID_28562_" class="st12" d="M273.36,302.71c-0.2,0-0.36-0.16-0.36-0.36v-12.18c0-0.2,0.16-0.36,0.36-0.36
										c0.2,0,0.36,0.16,0.36,0.36v12.18C273.72,302.55,273.56,302.71,273.36,302.71z"/>
								</g>
								<g id="XMLID_28337_">
									<path id="XMLID_28561_" class="st12" d="M272.31,292.95c-0.05,0-0.1-0.01-0.14-0.03c-0.18-0.08-0.26-0.29-0.19-0.47
										l1.27-2.94l1.42,1.64c0.13,0.15,0.11,0.37-0.04,0.5c-0.15,0.13-0.38,0.11-0.51-0.04l-0.67-0.78l-0.82,1.9
										C272.58,292.87,272.45,292.95,272.31,292.95z"/>
								</g>
							</g>
							<g id="XMLID_28333_">
								<g id="XMLID_28335_">
									<path id="XMLID_28560_" class="st12" d="M276.67,300.82c-0.2,0-0.36-0.16-0.36-0.36v-12.18c0-0.2,0.16-0.36,0.36-0.36
										c0.2,0,0.36,0.16,0.36,0.36v12.18C277.03,300.66,276.87,300.82,276.67,300.82z"/>
								</g>
								<g id="XMLID_28334_">
									<path id="XMLID_28559_" class="st12" d="M275.62,291.06c-0.05,0-0.1-0.01-0.14-0.03c-0.18-0.08-0.26-0.29-0.19-0.47
										l1.27-2.94l1.42,1.64c0.13,0.15,0.11,0.37-0.04,0.5c-0.15,0.13-0.38,0.11-0.51-0.04l-0.68-0.78l-0.82,1.9
										C275.89,290.98,275.76,291.06,275.62,291.06z"/>
								</g>
							</g>
						</g>
					</g>
					<g id="XMLID_28331_">
						<polygon id="XMLID_1090_" class="st1" points="237.99,330.37 182.09,298.15 182.09,251.8 237.99,284.01 						"/>
						<polygon id="XMLID_1089_" class="st16" points="237.99,330.37 182.09,298.15 182.09,251.8 237.99,284.01 						"/>
						<g>
							<g id="XMLID_00000058559666445689754930000009782576259704840358_">
								<path id="XMLID_00000015320239877542810130000006329994561430426784_" class="st0" d="M189.7,278.21l20.26,11.7
									c0.5,0.29,0.91,1,0.91,1.58l0,14.08c0,1.16-0.82,1.63-1.83,1.05l-20.26-11.7c-0.5-0.29-0.91-1-0.91-1.58l0-14.08
									C187.88,278.1,188.7,277.63,189.7,278.21z"/>
							</g>
							<g id="XMLID_00000059285513740985983520000001339797227657647247_">
								<g id="XMLID_00000106833488151059516950000004709136223812652988_">
									<polygon id="XMLID_00000086678395744486939860000013987081416059746961_" class="st12" points="189.2,280.4 189.89,280.8 
										189.89,293.23 189.2,292.83 									"/>
								</g>
								<g id="XMLID_00000152246007494388907500000010642742488126103955_">
									<polygon id="XMLID_00000011001694090998693410000011262208674260231615_" class="st12" points="192,282.02 193.19,282.72 
										193.19,295.15 192,294.45 									"/>
								</g>
								<g id="XMLID_00000099657584041063831170000011402396720976777911_">
									<polygon id="XMLID_00000054953844870863449920000017258957606887786682_" class="st12" points="194.81,283.64 
										195.5,284.04 195.5,296.47 194.81,296.07 									"/>
								</g>
								<g id="XMLID_00000043451670862557154470000013634191758881721272_">
									<polygon id="XMLID_00000160909735622998035090000009943735844213900965_" class="st12" points="196.93,284.84 
										198.3,285.66 198.3,298.09 196.93,297.27 									"/>
								</g>
								<g id="XMLID_00000152242301762657008190000006316963051923206017_">
									<polygon id="XMLID_00000111894013795939201180000007587194080841362594_" class="st12" points="200.42,286.88 
										201.11,287.28 201.11,299.71 200.42,299.31 									"/>
								</g>
								<g id="XMLID_00000139985536481946169880000014524956596408517532_">
									<polygon id="XMLID_00000116194295406506704360000016133552796324533950_" class="st12" points="202.44,288.02 
										203.92,288.9 203.92,301.33 202.44,300.45 									"/>
								</g>
								<g id="XMLID_00000024704680523232877800000015034058727979004827_">
									<polygon id="XMLID_00000164488954026698828690000011556352084021200793_" class="st12" points="206.03,290.12 
										206.72,290.52 206.72,302.95 206.03,302.55 									"/>
								</g>
								<g id="XMLID_00000039812300669165519530000008359269767019257765_">
									<polygon id="XMLID_00000096755185596989172520000016062682156272225190_" class="st12" points="207.63,291.03 
										207.98,291.23 207.98,303.66 207.63,303.46 									"/>
								</g>
								<g id="XMLID_00000020389113462621161760000009958241792055100032_">
									<polygon id="XMLID_00000098180470708827481340000006612662992708078467_" class="st12" points="204.75,289.44 
										205.1,289.64 205.1,302.07 204.75,301.87 									"/>
								</g>
								<g id="XMLID_00000063602633664502576040000009121117352401878715_">
									<polygon id="XMLID_00000182506728719048786400000012055449006817817218_" class="st12" points="199.1,286.13 
										199.45,286.33 199.45,298.76 199.1,298.56 									"/>
								</g>
								<g id="XMLID_00000083795534458093441830000004402184177775812769_">
									<polygon id="XMLID_00000075859466209482806610000000601656172993384066_" class="st12" points="196.01,284.35 
										196.35,284.55 196.35,296.98 196.01,296.78 									"/>
								</g>
								<g id="XMLID_00000027564790246701212940000007093229268993580677_">
									<polygon id="XMLID_00000175285245913674378090000016495093265879797931_" class="st12" points="193.78,283.13 
										194.13,283.32 194.13,295.76 193.78,295.56 									"/>
								</g>
								<g id="XMLID_00000052789159440628289890000009082256768681129132_">
									<polygon id="XMLID_00000134967263071552410710000011204166500773260731_" class="st12" points="190.77,281.3 
										191.11,281.49 191.11,293.93 190.77,293.73 									"/>
								</g>
								<g id="XMLID_00000074419815818697043370000008645513122379370139_">
									<polygon id="XMLID_00000036937992787311887770000010419502395887302034_" class="st12" points="208.84,291.74 
										209.53,292.14 209.53,304.57 208.84,304.17 									"/>
								</g>
							</g>
						</g>
					</g>
					<g id="XMLID_28328_">
						<polygon id="XMLID_1086_" class="st7" points="205.18,273.18 210.44,276.22 210.44,268.06 205.18,265.02 						"/>
						<polygon id="XMLID_28272_" class="st12" points="210.44,268.06 276.53,229.84 271.26,226.8 205.18,265.02 						"/>
					</g>
				</g>
			</g>
			<g id="Cans_1_">
				<g>
					<path class="st7" d="M324.15,368.25c6.29,3.63,16.5,3.63,22.79,0c6.29-3.63,6.29-9.53,0-13.16c-6.29-3.63-16.5-3.63-22.79,0
						C317.86,358.73,317.86,364.62,324.15,368.25z"/>
					<g>
						<path class="st9" d="M349.14,361.11h0.02v-27.17h-27.22v27.17h0.02c-0.11,2.09,1.2,4.21,3.97,5.8
							c5.31,3.07,13.93,3.07,19.25,0C347.94,365.32,349.26,363.2,349.14,361.11z"/>
						<path class="st0" d="M325.93,339.49c5.31,3.07,13.93,3.07,19.25,0c5.31-3.07,5.31-8.04,0-11.11c-5.31-3.07-13.93-3.07-19.25,0
							C320.61,331.45,320.61,336.42,325.93,339.49z"/>
						<path class="st9" d="M326.52,339.04c4.99,2.82,13.08,2.82,18.07,0c4.99-2.82,4.99-7.39,0-10.2c-4.99-2.82-13.08-2.82-18.07,0
							C321.53,331.65,321.53,336.22,326.52,339.04z"/>
						<path class="st21" d="M344.59,330.15c-4.99-2.82-13.08-2.82-18.07,0c-2.2,1.24-3.42,2.82-3.69,4.44
							c0.26,1.62,1.49,3.2,3.69,4.44c4.99,2.82,13.08,2.82,18.07,0c2.2-1.24,3.42-2.82,3.69-4.44
							C348.01,332.97,346.78,331.39,344.59,330.15z"/>
						<path class="st1" d="M321.94,356.52c-0.02,2.02,1.31,4.05,3.99,5.6c5.31,3.07,13.93,3.07,19.25,0
							c2.66-1.53,3.99-3.55,3.99-5.56v-18.19c0,2.01-1.33,4.02-3.99,5.56c-5.31,3.07-13.93,3.07-19.25,0c-2.68-1.54-4-3.57-3.99-5.6
							V356.52z"/>
						<path class="st22" d="M321.94,356.52c-0.02,2.02,1.31,4.05,3.99,5.6c5.31,3.07,13.93,3.07,19.25,0
							c2.66-1.53,3.99-3.55,3.99-5.56v-18.19c0,2.01-1.33,4.02-3.99,5.56c-5.31,3.07-13.93,3.07-19.25,0c-2.68-1.54-4-3.57-3.99-5.6
							V356.52z"/>
						<path class="st20" d="M341.13,368.52c-5,1.29-11.09,0.77-15.19-1.61c-2.77-1.59-4.08-3.7-3.97-5.81h-0.02v-27.17
							c0,2.01,1.33,4.03,3.99,5.56c0.42,0.24,2.23,1.35,5.57,1.94v22.98C331.5,366.68,334.83,369.39,341.13,368.52z"/>
						<g>
							<path class="st4" d="M338.66,338.78l-1.44-0.83c-1.17-0.68-1.49-1.59-0.7-2.05c0.79-0.45,2.37-0.27,3.54,0.4l1.44,0.83
								c1.17,0.68,1.49,1.59,0.7,2.05C341.42,339.64,339.83,339.46,338.66,338.78z"/>
							<path class="st21" d="M337.15,337.16c0.43,0.25,1.12,0.25,1.55,0c0.43-0.25,0.43-0.65,0-0.9c-0.43-0.25-1.12-0.25-1.55,0
								C336.72,336.52,336.72,336.92,337.15,337.16z"/>
							<path class="st21" d="M340.01,338.71c0.43,0.25,1.12,0.25,1.55,0c0.43-0.25,0.43-0.65,0-0.9c-0.43-0.25-1.12-0.25-1.55,0
								C339.58,338.06,339.58,338.46,340.01,338.71z"/>
						</g>
					</g>
				</g>
				<g>
					<path class="st7" d="M303.98,379.9c6.29,3.63,16.5,3.63,22.79,0c6.29-3.63,6.29-9.53,0-13.16c-6.29-3.63-16.5-3.63-22.79,0
						C297.69,370.37,297.69,376.27,303.98,379.9z"/>
					<g>
						<path class="st9" d="M328.97,372.75h0.02v-27.17h-27.22v27.17h0.02c-0.11,2.09,1.2,4.21,3.97,5.81
							c5.31,3.07,13.93,3.07,19.25,0C327.77,376.96,329.08,374.85,328.97,372.75z"/>
						<path class="st0" d="M305.76,351.14c5.31,3.07,13.93,3.07,19.25,0c5.31-3.07,5.31-8.04,0-11.11c-5.31-3.07-13.93-3.07-19.25,0
							C300.44,343.09,300.44,348.07,305.76,351.14z"/>
						<path class="st9" d="M306.35,350.68c4.99,2.82,13.08,2.82,18.07,0c4.99-2.82,4.99-7.39,0-10.2c-4.99-2.82-13.08-2.82-18.07,0
							C301.36,343.3,301.36,347.86,306.35,350.68z"/>
						<path class="st21" d="M324.42,341.8c-4.99-2.82-13.08-2.82-18.07,0c-2.2,1.24-3.42,2.82-3.69,4.44
							c0.26,1.62,1.49,3.2,3.69,4.44c4.99,2.82,13.08,2.82,18.07,0c2.2-1.24,3.42-2.82,3.69-4.44
							C327.84,344.62,326.61,343.04,324.42,341.8z"/>
						<path class="st1" d="M301.77,368.16c-0.02,2.02,1.31,4.05,3.99,5.6c5.31,3.07,13.93,3.07,19.25,0
							c2.66-1.53,3.99-3.55,3.99-5.56v-18.19c0,2.01-1.33,4.02-3.99,5.56c-5.31,3.07-13.93,3.07-19.25,0c-2.68-1.54-4-3.57-3.99-5.6
							V368.16z"/>
						<path class="st22" d="M301.77,368.16c-0.02,2.02,1.31,4.05,3.99,5.6c5.31,3.07,13.93,3.07,19.25,0
							c2.66-1.53,3.99-3.55,3.99-5.56v-18.19c0,2.01-1.33,4.02-3.99,5.56c-5.31,3.07-13.93,3.07-19.25,0c-2.68-1.54-4-3.57-3.99-5.6
							V368.16z"/>
						<path class="st20" d="M320.96,380.17c-5,1.29-11.09,0.77-15.19-1.61c-2.77-1.59-4.08-3.7-3.97-5.81h-0.02v-27.17
							c0,2.01,1.33,4.03,3.99,5.56c0.42,0.24,2.23,1.35,5.57,1.94v22.98C311.33,378.33,314.66,381.04,320.96,380.17z"/>
						<g>
							<path class="st4" d="M318.49,350.43l-1.44-0.83c-1.17-0.68-1.49-1.59-0.7-2.05c0.79-0.45,2.37-0.27,3.54,0.4l1.44,0.83
								c1.17,0.68,1.49,1.59,0.7,2.05C321.25,351.28,319.66,351.1,318.49,350.43z"/>
							<path class="st21" d="M316.98,348.81c0.43,0.25,1.12,0.25,1.55,0c0.43-0.25,0.43-0.65,0-0.9c-0.43-0.25-1.12-0.25-1.55,0
								C316.55,348.16,316.55,348.56,316.98,348.81z"/>
							<path class="st21" d="M319.84,350.36c0.43,0.25,1.12,0.25,1.55,0c0.43-0.25,0.43-0.65,0-0.9c-0.43-0.25-1.12-0.25-1.55,0
								C319.41,349.71,319.41,350.11,319.84,350.36z"/>
						</g>
					</g>
				</g>
				<g>
					<ellipse class="st7" cx="295.21" cy="384.96" rx="16.12" ry="9.31"/>
					<g>
						<path class="st9" d="M308.8,384.4h0.02v-27.17H281.6v27.17h0.02c-0.11,2.09,1.2,4.21,3.97,5.81c5.31,3.07,13.93,3.07,19.25,0
							C307.6,388.61,308.91,386.49,308.8,384.4z"/>
						<path class="st0" d="M285.59,362.78c5.31,3.07,13.93,3.07,19.25,0c5.31-3.07,5.31-8.04,0-11.11c-5.31-3.07-13.93-3.07-19.25,0
							C280.27,354.74,280.27,359.71,285.59,362.78z"/>
						<path class="st9" d="M286.18,362.33c4.99,2.82,13.08,2.82,18.07,0c4.99-2.82,4.99-7.39,0-10.2c-4.99-2.82-13.08-2.82-18.07,0
							C281.19,354.94,281.19,359.51,286.18,362.33z"/>
						<path class="st21" d="M304.25,353.44c-4.99-2.82-13.08-2.82-18.07,0c-2.2,1.24-3.42,2.82-3.69,4.44
							c0.26,1.62,1.49,3.2,3.69,4.44c4.99,2.82,13.08,2.82,18.07,0c2.2-1.24,3.42-2.82,3.69-4.44
							C307.67,356.27,306.44,354.68,304.25,353.44z"/>
						<path class="st1" d="M281.6,379.81c-0.02,2.02,1.31,4.05,3.99,5.6c5.31,3.07,13.93,3.07,19.25,0
							c2.66-1.53,3.99-3.55,3.99-5.56v-18.19c0,2.01-1.33,4.02-3.99,5.56c-5.31,3.07-13.93,3.07-19.25,0c-2.68-1.54-4-3.57-3.99-5.6
							V379.81z"/>
						<path class="st22" d="M281.6,379.81c-0.02,2.02,1.31,4.05,3.99,5.6c5.31,3.07,13.93,3.07,19.25,0
							c2.66-1.53,3.99-3.55,3.99-5.56v-18.19c0,2.01-1.33,4.02-3.99,5.56c-5.31,3.07-13.93,3.07-19.25,0c-2.68-1.54-4-3.57-3.99-5.6
							V379.81z"/>
						<g>
							<path class="st4" d="M298.32,362.07l-1.44-0.83c-1.17-0.68-1.49-1.59-0.7-2.05c0.79-0.45,2.37-0.27,3.54,0.4l1.44,0.83
								c1.17,0.68,1.49,1.59,0.7,2.05C301.08,362.93,299.49,362.75,298.32,362.07z"/>
							<path class="st21" d="M296.81,360.45c0.43,0.25,1.12,0.25,1.55,0c0.43-0.25,0.43-0.65,0-0.9c-0.43-0.25-1.12-0.25-1.55,0
								C296.38,359.81,296.38,360.21,296.81,360.45z"/>
							<path class="st21" d="M299.67,362c0.43,0.25,1.12,0.25,1.55,0c0.43-0.25,0.43-0.65,0-0.9c-0.43-0.25-1.12-0.25-1.55,0
								C299.24,361.35,299.24,361.75,299.67,362z"/>
						</g>
						<path class="st20" d="M300.79,391.82c-5,1.29-11.09,0.77-15.19-1.61c-2.77-1.59-4.08-3.7-3.97-5.81h-0.02v-27.17
							c0,2.01,1.33,4.03,3.99,5.56c0.42,0.24,2.23,1.35,5.57,1.94v22.98C291.16,389.98,294.49,392.68,300.79,391.82z"/>
					</g>
				</g>
				<g>
					<path class="st7" d="M263.64,403.19c6.29,3.63,16.5,3.63,22.79,0c6.29-3.63,6.29-9.53,0-13.16c-6.29-3.63-16.5-3.63-22.79,0
						C257.35,393.66,257.35,399.56,263.64,403.19z"/>
					<g>
						<path class="st9" d="M288.63,396.05h0.02v-27.17h-27.22v27.17h0.02c-0.11,2.09,1.2,4.21,3.97,5.81
							c5.31,3.07,13.93,3.07,19.25,0C287.43,400.25,288.74,398.14,288.63,396.05z"/>
						<ellipse class="st0" cx="275.04" cy="368.87" rx="13.61" ry="7.86"/>
						<path class="st9" d="M266.01,373.97c4.99,2.82,13.08,2.82,18.07,0c4.99-2.82,4.99-7.39,0-10.2c-4.99-2.82-13.08-2.82-18.07,0
							C261.02,366.59,261.02,371.16,266.01,373.97z"/>
						<path class="st21" d="M284.08,365.09c-4.99-2.82-13.08-2.82-18.07,0c-2.2,1.24-3.42,2.82-3.69,4.44
							c0.26,1.62,1.49,3.2,3.69,4.44c4.99,2.82,13.08,2.82,18.07,0c2.2-1.24,3.42-2.82,3.69-4.44
							C287.5,367.91,286.27,366.33,284.08,365.09z"/>
						<path class="st1" d="M261.43,391.45c-0.02,2.02,1.31,4.05,3.99,5.6c5.31,3.07,13.93,3.07,19.25,0
							c2.66-1.53,3.99-3.55,3.99-5.56V373.3c0,2.01-1.33,4.02-3.99,5.56c-5.31,3.07-13.93,3.07-19.25,0c-2.68-1.54-4-3.57-3.99-5.6
							V391.45z"/>
						<path class="st22" d="M261.43,391.45c-0.02,2.02,1.31,4.05,3.99,5.6c5.31,3.07,13.93,3.07,19.25,0
							c2.66-1.53,3.99-3.55,3.99-5.56V373.3c0,2.01-1.33,4.02-3.99,5.56c-5.31,3.07-13.93,3.07-19.25,0c-2.68-1.54-4-3.57-3.99-5.6
							V391.45z"/>
						<path class="st20" d="M280.61,403.46c-5,1.29-11.09,0.77-15.19-1.61c-2.77-1.59-4.08-3.7-3.97-5.81h-0.02v-27.17
							c0,2.01,1.33,4.03,3.99,5.56c0.42,0.24,2.23,1.35,5.57,1.94v22.98C270.99,401.62,274.32,404.33,280.61,403.46z"/>
						<g>
							<path class="st4" d="M278.15,373.72l-1.44-0.83c-1.17-0.68-1.49-1.59-0.7-2.05c0.79-0.45,2.37-0.27,3.54,0.4l1.44,0.83
								c1.17,0.68,1.49,1.59,0.7,2.05C280.91,374.58,279.32,374.39,278.15,373.72z"/>
							<ellipse class="st21" cx="277.41" cy="371.65" rx="1.1" ry="0.63"/>
							<path class="st21" d="M279.5,373.65c0.43,0.25,1.12,0.25,1.55,0c0.43-0.25,0.43-0.65,0-0.9c-0.43-0.25-1.12-0.25-1.55,0
								C279.07,373,279.07,373.4,279.5,373.65z"/>
						</g>
					</g>
				</g>
			</g>
			<g id="Cans">
				<g>
					<path class="st7" d="M344.15,379.81c6.29,3.63,16.5,3.63,22.79,0c6.29-3.63,6.29-9.53,0-13.16c-6.29-3.63-16.5-3.63-22.79,0
						C337.86,370.29,337.86,376.18,344.15,379.81z"/>
					<g>
						<path class="st9" d="M369.14,372.67h0.02v-27.17h-27.22v27.17h0.02c-0.11,2.09,1.2,4.21,3.97,5.81
							c5.31,3.07,13.93,3.07,19.25,0C367.94,376.87,369.25,374.76,369.14,372.67z"/>
						<path class="st0" d="M345.93,351.05c5.31,3.07,13.93,3.07,19.25,0c5.31-3.07,5.31-8.04,0-11.11c-5.31-3.07-13.93-3.07-19.25,0
							C340.61,343,340.61,347.98,345.93,351.05z"/>
						<path class="st9" d="M346.51,350.59c4.99,2.82,13.08,2.82,18.07,0c4.99-2.82,4.99-7.39,0-10.2c-4.99-2.82-13.08-2.82-18.07,0
							C341.52,343.21,341.52,347.78,346.51,350.59z"/>
						<path class="st21" d="M364.58,341.71c-4.99-2.82-13.08-2.82-18.07,0c-2.2,1.24-3.42,2.82-3.69,4.44
							c0.26,1.62,1.49,3.2,3.69,4.44c4.99,2.82,13.08,2.82,18.07,0c2.2-1.24,3.42-2.82,3.69-4.44
							C368.01,344.53,366.78,342.95,364.58,341.71z"/>
						<path class="st1" d="M341.94,368.07c-0.02,2.02,1.31,4.05,3.99,5.6c5.31,3.07,13.93,3.07,19.25,0
							c2.66-1.53,3.99-3.55,3.99-5.56v-18.19c0,2.01-1.33,4.02-3.99,5.56c-5.31,3.07-13.93,3.07-19.25,0c-2.68-1.54-4-3.57-3.99-5.6
							V368.07z"/>
						<path class="st22" d="M341.94,368.07c-0.02,2.02,1.31,4.05,3.99,5.6c5.31,3.07,13.93,3.07,19.25,0
							c2.66-1.53,3.99-3.55,3.99-5.56v-18.19c0,2.01-1.33,4.02-3.99,5.56c-5.31,3.07-13.93,3.07-19.25,0c-2.68-1.54-4-3.57-3.99-5.6
							V368.07z"/>
						<path class="st20" d="M361.12,380.08c-5,1.29-11.09,0.77-15.19-1.61c-2.77-1.59-4.08-3.7-3.97-5.81h-0.02v-27.17
							c0,2.01,1.33,4.03,3.99,5.56c0.42,0.24,2.23,1.35,5.57,1.94v22.98C351.5,378.24,354.83,380.95,361.12,380.08z"/>
						<g>
							<path class="st4" d="M358.66,350.34l-1.44-0.83c-1.17-0.68-1.49-1.59-0.7-2.05c0.79-0.45,2.37-0.27,3.54,0.4l1.44,0.83
								c1.17,0.68,1.49,1.59,0.7,2.05C361.41,351.2,359.83,351.02,358.66,350.34z"/>
							<path class="st21" d="M357.14,348.72c0.43,0.25,1.12,0.25,1.55,0c0.43-0.25,0.43-0.65,0-0.9c-0.43-0.25-1.12-0.25-1.55,0
								C356.72,348.07,356.72,348.47,357.14,348.72z"/>
							<path class="st21" d="M360.01,350.27c0.43,0.25,1.12,0.25,1.55,0c0.43-0.25,0.43-0.65,0-0.9c-0.43-0.25-1.12-0.25-1.55,0
								C359.58,349.62,359.58,350.02,360.01,350.27z"/>
						</g>
					</g>
				</g>
				<g>
					<ellipse class="st7" cx="335.38" cy="384.88" rx="16.12" ry="9.31"/>
					<g>
						<path class="st9" d="M348.97,384.31h0.02v-27.17h-27.22v27.17h0.02c-0.11,2.09,1.2,4.21,3.97,5.81
							c5.31,3.07,13.93,3.07,19.25,0C347.77,388.52,349.08,386.41,348.97,384.31z"/>
						<path class="st0" d="M325.76,362.69c5.31,3.07,13.93,3.07,19.25,0c5.31-3.07,5.31-8.04,0-11.11c-5.31-3.07-13.93-3.07-19.25,0
							C320.44,354.65,320.44,359.62,325.76,362.69z"/>
						<path class="st9" d="M326.34,362.24c4.99,2.82,13.08,2.82,18.07,0c4.99-2.82,4.99-7.39,0-10.2c-4.99-2.82-13.08-2.82-18.07,0
							C321.35,354.85,321.35,359.42,326.34,362.24z"/>
						<path class="st21" d="M344.41,353.36c-4.99-2.82-13.08-2.82-18.07,0c-2.2,1.24-3.42,2.82-3.69,4.44
							c0.26,1.62,1.49,3.2,3.69,4.44c4.99,2.82,13.08,2.82,18.07,0c2.2-1.24,3.42-2.82,3.69-4.44
							C347.84,356.18,346.61,354.6,344.41,353.36z"/>
						<path class="st1" d="M321.77,379.72c-0.02,2.02,1.31,4.05,3.99,5.6c5.31,3.07,13.93,3.07,19.25,0
							c2.66-1.53,3.99-3.55,3.99-5.56v-18.19c0,2.01-1.33,4.02-3.99,5.56c-5.31,3.07-13.93,3.07-19.25,0c-2.68-1.54-4-3.57-3.99-5.6
							V379.72z"/>
						<path class="st22" d="M321.77,379.72c-0.02,2.02,1.31,4.05,3.99,5.6c5.31,3.07,13.93,3.07,19.25,0
							c2.66-1.53,3.99-3.55,3.99-5.56v-18.19c0,2.01-1.33,4.02-3.99,5.56c-5.31,3.07-13.93,3.07-19.25,0c-2.68-1.54-4-3.57-3.99-5.6
							V379.72z"/>
						<path class="st20" d="M340.95,391.73c-5,1.29-11.09,0.77-15.19-1.61c-2.77-1.59-4.08-3.7-3.97-5.81h-0.02v-27.17
							c0,2.01,1.33,4.03,3.99,5.56c0.42,0.24,2.23,1.35,5.57,1.94v22.98C331.33,389.89,334.66,392.59,340.95,391.73z"/>
						<g>
							<path class="st4" d="M338.48,361.98l-1.44-0.83c-1.17-0.68-1.49-1.59-0.7-2.05c0.79-0.45,2.37-0.27,3.54,0.4l1.44,0.83
								c1.17,0.68,1.49,1.59,0.7,2.05C341.24,362.84,339.66,362.66,338.48,361.98z"/>
							<path class="st21" d="M336.97,360.37c0.43,0.25,1.12,0.25,1.55,0c0.43-0.25,0.43-0.65,0-0.9c-0.43-0.25-1.12-0.25-1.55,0
								C336.55,359.72,336.55,360.12,336.97,360.37z"/>
							<path class="st21" d="M339.84,361.91c0.43,0.25,1.12,0.25,1.55,0c0.43-0.25,0.43-0.65,0-0.9c-0.43-0.25-1.12-0.25-1.55,0
								C339.41,361.26,339.41,361.67,339.84,361.91z"/>
						</g>
					</g>
				</g>
				<g>
					<path class="st7" d="M303.81,403.1c6.29,3.63,16.5,3.63,22.79,0c6.29-3.63,6.29-9.53,0-13.16c-6.29-3.63-16.5-3.63-22.79,0
						C297.52,393.58,297.52,399.47,303.81,403.1z"/>
					<g>
						<path class="st9" d="M328.8,395.96h0.02v-27.17H301.6v27.17h0.02c-0.11,2.09,1.2,4.21,3.97,5.81c5.31,3.07,13.93,3.07,19.25,0
							C327.6,400.17,328.91,398.05,328.8,395.96z"/>
						<path class="st0" d="M305.59,374.34c5.31,3.07,13.93,3.07,19.25,0c5.31-3.07,5.31-8.04,0-11.11c-5.31-3.07-13.93-3.07-19.25,0
							C300.27,366.3,300.27,371.27,305.59,374.34z"/>
						<path class="st9" d="M306.17,373.89c4.99,2.82,13.08,2.82,18.07,0c4.99-2.82,4.99-7.39,0-10.2c-4.99-2.82-13.08-2.82-18.07,0
							C301.18,366.5,301.18,371.07,306.17,373.89z"/>
						<path class="st21" d="M324.24,365c-4.99-2.82-13.08-2.82-18.07,0c-2.2,1.24-3.42,2.82-3.69,4.44c0.26,1.62,1.49,3.2,3.69,4.44
							c4.99,2.82,13.08,2.82,18.07,0c2.2-1.24,3.42-2.82,3.69-4.44C327.67,367.82,326.44,366.24,324.24,365z"/>
						<path class="st1" d="M301.6,391.36c-0.02,2.02,1.31,4.05,3.99,5.6c5.31,3.07,13.93,3.07,19.25,0
							c2.66-1.53,3.99-3.55,3.99-5.56v-18.19c0,2.01-1.33,4.02-3.99,5.56c-5.31,3.07-13.93,3.07-19.25,0c-2.68-1.54-4-3.57-3.99-5.6
							V391.36z"/>
						<path class="st22" d="M301.6,391.36c-0.02,2.02,1.31,4.05,3.99,5.6c5.31,3.07,13.93,3.07,19.25,0
							c2.66-1.53,3.99-3.55,3.99-5.56v-18.19c0,2.01-1.33,4.02-3.99,5.56c-5.31,3.07-13.93,3.07-19.25,0c-2.68-1.54-4-3.57-3.99-5.6
							V391.36z"/>
						<g>
							<path class="st4" d="M318.31,373.63l-1.44-0.83c-1.17-0.68-1.49-1.59-0.7-2.05c0.79-0.45,2.37-0.27,3.54,0.4l1.44,0.83
								c1.17,0.68,1.49,1.59,0.7,2.05C321.07,374.49,319.49,374.31,318.31,373.63z"/>
							<path class="st21" d="M316.8,372.01c0.43,0.25,1.12,0.25,1.55,0c0.43-0.25,0.43-0.65,0-0.9c-0.43-0.25-1.12-0.25-1.55,0
								C316.38,371.36,316.38,371.76,316.8,372.01z"/>
							<path class="st21" d="M319.67,373.56c0.43,0.25,1.12,0.25,1.55,0c0.43-0.25,0.43-0.65,0-0.9c-0.43-0.25-1.12-0.25-1.55,0
								C319.24,372.91,319.24,373.31,319.67,373.56z"/>
						</g>
						<path class="st20" d="M320.78,403.37c-5,1.29-11.09,0.77-15.19-1.61c-2.77-1.59-4.08-3.7-3.97-5.81h-0.02v-27.17
							c0,2.01,1.33,4.03,3.99,5.56c0.42,0.24,2.23,1.35,5.57,1.94v22.98C311.16,401.54,314.49,404.24,320.78,403.37z"/>
					</g>
				</g>
				<g>
					<path class="st7" d="M283.64,414.75c6.29,3.63,16.5,3.63,22.79,0c6.29-3.63,6.29-9.53,0-13.16c-6.29-3.63-16.5-3.63-22.79,0
						C277.35,405.22,277.35,411.11,283.64,414.75z"/>
					<g>
						<path class="st9" d="M308.63,407.6h0.02v-27.17h-27.22v27.17h0.02c-0.11,2.09,1.2,4.21,3.97,5.81
							c5.31,3.07,13.93,3.07,19.25,0C307.43,411.81,308.74,409.7,308.63,407.6z"/>
						<path class="st0" d="M285.42,385.98c5.31,3.07,13.93,3.07,19.25,0c5.31-3.07,5.31-8.04,0-11.11c-5.31-3.07-13.93-3.07-19.25,0
							C280.1,377.94,280.1,382.92,285.42,385.98z"/>
						<path class="st9" d="M286,385.53c4.99,2.82,13.08,2.82,18.07,0c4.99-2.82,4.99-7.39,0-10.2c-4.99-2.82-13.08-2.82-18.07,0
							C281.01,378.14,281.01,382.71,286,385.53z"/>
						<path class="st21" d="M304.07,376.65c-4.99-2.82-13.08-2.82-18.07,0c-2.2,1.24-3.42,2.82-3.69,4.44
							c0.26,1.62,1.49,3.2,3.69,4.44c4.99,2.82,13.08,2.82,18.07,0c2.2-1.24,3.42-2.82,3.69-4.44
							C307.5,379.47,306.27,377.89,304.07,376.65z"/>
						<path class="st1" d="M281.43,403.01c-0.02,2.02,1.31,4.05,3.99,5.6c5.31,3.07,13.93,3.07,19.25,0
							c2.66-1.53,3.99-3.55,3.99-5.56v-18.19c0,2.01-1.33,4.02-3.99,5.56c-5.31,3.07-13.93,3.07-19.25,0c-2.68-1.54-4-3.57-3.99-5.6
							V403.01z"/>
						<path class="st22" d="M281.43,403.01c-0.02,2.02,1.31,4.05,3.99,5.6c5.31,3.07,13.93,3.07,19.25,0
							c2.66-1.53,3.99-3.55,3.99-5.56v-18.19c0,2.01-1.33,4.02-3.99,5.56c-5.31,3.07-13.93,3.07-19.25,0c-2.68-1.54-4-3.57-3.99-5.6
							V403.01z"/>
						<path class="st20" d="M300.61,415.02c-5,1.29-11.09,0.77-15.19-1.61c-2.77-1.59-4.08-3.7-3.97-5.81h-0.02v-27.17
							c0,2.01,1.33,4.03,3.99,5.56c0.42,0.24,2.23,1.35,5.57,1.94v22.98C290.99,413.18,294.32,415.88,300.61,415.02z"/>
						<g>
							<path class="st4" d="M298.14,385.27l-1.44-0.83c-1.17-0.68-1.49-1.59-0.7-2.05c0.79-0.45,2.37-0.27,3.54,0.4l1.44,0.83
								c1.17,0.68,1.49,1.59,0.7,2.05C300.9,386.13,299.32,385.95,298.14,385.27z"/>
							<ellipse class="st21" cx="297.41" cy="383.21" rx="1.1" ry="0.63"/>
							<path class="st21" d="M299.5,385.2c0.43,0.25,1.12,0.25,1.55,0c0.43-0.25,0.43-0.65,0-0.9c-0.43-0.25-1.12-0.25-1.55,0
								C299.07,384.56,299.07,384.96,299.5,385.2z"/>
						</g>
					</g>
				</g>
			</g>
		</g>
	</g>
</g>
<g id="Boxes">
	<g id="Boxes_2_">
		<g id="Box_11_">
			<g id="Box_12_">
				<g id="Back_box_3_">
					<g id="XMLID_5955_">
						<polygon id="XMLID_5956_" points="35.23,403.36 103.82,363.76 190.06,413.55 121.47,453.15 						"/>
					</g>
					<polygon id="XMLID_5954_" class="st7" points="103.82,363.76 103.82,296.04 33.84,336.45 92.39,370.36 					"/>
					<g id="XMLID_5952_">
						<polygon id="XMLID_5953_" class="st6" points="103.82,296.04 103.82,363.76 132.9,380.55 191.45,346.63 						"/>
					</g>
				</g>
				<g id="Front_Box_3_">
					<g id="XMLID_5945_">
						<polygon id="XMLID_5946_" class="st6" points="33.84,336.45 33.84,402.56 121.47,453.15 121.47,387.15 						"/>
					</g>
					<g id="XMLID_00000018935668212111739420000000792202679511053698_">
						<polygon class="st7" points="121.47,387.15 121.47,453.15 191.45,412.75 191.45,346.63 						"/>
						<polygon id="XMLID_5940_" class="st12" points="121.47,387.15 122.85,450.63 173.67,423.01 121.47,453.15 						"/>
					</g>
				</g>
				<g>
					<g id="XMLID_00000022540788077828539330000003347876688964576938_">
						<g id="XMLID_00000011712358678212350150000014037053716611775370_">
							<path id="XMLID_00000175287701130107135150000009952447626953522569_" class="st4" d="M129.83,431.92
								c-0.26,0-0.5-0.06-0.72-0.19c-0.57-0.33-0.9-1.05-0.9-1.98v-5.85c0,0,0-0.01,0-0.01v-0.43l0.3,0.05l4.58-2.69v6.53
								c0,1.66-0.99,3.54-2.26,4.27C130.5,431.82,130.16,431.92,129.83,431.92z M128.96,424.33v5.41c0,0.66,0.19,1.15,0.53,1.35
								c0.33,0.19,0.72,0.04,0.99-0.11c1.02-0.59,1.89-2.26,1.89-3.63v-0.48h-1.7l-0.33-2.29L128.96,424.33z M131.31,426.14h1.06
								v-4.04l-2.74,1.61l1.35,0.24L131.31,426.14z"/>
						</g>
						<g id="XMLID_00000051376687380586684850000007931574186335032490_">
							<path id="XMLID_00000035491673112128245790000014899891048488574385_" class="st4" d="M130.66,436.58
								c-0.2,0-0.37-0.16-0.37-0.37v-4.91c0-0.2,0.16-0.37,0.37-0.37c0.2,0,0.37,0.16,0.37,0.37v4.91
								C131.03,436.42,130.87,436.58,130.66,436.58z"/>
						</g>
						<g id="XMLID_00000025412261682024413130000009517867979317545396_">
							<path id="XMLID_00000111876777058636021000000002310403104379523730_" class="st4" d="M128.53,437.81
								c-0.13,0-0.25-0.07-0.32-0.18c-0.1-0.18-0.04-0.4,0.13-0.5l4.27-2.46c0.17-0.11,0.4-0.05,0.5,0.13
								c0.1,0.18,0.04,0.4-0.13,0.5l-4.27,2.46C128.65,437.8,128.59,437.81,128.53,437.81z"/>
						</g>
					</g>
					<g id="XMLID_3972_">
						<g id="XMLID_00000011004169104084193090000005201517479747346049_">
							<path id="XMLID_00000032633663389349503340000003962714259517278904_" class="st4" d="M143.74,429.35
								c-0.14,0-0.28-0.03-0.4-0.1c-0.28-0.16-0.44-0.48-0.44-0.88v-1.01c0-0.2,0.16-0.37,0.37-0.37s0.37,0.16,0.37,0.37v1.01
								c0,0.15,0.04,0.23,0.07,0.25c0.03,0.02,0.12,0.01,0.24-0.06c0.32-0.19,0.68-0.92,0.68-1.66v-6.53c0-0.2,0.16-0.37,0.37-0.37
								c0.2,0,0.37,0.16,0.37,0.37v6.53c0,0.96-0.45,1.94-1.04,2.29C144.12,429.3,143.93,429.35,143.74,429.35z"/>
						</g>
						<g id="XMLID_3973_">
							<path id="XMLID_00000134230512560368648620000003836942724202163872_" class="st4" d="M139.87,423.64v-0.64
								c0-3,2.11-6.65,4.7-8.15c1.33-0.76,2.6-0.88,3.56-0.32c0.97,0.56,1.51,1.71,1.51,3.24V418L139.87,423.64z M146.77,414.93
								c-0.56,0-1.18,0.19-1.83,0.57c-2.2,1.27-4.03,4.23-4.3,6.85l8.26-4.77c-0.04-1.15-0.44-2-1.14-2.4
								C147.47,415.01,147.14,414.93,146.77,414.93z"/>
						</g>
					</g>
					<g id="XMLID_3961_">
						<g id="XMLID_3967_">
							<g id="XMLID_3970_">
								<path id="XMLID_3971_" class="st4" d="M156.94,421.83c-0.2,0-0.37-0.16-0.37-0.37v-12.51c0-0.2,0.16-0.37,0.37-0.37
									s0.37,0.16,0.37,0.37v12.51C157.31,421.66,157.15,421.83,156.94,421.83z"/>
							</g>
							<g id="XMLID_3968_">
								<path id="XMLID_3969_" class="st4" d="M155.87,411.8c-0.05,0-0.1-0.01-0.15-0.03c-0.19-0.08-0.27-0.3-0.19-0.48l1.31-3.02
									l1.46,1.69c0.13,0.15,0.12,0.38-0.04,0.52c-0.16,0.13-0.39,0.12-0.52-0.04l-0.69-0.8l-0.84,1.95
									C156.15,411.72,156.01,411.8,155.87,411.8z"/>
							</g>
						</g>
						<g id="XMLID_3962_">
							<g id="XMLID_3965_">
								<path id="XMLID_3966_" class="st4" d="M160.34,419.89c-0.2,0-0.37-0.16-0.37-0.37v-12.51c0-0.2,0.16-0.37,0.37-0.37
									c0.2,0,0.37,0.16,0.37,0.37v12.51C160.71,419.72,160.55,419.89,160.34,419.89z"/>
							</g>
							<g id="XMLID_3963_">
								<path id="XMLID_3964_" class="st4" d="M159.27,409.86c-0.05,0-0.1-0.01-0.15-0.03c-0.19-0.08-0.27-0.3-0.19-0.48l1.31-3.02
									l1.46,1.69c0.13,0.15,0.12,0.38-0.04,0.52c-0.16,0.13-0.39,0.12-0.52-0.04l-0.69-0.8l-0.84,1.95
									C159.55,409.78,159.41,409.86,159.27,409.86z"/>
							</g>
						</g>
					</g>
				</g>
				<g>
					<g id="XMLID_3959_">
						<path id="XMLID_3960_" class="st0" d="M48.83,383.38l19.1,11.03c0.47,0.27,0.86,0.95,0.86,1.49l0,13.28
							c0,1.09-0.77,1.54-1.72,0.99l-19.1-11.03c-0.47-0.27-0.86-0.95-0.86-1.49l0-13.28C47.11,383.28,47.89,382.83,48.83,383.38z"/>
					</g>
					<g id="XMLID_3842_">
						<g id="XMLID_3934_">
							<polygon id="XMLID_3958_" class="st12" points="48.36,385.45 49.01,385.82 49.01,397.54 48.36,397.17 							"/>
						</g>
						<g id="XMLID_3912_">
							<polygon id="XMLID_3927_" class="st12" points="51,386.97 52.12,387.63 52.12,399.35 51,398.69 							"/>
						</g>
						<g id="XMLID_3901_">
							<polygon id="XMLID_3906_" class="st12" points="53.65,388.5 54.3,388.87 54.3,400.59 53.65,400.22 							"/>
						</g>
						<g id="XMLID_3897_">
							<polygon id="XMLID_3898_" class="st12" points="55.64,389.63 56.94,390.4 56.94,402.12 55.64,401.35 							"/>
						</g>
						<g id="XMLID_3891_">
							<polygon id="XMLID_3896_" class="st12" points="58.94,391.55 59.59,391.93 59.59,403.65 58.94,403.27 							"/>
						</g>
						<g id="XMLID_3874_">
							<polygon id="XMLID_3885_" class="st12" points="60.85,392.63 62.24,393.45 62.24,405.17 60.85,404.35 							"/>
						</g>
						<g id="XMLID_3865_">
							<polygon id="XMLID_3868_" class="st12" points="64.23,394.61 64.88,394.98 64.88,406.7 64.23,406.33 							"/>
						</g>
						<g id="XMLID_3861_">
							<polygon id="XMLID_3862_" class="st12" points="65.74,395.46 66.07,395.65 66.07,407.37 65.74,407.18 							"/>
						</g>
						<g id="XMLID_3857_">
							<polygon id="XMLID_3860_" class="st12" points="63.03,393.97 63.35,394.15 63.35,405.88 63.03,405.69 							"/>
						</g>
						<g id="XMLID_3851_">
							<polygon id="XMLID_3855_" class="st12" points="57.7,390.85 58.02,391.03 58.02,402.75 57.7,402.57 							"/>
						</g>
						<g id="XMLID_3849_">
							<polygon id="XMLID_3850_" class="st12" points="54.78,389.17 55.1,389.36 55.1,401.08 54.78,400.89 							"/>
						</g>
						<g id="XMLID_3847_">
							<polygon id="XMLID_3848_" class="st12" points="52.68,388.01 53.01,388.2 53.01,399.92 52.68,399.73 							"/>
						</g>
						<g id="XMLID_3845_">
							<polygon id="XMLID_3846_" class="st12" points="49.84,386.29 50.16,386.48 50.16,398.2 49.84,398.01 							"/>
						</g>
						<g id="XMLID_3843_">
							<polygon id="XMLID_3844_" class="st12" points="66.88,396.13 67.53,396.51 67.53,408.23 66.88,407.85 							"/>
						</g>
					</g>
				</g>
			</g>
			<polygon class="st12" points="103.82,296.04 33.84,336.45 121.47,387.15 191.45,346.63 			"/>
			<polygon class="st23" points="33.84,336.45 121.47,384.64 191.45,346.63 121.47,387.15 			"/>
			<polygon class="st1" points="62.88,319.68 150.56,370.3 161.34,364.07 73.66,313.45 			"/>
			<g>
				<polygon class="st1" points="161.34,364.06 161.34,377.76 160.04,377.02 158.68,379.36 157.33,378.56 155.97,380.92 
					154.62,380.13 153.27,382.47 151.91,381.7 150.56,384.03 150.56,370.3 				"/>
				<polygon class="st24" points="161.34,364.06 161.34,377.76 160.04,377.02 158.68,379.36 157.33,378.56 155.97,380.92 
					154.62,380.13 153.27,382.47 151.91,381.7 150.56,384.03 150.56,370.3 				"/>
			</g>
		</g>
		<polygon class="st20" points="100.43,300.43 39.4,335.66 116.19,380.15 177.22,344.8 		"/>
		<g id="Box_9_">
			<g id="Box_10_">
				<g id="Back_box_2_">
					<g id="XMLID_3840_">
						<polygon id="XMLID_3841_" points="51.01,337.39 102.02,307.86 166.87,345.32 115.86,374.77 						"/>
					</g>
					<polygon id="XMLID_3839_" class="st7" points="102.02,301.59 102.02,243.39 49.81,273.53 100.36,302.75 					"/>
					<g id="XMLID_3837_">
						<polygon id="XMLID_3838_" class="st6" points="102.02,243.39 102.02,301.59 117.68,310.65 168.06,281.47 						"/>
					</g>
				</g>
				<g id="Front_Box_2_">
					<g id="XMLID_3835_">
						<polygon id="XMLID_3836_" class="st6" points="49.81,273.53 49.81,336.7 115.86,374.77 115.86,311.7 						"/>
					</g>
					<g id="XMLID_3833_">
						<polygon class="st7" points="115.86,311.7 115.86,374.77 168.06,344.63 168.06,281.47 						"/>
						<polygon id="XMLID_3834_" class="st12" points="115.86,311.7 117.05,372.6 160.78,348.83 115.86,374.77 						"/>
					</g>
				</g>
				<g>
					<g id="XMLID_3822_">
						<g id="XMLID_3827_">
							<path id="XMLID_3829_" class="st4" d="M123.06,356.5c-0.22,0-0.43-0.05-0.62-0.16c-0.49-0.28-0.77-0.91-0.77-1.71v-5.03
								c0,0,0-0.01,0-0.01v-0.37l0.26,0.05l3.95-2.32v5.62c0,1.43-0.85,3.04-1.94,3.67C123.63,356.41,123.33,356.5,123.06,356.5z
								 M122.3,349.97v4.66c0,0.57,0.17,0.99,0.46,1.16c0.29,0.16,0.62,0.04,0.86-0.09c0.88-0.51,1.63-1.94,1.63-3.13v-0.41h-1.46
								l-0.29-1.97L122.3,349.97z M124.32,351.52h0.91v-3.47l-2.35,1.38l1.17,0.21L124.32,351.52z"/>
						</g>
						<g id="XMLID_3825_">
							<path id="XMLID_3826_" class="st4" d="M123.77,360.51c-0.17,0-0.32-0.14-0.32-0.32v-4.23c0-0.17,0.14-0.32,0.32-0.32
								c0.17,0,0.32,0.14,0.32,0.32v4.23C124.09,360.37,123.94,360.51,123.77,360.51z"/>
						</g>
						<g id="XMLID_3823_">
							<path id="XMLID_3824_" class="st4" d="M121.93,361.57c-0.11,0-0.22-0.06-0.27-0.16c-0.09-0.15-0.04-0.34,0.12-0.43l3.68-2.12
								c0.15-0.09,0.34-0.04,0.43,0.12c0.09,0.15,0.04,0.34-0.12,0.43l-3.68,2.12C122.04,361.56,121.99,361.57,121.93,361.57z"/>
						</g>
					</g>
					<g id="XMLID_3815_">
						<g id="XMLID_3820_">
							<path id="XMLID_3821_" class="st4" d="M135.02,354.29c-0.12,0-0.24-0.03-0.35-0.09c-0.24-0.14-0.38-0.42-0.38-0.76v-0.87
								c0-0.17,0.14-0.32,0.32-0.32c0.17,0,0.32,0.14,0.32,0.32v0.87c0,0.13,0.04,0.2,0.06,0.21c0.03,0.01,0.1,0.01,0.21-0.05
								c0.28-0.16,0.59-0.79,0.59-1.43v-5.62c0-0.17,0.14-0.32,0.32-0.32c0.17,0,0.32,0.14,0.32,0.32v5.62
								c0,0.82-0.39,1.67-0.9,1.97C135.35,354.24,135.18,354.29,135.02,354.29z"/>
						</g>
						<g id="XMLID_3816_">
							<path id="XMLID_3817_" class="st4" d="M131.69,349.38v-0.55c0-2.58,1.81-5.72,4.05-7.01c1.14-0.66,2.23-0.76,3.07-0.27
								c0.84,0.48,1.3,1.47,1.3,2.79v0.18L131.69,349.38z M137.63,341.88c-0.48,0-1.02,0.16-1.58,0.49c-1.9,1.09-3.47,3.64-3.7,5.9
								l7.11-4.11c-0.04-0.99-0.38-1.72-0.98-2.06C138.24,341.95,137.95,341.88,137.63,341.88z"/>
						</g>
					</g>
					<g id="XMLID_3793_">
						<g id="XMLID_3799_">
							<g id="XMLID_3813_">
								<path id="XMLID_3814_" class="st4" d="M146.38,347.82c-0.17,0-0.32-0.14-0.32-0.32v-10.77c0-0.17,0.14-0.32,0.32-0.32
									c0.17,0,0.32,0.14,0.32,0.32v10.77C146.7,347.67,146.56,347.82,146.38,347.82z"/>
							</g>
							<g id="XMLID_3803_">
								<path id="XMLID_3804_" class="st4" d="M145.46,339.19c-0.04,0-0.08-0.01-0.13-0.03c-0.16-0.07-0.23-0.26-0.16-0.42l1.13-2.6
									l1.26,1.45c0.12,0.13,0.1,0.33-0.03,0.45c-0.14,0.11-0.33,0.1-0.45-0.03l-0.6-0.69l-0.73,1.68
									C145.7,339.12,145.58,339.19,145.46,339.19z"/>
							</g>
						</g>
						<g id="XMLID_3794_">
							<g id="XMLID_3797_">
								<path id="XMLID_3798_" class="st4" d="M149.31,346.15c-0.17,0-0.32-0.14-0.32-0.32v-10.77c0-0.17,0.14-0.32,0.32-0.32
									c0.17,0,0.32,0.14,0.32,0.32v10.77C149.63,346.01,149.49,346.15,149.31,346.15z"/>
							</g>
							<g id="XMLID_3795_">
								<path id="XMLID_3796_" class="st4" d="M148.39,337.52c-0.04,0-0.08-0.01-0.13-0.03c-0.16-0.07-0.23-0.26-0.16-0.42l1.13-2.6
									l1.26,1.45c0.12,0.13,0.1,0.33-0.03,0.45c-0.14,0.11-0.33,0.1-0.45-0.03l-0.6-0.69l-0.73,1.68
									C148.62,337.45,148.51,337.52,148.39,337.52z"/>
							</g>
						</g>
					</g>
				</g>
			</g>
			<polygon class="st12" points="102.02,243.39 49.81,273.53 115.86,311.7 168.06,281.47 			"/>
			<polygon class="st23" points="49.81,273.53 115.61,309.45 168.06,281.47 115.86,311.7 			"/>
			<polygon class="st1" points="73.01,260.14 139.11,298.24 148.38,292.87 82.3,254.78 			"/>
			<g>
				<polygon class="st1" points="148.38,292.87 148.38,304.66 147.26,304.02 146.1,306.03 144.93,305.35 143.77,307.38 142.6,306.7 
					141.43,308.71 140.27,308.04 139.1,310.05 139.1,298.24 				"/>
				<polygon class="st24" points="148.38,292.87 148.38,304.66 147.26,304.02 146.1,306.03 144.93,305.35 143.77,307.38 
					142.6,306.7 141.43,308.71 140.27,308.04 139.1,310.05 139.1,298.24 				"/>
			</g>
			<g>
				<g id="XMLID_00000029729200220154627880000015492336984448932232_">
					<path id="XMLID_00000116228616757967141630000004043781887081889702_" class="st0" d="M60.51,321.35l19.1,11.03
						c0.47,0.27,0.86,0.95,0.86,1.49l0,13.28c0,1.09-0.77,1.54-1.72,0.99l-19.1-11.03c-0.47-0.27-0.86-0.95-0.86-1.49l0-13.28
						C58.79,321.25,59.56,320.8,60.51,321.35z"/>
				</g>
				<g id="XMLID_00000071556897766285717360000003017971605195334334_">
					<g id="XMLID_00000111159925948975804620000001923030061858548113_">
						<polygon id="XMLID_00000047776667196254673630000014606896389930962103_" class="st12" points="60.04,323.41 60.69,323.79 
							60.69,335.51 60.04,335.13 						"/>
					</g>
					<g id="XMLID_00000012474437150918159310000013137538790242188714_">
						<polygon id="XMLID_00000132062291910595366930000018109704647828576394_" class="st12" points="62.68,324.94 63.8,325.6 
							63.8,337.32 62.68,336.66 						"/>
					</g>
					<g id="XMLID_00000152252515992460937660000010746488926434637964_">
						<polygon id="XMLID_00000096021283163122782870000002152780224980115349_" class="st12" points="65.33,326.47 65.98,326.84 
							65.98,338.56 65.33,338.19 						"/>
					</g>
					<g id="XMLID_00000089536254833875337220000003671115475504616328_">
						<polygon id="XMLID_00000178165279043452486020000012477961891707102141_" class="st12" points="67.32,327.6 68.62,328.37 
							68.62,340.09 67.32,339.32 						"/>
					</g>
					<g id="XMLID_00000131332844840770716610000007037446072319646121_">
						<polygon id="XMLID_00000170267318874986582710000018234994445739886976_" class="st12" points="70.62,329.52 71.27,329.9 
							71.27,341.62 70.62,341.24 						"/>
					</g>
					<g id="XMLID_00000048466034926473103950000005751455014593617304_">
						<polygon id="XMLID_00000062876514430574855530000017477357540167878016_" class="st12" points="72.52,330.6 73.91,331.42 
							73.91,343.14 72.52,342.32 						"/>
					</g>
					<g id="XMLID_00000042717297976321689920000003868162211856724104_">
						<polygon id="XMLID_00000156586291642453571970000013741090155918278066_" class="st12" points="75.91,332.57 76.56,332.95 
							76.56,344.67 75.91,344.29 						"/>
					</g>
					<g id="XMLID_00000079461899748368540400000006565830200562768043_">
						<polygon id="XMLID_00000147926017003562017090000002056022331301049535_" class="st12" points="77.42,333.43 77.74,333.62 
							77.74,345.34 77.42,345.15 						"/>
					</g>
					<g id="XMLID_00000024690531042518478760000009537867737703435173_">
						<polygon id="XMLID_00000034080305321186099710000011363362588987006879_" class="st12" points="74.7,331.94 75.03,332.12 
							75.03,343.84 74.7,343.66 						"/>
					</g>
					<g id="XMLID_00000150818316301626209370000013197399464605552048_">
						<polygon id="XMLID_00000172411631810294371330000000232709188823070638_" class="st12" points="69.37,328.81 69.7,329 
							69.7,340.72 69.37,340.54 						"/>
					</g>
					<g id="XMLID_00000113314342886167070740000014778871574952257162_">
						<polygon id="XMLID_00000076593646080491036640000012920441531423434937_" class="st12" points="66.46,327.14 66.78,327.33 
							66.78,339.05 66.46,338.86 						"/>
					</g>
					<g id="XMLID_00000139999009149961233590000004943217189822923442_">
						<polygon id="XMLID_00000156585097359923376540000004253677118352206750_" class="st12" points="64.36,325.98 64.68,326.17 
							64.68,337.89 64.36,337.7 						"/>
					</g>
					<g id="XMLID_00000157289437595956443690000015845460561976464028_">
						<polygon id="XMLID_00000083802042393201623750000007121621496910757524_" class="st12" points="61.52,324.26 61.84,324.44 
							61.84,336.16 61.52,335.98 						"/>
					</g>
					<g id="XMLID_00000083803849222486311500000003065493440114636469_">
						<polygon id="XMLID_00000170967778086411610850000015487879052897319591_" class="st12" points="78.56,334.1 79.21,334.48 
							79.21,346.2 78.56,345.82 						"/>
					</g>
				</g>
			</g>
		</g>
	</g>
</g>
<g id="Barcode_00000032642487197284219360000005159971175390458547_">
	<g id="Barcode">
		<g>
			<polygon class="st3" points="197.17,159.81 43.61,248.46 43.61,107.53 197.17,18.88 			"/>
			<path class="st4" d="M43.61,249.51c-0.18,0-0.37-0.05-0.53-0.14c-0.33-0.19-0.53-0.54-0.53-0.91V107.53
				c0-0.38,0.2-0.73,0.53-0.92l153.55-88.65c0.33-0.19,0.73-0.19,1.06,0c0.33,0.19,0.53,0.54,0.53,0.92V159.8
				c0,0.38-0.2,0.73-0.53,0.91L44.14,249.37C43.98,249.47,43.8,249.51,43.61,249.51z M44.67,108.14v138.48l151.44-87.43V20.71
				L44.67,108.14z M197.17,159.8L197.17,159.8L197.17,159.8z"/>
		</g>
		<path class="st12" d="M127.16,73.76l-3.47,2l0,82.67l3.47-2L127.16,73.76z M61.91,223.74l1.73-1l0-112.36l-1.74,1V223.74z
			 M70.65,106.4l-3.47,2l0,82.67l3.47-2L70.65,106.4z M90.08,193.58c-0.49-0.38-1.06-0.54-1.72-0.5c-0.66,0.05-1.36,0.29-2.11,0.72
			c-0.84,0.49-1.5,1.02-1.97,1.6c-0.47,0.58-0.78,1-0.93,1.25l0.47-8.09l6.45-3.73c0.33-0.19,0.5-0.54,0.5-1.05v-0.55
			c0-0.51-0.17-0.67-0.5-0.48l-7.33,4.23c-0.3,0.17-0.46,0.53-0.5,1.08l-0.67,11.71c-0.01,0.22,0.03,0.37,0.14,0.46
			c0.1,0.09,0.23,0.09,0.36,0.01l0.41-0.23c0.24-0.14,0.45-0.37,0.64-0.7c0.19-0.33,0.4-0.69,0.65-1.09c0.25-0.4,0.55-0.8,0.9-1.23
			c0.35-0.42,0.81-0.8,1.38-1.13c0.56-0.32,1.08-0.49,1.56-0.52c0.49-0.03,0.91,0.1,1.27,0.38c0.36,0.27,0.65,0.7,0.85,1.29
			c0.21,0.59,0.32,1.33,0.32,2.23c0,0.97-0.1,1.89-0.32,2.76c-0.21,0.87-0.49,1.67-0.85,2.38c-0.36,0.72-0.78,1.35-1.27,1.89
			c-0.48,0.54-1.01,0.98-1.56,1.3c-0.41,0.23-0.8,0.39-1.2,0.47c-0.4,0.08-0.76,0.05-1.1-0.09c-0.34-0.14-0.63-0.41-0.88-0.79
			c-0.25-0.39-0.43-0.93-0.55-1.62c-0.06-0.31-0.14-0.49-0.24-0.52c-0.1-0.04-0.2-0.02-0.32,0.05l-0.43,0.25
			c-0.14,0.08-0.25,0.2-0.34,0.37c-0.09,0.17-0.13,0.35-0.11,0.55c0.01,0.8,0.14,1.51,0.38,2.13c0.24,0.63,0.57,1.11,1.01,1.45
			c0.43,0.35,0.97,0.53,1.59,0.53c0.63,0.01,1.36-0.23,2.18-0.7c0.75-0.43,1.45-1.01,2.11-1.72c0.66-0.72,1.23-1.56,1.72-2.52
			c0.49-0.96,0.87-2.02,1.16-3.2c0.28-1.17,0.43-2.44,0.43-3.79c0-1.27-0.14-2.3-0.43-3.1C90.96,194.54,90.57,193.95,90.08,193.58z
			 M77.39,192.41c-0.45-0.5-1.01-0.8-1.68-0.88c-0.66-0.09-1.45,0.12-2.35,0.64c-0.9,0.52-1.68,1.21-2.35,2.07
			c-0.67,0.86-1.22,1.79-1.66,2.81c-0.45,1.02-0.78,2.06-0.99,3.13c-0.22,1.08-0.33,2.1-0.33,3.06c0,0.97,0.11,1.87,0.33,2.69
			c0.22,0.83,0.55,1.48,0.99,1.98c0.44,0.49,0.99,0.79,1.66,0.88c0.67,0.08,1.45-0.13,2.35-0.65c0.52-0.3,1.01-0.68,1.46-1.12
			l-3.55,9.74c-0.03,0.06-0.05,0.14-0.08,0.22c-0.02,0.08-0.03,0.18-0.03,0.29c0,0.21,0.04,0.36,0.12,0.47
			c0.08,0.1,0.19,0.11,0.33,0.04l0.45-0.26c0.21-0.12,0.36-0.3,0.45-0.52c0.09-0.22,0.17-0.41,0.25-0.57l4.63-12.75
			c0.14-0.36,0.28-0.77,0.43-1.25c0.15-0.48,0.29-1,0.43-1.56c0.14-0.57,0.25-1.16,0.34-1.79c0.09-0.63,0.14-1.29,0.14-1.99
			c0-0.97-0.11-1.86-0.33-2.69C78.17,193.57,77.84,192.91,77.39,192.41z M76.99,200.52c-0.21,0.85-0.49,1.63-0.85,2.34
			c-0.36,0.72-0.78,1.35-1.26,1.9c-0.48,0.55-0.98,0.98-1.51,1.28c-0.52,0.3-1.02,0.45-1.5,0.45c-0.47,0-0.89-0.16-1.25-0.46
			c-0.36-0.3-0.65-0.75-0.86-1.36c-0.21-0.61-0.31-1.36-0.31-2.26c0-0.9,0.1-1.78,0.31-2.63c0.21-0.86,0.5-1.65,0.86-2.37
			c0.36-0.72,0.78-1.35,1.25-1.9c0.47-0.55,0.97-0.98,1.5-1.28c0.52-0.3,1.03-0.45,1.51-0.46c0.48,0,0.9,0.15,1.26,0.45
			c0.36,0.3,0.65,0.76,0.85,1.38c0.21,0.61,0.32,1.37,0.32,2.27S77.2,199.66,76.99,200.52z M90.27,178.13l1.73-1l0-82.67l-1.74,1
			L90.27,178.13z M57.98,226.01l1.73-1l0-112.36l-1.74,1V226.01z M98.91,90.08l-3.47,2v82.66l3.47-2L98.91,90.08z M103.2,87.72
			l-1.74,1l0,82.67l1.73-1L103.2,87.72z M76.83,102.77l-1.74,1v82.66l1.73-1L76.83,102.77z M87.29,96.86l-5.98,3.39v82.66l5.98-3.39
			L87.29,96.86z M166,51.27l-1.74,1l0,82.67l1.73-1L166,51.27z M161.21,141.79l-8.68,5.01c-0.33,0.19-0.49,0.55-0.49,1.08v0.52
			c0,0.51,0.17,0.67,0.49,0.48l7.67-4.43l-5.78,24.42c-0.03,0.16-0.05,0.27-0.05,0.34c0,0.21,0.04,0.36,0.13,0.46
			c0.08,0.1,0.19,0.12,0.32,0.04l0.47-0.27c0.17-0.1,0.29-0.27,0.37-0.51c0.08-0.25,0.15-0.48,0.22-0.7l5.69-24.05
			c0.06-0.27,0.1-0.49,0.12-0.68c0.03-0.19,0.04-0.42,0.04-0.69v-0.52C161.72,141.76,161.55,141.6,161.21,141.79z M145.51,175.1
			l1.73-1l0-111.62l-1.74,1V175.1z M160,137.39l1.73-1l0-82.67l-1.74,1L160,137.39z M155.42,57.44l-3.47,2l0,82.67l3.47-2
			L155.42,57.44z M173.21,157.02l-7.53,4.35l5.26-11.28c0.83-1.65,1.44-3.15,1.85-4.49c0.41-1.34,0.61-2.73,0.61-4.16
			c0-0.9-0.09-1.73-0.26-2.48c-0.17-0.76-0.45-1.34-0.83-1.77c-0.38-0.43-0.87-0.66-1.47-0.71c-0.6-0.05-1.33,0.18-2.18,0.67
			c-0.85,0.49-1.59,1.14-2.2,1.95c-0.61,0.81-1.12,1.67-1.51,2.61c-0.4,0.93-0.7,1.88-0.89,2.85c-0.19,0.97-0.3,1.85-0.32,2.64
			c0,0.44,0.16,0.57,0.47,0.38l0.45-0.26c0.09-0.05,0.19-0.17,0.31-0.36c0.11-0.19,0.18-0.44,0.21-0.73
			c0.12-1.57,0.47-2.98,1.06-4.23c0.59-1.25,1.39-2.17,2.43-2.77c1.08-0.62,1.91-0.66,2.47-0.11c0.57,0.55,0.85,1.6,0.85,3.14
			c0,0.53-0.03,1.04-0.09,1.52c-0.06,0.49-0.17,1-0.32,1.54c-0.16,0.54-0.37,1.13-0.64,1.77c-0.27,0.64-0.61,1.38-1.03,2.23
			l-5.83,12.33c-0.21,0.42-0.36,0.76-0.44,1.03c-0.08,0.27-0.12,0.52-0.12,0.74v0.52c0,0.51,0.17,0.67,0.5,0.48l9.22-5.32
			c0.34-0.2,0.52-0.55,0.52-1.06v-0.52C173.73,156.98,173.56,156.82,173.21,157.02z M103.94,177.39c-0.41-0.64-0.96-1.02-1.64-1.15
			c-0.68-0.13-1.53,0.11-2.55,0.69c-1.02,0.59-1.87,1.34-2.55,2.25c-0.68,0.91-1.23,1.93-1.65,3.05c-0.42,1.12-0.72,2.31-0.9,3.57
			c-0.18,1.26-0.28,2.53-0.29,3.8c-0.03,2-0.03,3.94,0,5.82c0.01,1.26,0.11,2.42,0.31,3.45c0.19,1.05,0.48,1.89,0.9,2.53
			c0.41,0.63,0.96,1.02,1.64,1.15c0.68,0.13,1.53-0.11,2.55-0.69c1.02-0.59,1.87-1.34,2.55-2.25c0.68-0.91,1.23-1.93,1.64-3.04
			c0.41-1.12,0.71-2.3,0.89-3.56c0.18-1.25,0.29-2.53,0.32-3.81c0.03-1.91,0.03-3.85,0-5.82c-0.01-1.26-0.11-2.42-0.31-3.46
			C104.65,178.88,104.35,178.03,103.94,177.39z M103.72,189.84c-0.03,2.4-0.37,4.46-1.01,6.19c-0.64,1.74-1.63,2.99-2.97,3.76
			c-1.33,0.77-2.32,0.66-2.96-0.33c-0.65-0.99-0.98-2.66-1.01-5.02c-0.02-0.98-0.03-1.89-0.03-2.74c0-0.84,0.01-1.75,0.03-2.73
			c0.03-2.35,0.37-4.4,1.01-6.16c0.64-1.76,1.63-3.02,2.96-3.79c1.32-0.76,2.31-0.64,2.96,0.37c0.65,1.01,0.99,2.67,1.02,4.99
			c0.01,0.96,0.03,1.86,0.03,2.7C103.75,187.92,103.74,188.84,103.72,189.84z M170.82,131.21l3.47-2l0-82.67l-3.47,2L170.82,131.21z
			 M178.98,43.84l0,111.93l3.47-2l0-111.93L178.98,43.84z M116.5,167.61l-8.68,5.01c-0.33,0.19-0.49,0.55-0.49,1.08v0.52
			c0,0.51,0.17,0.67,0.49,0.48l7.67-4.43l-5.78,24.42c-0.03,0.16-0.05,0.27-0.05,0.34c0,0.21,0.04,0.36,0.13,0.46
			c0.08,0.1,0.19,0.12,0.32,0.04l0.47-0.27c0.17-0.1,0.29-0.27,0.37-0.51c0.08-0.25,0.15-0.48,0.22-0.7l5.69-24.05
			c0.06-0.27,0.1-0.49,0.12-0.68c0.03-0.19,0.04-0.42,0.04-0.7v-0.52C117.01,167.58,116.84,167.42,116.5,167.61z M117.05,162.33
			l1.73-1l0-82.66l-1.73,1L117.05,162.33z M133.86,152.43l7.42-4.16l0-82.67l-7.43,4.16V152.43z M113.04,81.92l-6.95,3.9l0,82.67
			l6.95-3.9L113.04,81.92z M136.85,155.87l-0.43,0.25c-0.1,0.06-0.2,0.13-0.29,0.2c-0.09,0.07-0.19,0.2-0.29,0.38l-4.79,8.44
			c-0.12,0.21-0.19,0.41-0.2,0.62c-0.01,0.2,0.03,0.37,0.11,0.5l0.25,0.34c0.19,0.28,0.43,0.19,0.7-0.26l4.02-7.1v20.63
			c0,0.51,0.17,0.67,0.5,0.48l0.43-0.25c0.33-0.19,0.5-0.54,0.5-1.05v-22.71C137.34,155.83,137.18,155.67,136.85,155.87z
			 M128.5,182.84l-7.53,4.35l5.26-11.28c0.83-1.65,1.44-3.15,1.85-4.49c0.41-1.34,0.61-2.73,0.61-4.16c0-0.9-0.09-1.73-0.26-2.48
			c-0.17-0.76-0.45-1.34-0.83-1.77c-0.38-0.43-0.87-0.66-1.47-0.71c-0.6-0.05-1.33,0.18-2.18,0.67c-0.85,0.49-1.59,1.14-2.2,1.95
			c-0.61,0.81-1.12,1.67-1.51,2.61c-0.4,0.93-0.7,1.88-0.89,2.85c-0.19,0.97-0.3,1.85-0.32,2.64c0,0.44,0.16,0.57,0.47,0.38
			l0.45-0.26c0.09-0.05,0.19-0.17,0.31-0.36c0.11-0.19,0.18-0.44,0.21-0.73c0.12-1.57,0.47-2.98,1.06-4.23
			c0.59-1.25,1.39-2.17,2.43-2.77c1.08-0.62,1.91-0.66,2.47-0.11c0.57,0.55,0.85,1.6,0.85,3.14c0,0.53-0.03,1.04-0.09,1.52
			c-0.06,0.49-0.17,1-0.32,1.54c-0.16,0.54-0.37,1.13-0.64,1.77c-0.27,0.64-0.61,1.38-1.03,2.23l-5.83,12.33
			c-0.21,0.42-0.36,0.76-0.44,1.03c-0.08,0.27-0.12,0.52-0.12,0.74v0.52c0,0.51,0.17,0.67,0.5,0.48l9.22-5.32
			c0.34-0.2,0.52-0.55,0.52-1.06v-0.52C129.02,182.8,128.85,182.64,128.5,182.84z"/>
	</g>
</g>
</svg>
