<svg id="Capa_1" data-name="Capa 1" xmlns="http://www.w3.org/2000/svg" viewBox="0 0 718.23 681.61"><defs><style>.cls-1,.cls-4{fill:#4f3649;}.cls-2{fill:#b868a0;}.cls-3{fill:#c36da9;opacity:0.81;}.cls-4{font-size:136.18px;font-family:KimberleyBl-Regular, Kimberley;}</style></defs><path class="cls-1" d="M120.23,270.64c0-139.17,107.62-253.13,244.16-263.41-6.64-.5-13.33-.84-20.1-.84C198.35,6.39,80,124.7,80,270.64S198.35,534.89,344.29,534.89c6.77,0,13.46-.34,20.1-.84C227.85,523.77,120.23,409.81,120.23,270.64Z" transform="translate(-4.96 -6.39)"/><path class="cls-1" d="M608.54,270.64c0-139.17-107.61-253.13-244.15-263.41,6.64-.5,13.33-.84,20.09-.84,145.95,0,264.26,118.31,264.26,264.25S530.43,534.89,384.48,534.89c-6.76,0-13.45-.34-20.09-.84C500.93,523.77,608.54,409.81,608.54,270.64Z" transform="translate(-4.96 -6.39)"/><path class="cls-2" d="M356.57,48.72c26.28.36,49.62,24.75,49.06,51.25-.53,24.93-25.1,48.43-50.14,48-26.52-.48-50.07-25-49-51.06C307.46,71.45,331.47,48.38,356.57,48.72Z" transform="translate(-4.96 -6.39)"/><path class="cls-3" d="M266.48,316.59c0,57.25,35.09,108.45,90.25,142.6,54.34-34.15,88.85-84.94,88.85-141.71,0-57.26-35.09-108.45-90.25-142.6C301,209,266.48,259.82,266.48,316.59Z" transform="translate(-4.96 -6.39)"/><path class="cls-3" d="M399.29,298.18c-40.48,40.49-51.87,101.5-37,164.65,62.58,14.28,122.9,2.76,163-37.38,40.48-40.48,51.87-101.49,37-164.64C499.75,246.52,439.43,258,399.29,298.18Z" transform="translate(-4.96 -6.39)"/><path class="cls-3" d="M329.49,298.18c40.48,40.49,51.87,101.5,37,164.65-62.57,14.28-122.89,2.76-163-37.38C163,385,151.6,324,166.46,260.81,229,246.52,289.35,258,329.49,298.18Z" transform="translate(-4.96 -6.39)"/><text class="cls-4" transform="translate(0 653.56)">Wholemart</text></svg>