<svg id="Capa_1" data-name="Capa 1" xmlns="http://www.w3.org/2000/svg" viewBox="0 0 1151.36 195.13"><defs><style>.cls-1,.cls-2,.cls-3{fill:#fff;}.cls-2{opacity:0.81;}.cls-3{font-size:177.5px;font-family:KimberleyBl-Regular, Kimberley;}</style></defs><path class="cls-1" d="M26.26,102.16A93.77,93.77,0,0,1,112.91,8.68c-2.36-.18-4.73-.3-7.14-.3a93.78,93.78,0,0,0,0,187.56c2.41,0,4.78-.12,7.14-.29A93.78,93.78,0,0,1,26.26,102.16Z" transform="translate(-11.99 -0.81)"/><path class="cls-1" d="M199.55,102.16A93.77,93.77,0,0,0,112.91,8.68c2.35-.18,4.73-.3,7.13-.3a93.78,93.78,0,0,1,0,187.56c-2.4,0-4.78-.12-7.13-.29A93.77,93.77,0,0,0,199.55,102.16Z" transform="translate(-11.99 -0.81)"/><path class="cls-1" d="M110.13,23.41c9.33.12,17.61,8.78,17.41,18.18-.19,8.85-8.9,17.19-17.79,17-9.42-.17-17.77-8.87-17.4-18.12C92.7,31.47,101.22,23.28,110.13,23.41Z" transform="translate(-11.99 -0.81)"/><path class="cls-2" d="M78.16,118.47c0,20.32,12.45,38.49,32,50.61,19.28-12.12,31.53-30.15,31.53-50.29,0-20.32-12.45-38.49-32-50.61C90.41,80.3,78.16,98.32,78.16,118.47Z" transform="translate(-11.99 -0.81)"/><path class="cls-2" d="M125.29,111.94c-14.37,14.36-18.41,36-13.13,58.43,22.2,5.07,43.61,1,57.85-13.27s18.41-36,13.14-58.43C161,93.6,139.54,97.69,125.29,111.94Z" transform="translate(-11.99 -0.81)"/><path class="cls-2" d="M100.52,111.94c14.37,14.36,18.41,36,13.14,58.43-22.21,5.07-43.62,1-57.86-13.27s-18.41-36-13.14-58.43C64.87,93.6,86.27,97.69,100.52,111.94Z" transform="translate(-11.99 -0.81)"/><text class="cls-3" transform="translate(215.24 156.2)">Wholemart</text></svg>