<?xml version="1.0" ?><svg enable-background="new 0 0 160 320" id="Layer_1" version="1.1" viewBox="0 0 160 320" xml:space="preserve" xmlns="http://www.w3.org/2000/svg" xmlns:xlink="http://www.w3.org/1999/xlink"><g><path d="M40.8,91.2l12.7-7.7l-3.1-8.7L44,67.4l-9.6-1.3c-0.1,4-1,10.7-6.9,13.6C26.4,80.3,40.8,91.2,40.8,91.2z" fill="#FBD7C7"/><path d="M26.9,255c-7-2.4-25-17.2-4.2-23c18.4-5.2,23.6-17.9,45.3-5.8c10.7,6,7.3,13.9-10.6,18.2   C45.3,247.3,43.1,260.7,26.9,255z" opacity="0.2"/><path d="M38.2,225.7c-0.3,2.3,1.2,4.4,4.9,5.7c4.1,1.5,9.1,4.3,11.5,5.7c4,2.3,8.7,2.3,11.9,1c2.4-1,2.7-2.5,2.3-5   c-0.4-2.6-3-2.7-7.2-4.3c-3.8-1.5-10.1-7.2-10.1-7.2L38.2,225.7z" fill="#262626"/><path d="M39.6,226.7c3,1,6.4,2,9.3,3.7c3,1.8,10.3,6.3,14.7,5.4c3.2-0.7,4.6-1.9,4.4-3.4c-0.2-1.5-4.1-2.4-7.1-3.7   c-2-0.8-9-6.8-9-6.8L39.6,226.7z" fill="#FFFFFF"/><path d="M19.1,241c2.5,4.3,3.8,10,8.3,12.5c4.5,2.5,8.6,1.9,12.3,0.3c2.2-1,1.4-3.9,0.9-5c-0.5-1.1-2.4-2.3-4.8-4.8   c-3-3.1-4.5-7.7-4.5-7.7L19.1,241z" fill="#262626"/><path d="M21.4,240.5c0,0,2.6,7.9,6.4,9.9c4,2.1,6.6,1.6,10,0.6s3.2-1.8,0.7-3.9s-5.7-5.9-5.8-7.3   S21.4,240.5,21.4,240.5z" fill="#FFFFFF"/><path d="M58.4,135.3c1.8,3.9,4.3,11.7,4.1,24.2c-0.2,12.5-0.1,17.1,0,20.3c0.1,3.3-0.8,5.5-2.7,11.2   c-1.6,5.1-6.6,23.6-6.3,27.4c0.1,0.9,2,1.6,2.4,3.6s0.5,2.7-1.9,4c-2.4,1.3-9.4,5.2-14.4,3.2c-2.1-0.8-3-1-2.8-5.4   c0.2-4.4,0.6-12.9,1.7-21.5c1.1-8.6,4.6-15.5,4.1-21.2c-0.5-5.7-9-21.5-8.2-29.6c0.8-8.1,1-10.3,1-10.3L58.4,135.3z" fill="#06547A"/><path d="M58.4,135.3c1.8,3.9,4.3,11.7,4.1,24.2c-0.2,12.5-0.1,17.1,0,20.3c0.1,3.3-0.8,5.5-2.7,11.2   c-1.6,5.1-6.6,23.6-6.3,27.4c0.1,0.9,2,1.6,2.4,3.6s0.5,2.7-1.9,4c-2.4,1.3-9.4,5.2-14.4,3.2c-2.1-0.8-3-1-2.8-5.4   c0.2-4.4,0.6-12.9,1.7-21.5c1.1-8.6,4.6-15.5,4.1-21.2c-0.5-5.7-9-21.5-8.2-29.6c0.8-8.1,1-10.3,1-10.3L58.4,135.3z" opacity="0.2"/><path d="M48.5,144.7c0,0,2,10.2,0.8,13.5c-1.2,3.3-3.8,3.5-4,6.7c-0.2,3.1-0.6,12.1-1.8,17.3   c-1.2,5.2-3.5,16.2-5,20.2s-2.7,14.6-3.9,20.3c-0.9,4.7-2.1,8.5-1.6,12s1.1,5.2,0.7,5.5s-4.4,0.4-7.3,1.6c-2.8,1.2-6.3,1-8.1-0.5   s-2.7-4.5-1.7-6.9s1.3-3.5,0.2-7.4c-1.1-3.8,0.7-5.2,1.3-7.5c0.6-2.3-0.4-5.5,0.7-10.1c0.7-3.4,4-10,3.9-15.6   c-0.1-5.6-3.3-27.2-2.4-36.3c1-9.1,3.3-14.2,3.3-14.2L48.5,144.7z" fill="#06547A"/><path d="M61.5,84.4c0,0-3.9,23.1-3.6,29.4s0.8,20.6,0.8,20.6l-9.7-5.6c0,0-1.5-12.7-1-16.1s5.5-16.3,5.5-16.3   L61.5,84.4z" fill="#FBD7C7"/><path d="M47.9,74.5c0,0,7.9,0.4,11.5,4.3c3.6,3.9,2,6.5,1.2,8.4s-0.3,3-0.3,6.6c0,3.6-1.4,9.9-3.1,12.5   c-1.7,2.6-0.7,5-0.6,7.9s1,5.9,1.2,10.5c0.2,4.6,1.7,12.6,2,13.7c0.3,1.2-2.7,4.4-11.1,7.4c-6.7,2.3-23.4,1.4-25.7-2.4   c-2.4-3.8,2.3-6.9,2-11.8c-0.3-4.9-5.4-21-5.4-21s-5.1-11.8-5.4-14.2c-0.3-2.4-0.3-8.9,2.7-11.3c2.9-2.4,12.1-6.4,12.1-6.4   s6.6,11,14.8,8.9C53,85.2,47.9,74.5,47.9,74.5z" fill="#656565"/><path d="M29,152.5c0.2-0.9,0.9-1.2,0.9-2.7c-0.1-1.4,0.1-2.7-0.6-3.5c-0.7-0.8-1.6-0.7-2.6-2.1s-3-7.2-4.5-13.7   c-1.4-6.5-3.5-11.3-3.7-11.7c-0.3-0.5,2-3.8,4.4-8.7c2.1-4.4,3.5-8.3,5.3-11c-2.4,0.2-7.3,0.4-9.5-0.2c-1.7-0.5-3.4-1.5-4.5-2.2   c-1.1,7.1-3.8,15.2-4.3,16.8c-0.5,1.8-1.7,4.9,0.3,10.5c2,5.6,9,19,8.9,21.3c-0.1,2.3-0.6,7.8-0.5,9.6c0.1,1.8,1.8,1.7,2.6,2.5   c0.8,0.8,2.6,0.7,2.9,1.7s1.8,1,2.5,1.6c0.7,0.6,2.2,1.2,2.9,0.7c0.7-0.5,0.3-1.8-0.2-2.6C28.9,157.9,28.8,153.4,29,152.5z" fill="#FBD7C7"/><path d="M40.6,48.2c-5.4,0.3-8.4,3.5-8.6,7.1c-0.2,3.5,0,6.2,0,6.2s-1-0.4-1.3,0.8c-0.3,1.3,0.7,4.6,2.5,6.2   c1.8,1.6,2.7,4.7,4.8,6.9s6.7,5.4,9.9,5C51.1,80,53.6,68,53.3,64C53.1,60,53.3,47.5,40.6,48.2z" fill="#FBD7C7"/><path d="M40.6,47.9c-5.4,0.3-8.4,3.6-8.8,7.4c-0.3,2.8-0.1,5.1,0.1,6.1c0.6,0.3,1.6,0.6,2.3,1.7c1,1.7,1,2.4,1,2.4   l1.4-0.5c0,0,1.5-7.5,3.7-8.3s4.1,1.9,7,1.3s2.5-2.9,3.7-3c0.2,0,0.6,0.1,1,0.3C50.5,51.3,47.5,47.5,40.6,47.9z" fill="#762C07"/></g><g><path d="M57.4,309c5.7,0.4,17.8-11.4,17.8-14.3s-3.6-6.2-12.4-5.9c-5.7,0.2-9.2-5.7-14.6-5.4s-9.7,5.4-10.3,8.1   c-0.5,2.7,2.7,5.9,8.6,10.3C52.5,306,49,308.5,57.4,309z" opacity="0.2"/><path d="M55.7,303.8c0,0,0.5,3.6,4.8,2.6c4.3-1,11.6-7.2,11.9-10s0.7-5.7-3-5.8C65.6,290.4,55.6,292.3,55.7,303.8z" fill="#FFFFFF"/><path d="M60.5,306.4c4.3-1,11.6-7.2,11.9-10c0.1-1.1,0.2-2.2,0.1-3.2c-0.6,2.6-3.2,5.6-7.6,9.1   c-3.2,2.6-6.8,3-8.6,3.1C57.1,306.2,58.3,306.9,60.5,306.4z" fill="#262626"/><path d="M43.9,199.3c0,0-4.5,9.1-3.1,16.5s8.4,22.7,7.2,27.2c-1.2,4.5-3.4,17.4-3.2,26.5c0.1,9.1-2.2,13.6-1.1,15.8   c1.1,2.2,2.7,6.2,7.3,5.4s6.2-2.6,6.2-2.6s2.3-41.6,2.3-45.8c0-4.2-2.3-40.9-2.3-40.9L43.9,199.3z" fill="#2D3134"/><path d="M43.9,199.3c0,0-4.5,9.1-3.1,16.5s8.4,22.7,7.2,27.2c-1.2,4.5-3.4,17.4-3.2,26.5c0.1,9.1-2.2,13.6-1.1,15.8   c1.1,2.2,2.7,6.2,7.3,5.4s6.2-2.6,6.2-2.6s2.3-41.6,2.3-45.8c0-4.2-2.3-40.9-2.3-40.9L43.9,199.3z" opacity="0.2"/><path d="M50.3,201.2c0,0-6.4,8.1-4.2,16.9c2.2,8.8,5.5,10.9,7.2,17.2c1.6,6.2,4.2,12.7,3.2,17.3   c-0.9,4.6-4.9,12.3-4.2,20.9c0.7,8.6,0.5,21.5-0.3,25.3s2.2,7.2,5.7,7.2c3.5,0,9.6-5,9.9-6.9s-0.4-3.6-1.2-5.5   c-0.8-1.9-2.2-10.5-0.1-20.1c2-9.6,4.1-18.5,4.5-24.3c0.4-5.8,3.4-12.6,2.3-23.5c-1.1-10.9-3.9-21.1-3.9-21.1L50.3,201.2z" fill="#2D3134"/><path d="M33.5,158.7c0,0-0.1,7.3-1.6,12.4s-3.1,10.7-1.8,13.4c1.4,2.7,8.2,5.8,10.3,9.5c2,3.6,4.6,7.4,4.6,7.4   l2.3-7.4c0,0-5.5-8.2-7.2-10c-1.6-1.8-2.6-3.4-2.6-3.4l2.4-5.8l-3.6-15.7L33.5,158.7z" fill="#FBD7C7"/><path d="M47.4,152.7c0,0-6.6-2.4-10.8-0.8c-4.2,1.6-3.9,7.4-3.9,7.4l1.5,1.1c0,0,2,4.9,2,8c0,3.1,4.1,12.4,5,18.4   c0.9,5.9,2.2,9.3,0.8,12.7c-1.4,3.4-1.9,7.7-1.9,7.7s0.7,2,7.4,4.2c8.5,2.7,23,3.6,23.5,2.4c0.5-1.1-1.1-10.4-1.7-15.3   c-0.5-4.9-1.5-15.7-0.7-16.9c0.8-1.2,3.9-4.3,3.6-7.3c-0.3-3-1.9-5.1-4.7-7.3c-2.8-2.2-5.1-9.2-7.3-9.7S47.4,152.7,47.4,152.7z" fill="#CC291F"/><path d="M58.1,122.7c5.3,0,11.4,0.9,11.8,13.9s3.2,13.6,2.4,17.8c-0.8,4.2-4.3,8.4-18.2,7.7s-15.3-6.6-14.6-9.7   s4.6-8.8,5.4-15C45.6,131.5,47.7,122.7,58.1,122.7z" fill="#825012"/><path d="M56.9,175.2c0,0,1.8,1.3,4.3,1.8c2.4,0.5,6.1,0.3,6.1,0.3s-3.5,9.6-5.7,13s-3.1,6.6-3.1,6.6   s2.2,2.2,4.5,6.1c2.3,3.9,6.2,10,7.3,10.3s1.9-0.1,3.4,1.6c1.5,1.8,5.8,6.1,4.9,6.5s-3.2-1.3-3.2-1.3s1.8,3,1,3.6s-3-1.8-3-1.8   s0.9,1.6,0.2,2.1c-0.7,0.5-0.9,0.2-0.9,0.2s-0.4,0.8-1.3,0.5c-0.9-0.3-3.9-4.3-4.8-6.1c-0.9-1.8-2.2-4.5-3.7-6.2   c-1.6-1.8-12.4-11-12.2-14.1c0.3-3.1,2-12.7,4-17.2C56.6,176.4,56.9,175.2,56.9,175.2z" fill="#FBD7C7"/></g><g><path d="M95.4,93.2c0,0,1.5,13.1,0.2,18.2c-1.3,5.1-2.3,8.4-2.9,14c-0.6,5.6-0.3,10.3-1.3,13s-0.8,7.1-0.3,10   c0.3,2.2,1,6.4,2.1,6.2c1.1-0.2,0.7-1.5,0.9-2.7c0.2-1.1,0.4-2.8,0.2-3.7c-0.1-0.9-0.1-0.8,0.6-1.4s0.2-3.4,0.1-4.7   c-0.4-2.9,2-9.6,3-14.3s4.1-11.6,3.5-16.2c-0.6-4.5-0.7-16.9-0.7-16.9L95.4,93.2z" fill="#FBD7C7"/><path d="M73.8,232.6c-6.2,7.5,4.4,11.2,19.8,12.5c15.4,1.3,29.8,8.1,40.2,2.8c10.5-5.2,4-15.3-16.3-16.6   c-20.3-1.3-19.7-6.1-28.8-4.1S76,229.9,73.8,232.6z" opacity="0.2"/><g><path d="M99.6,230.3c2.4,0,4,4.7-0.4,6c-4.4,1.3-9.2,1.9-10.6,2.1c-2.1,0.2-7.3,0.7-9.8,0    c-2.7-0.7-2.2-3.4-1.5-4.6c0.7-1.1,15.1-4.3,17.7-4.3C97.6,229.6,99.2,230.3,99.6,230.3z" fill="#262626"/><path d="M78.2,236.5c1.5,0.5,6,0.5,9.8,0c1.5-0.2,13.2-2.5,13.9-3.9c0.7-1.4-9.9-5.6-9.9-5.6s-5.5,2.7-7.7,3.1    s-5.4,0.8-7.1,2.7C76.1,234.1,76.9,236.2,78.2,236.5z" fill="#FFFFFF"/></g><path d="M122,233.4c-0.2,2-1.2,6.7,0.5,10.2c1,2.1,6.8,3,9.2,0.5c2.4-2.5-1.4-14.2-1.4-14.2L122,233.4z" fill="#262626"/><path d="M122.6,232.7c0,0-2.8,11.2,4.3,11.1c7.2-0.1,5.1-5.1,4.5-8.5s-2-5.2-2-5.2L122.6,232.7z" fill="#FFFFFF"/><path d="M121.3,234.3c0,0,2.9,0.1,6.7,0.3s4.1-1.6,4.1-1.6s-0.8-6.5-0.9-11.4s0.4-18.8-0.2-25.2   c-0.7-6.4-0.8-11.7,0.4-23.3c1.1-11.6,2.5-18.7,0.2-24.7c-2.3-6-3.7-8.5-3.7-8.5l-31.9,3.4c0,0-3.8,9-4.2,20s2.6,20.8,1.7,26.6   c-0.9,5.9-1.3,18.7-1.9,24.7c-0.9,9.4-4.4,15.5-4.4,15.5s1,3,6.1,3.8s8.7-1.7,8.7-1.7s0.2-6.5,0.9-14.7c0.8-8.2,2.2-16.2,2.4-22.7   c0.2-6.5,0.6-7.5,1-9.2c0.5-1.7,2.3-13.6,3.4-17.1c1.4-4.7,1.8-9.4,2.9-9.4c1.1,0.1,0.9,4.1,2.2,11.9c1.1,6.5,4.8,32.8,4.9,40.8   S121.3,234.3,121.3,234.3z" fill="#CC291F"/><g><path d="M95.9,143.2c0,0-3.8,9-4.2,20s2.6,20.8,1.7,26.6c-0.9,5.9-1.3,18.7-1.9,24.7c-0.9,9.4-4.4,15.5-4.4,15.5    s1,3,6.1,3.8c5.1,0.8,8.7-1.7,8.7-1.7s0.2-6.5,0.9-14.7c0.8-8.2,2.2-16.2,2.4-22.7c0.2-6.5,0.6-7.5,1-9.2    c0.5-1.7,2.3-13.6,3.4-17.1c1.4-4.7,1.8-9.4,2.9-9.4c0,0,1.1-10.4,0.5-17.5L95.9,143.2z" fill="#CC291F"/><path d="M95.9,143.2c0,0-3.8,9-4.2,20s2.6,20.8,1.7,26.6c-0.9,5.9-1.3,18.7-1.9,24.7c-0.9,9.4-4.4,15.5-4.4,15.5    s1,3,6.1,3.8c5.1,0.8,8.7-1.7,8.7-1.7s0.2-6.5,0.9-14.7c0.8-8.2,2.2-16.2,2.4-22.7c0.2-6.5,0.6-7.5,1-9.2    c0.5-1.7,2.3-13.6,3.4-17.1c1.4-4.7,1.8-9.4,2.9-9.4c0,0,1.1-10.4,0.5-17.5L95.9,143.2z" opacity="0.2"/><path d="M114.8,171.1c1.1,6.5,4.8,32.8,4.9,40.8c0.1,8,1.6,22.4,1.6,22.4s2.9,0.1,6.7,0.3c3.8,0.2,4.1-1.6,4.1-1.6    s-0.8-6.5-0.9-11.4c-0.2-4.9,0.4-18.8-0.2-25.2c-0.7-6.4-0.8-11.7,0.4-23.3c1.1-11.6,2.5-18.7,0.2-24.7c-2.3-6-3.7-8.5-3.7-8.5    l-17.5,1.9c0.6,7.1,2.3,17.5,2.3,17.5C113.7,159.3,113.5,163.2,114.8,171.1z" fill="#CC291F"/></g><path d="M127.8,100.1c0,0-2.6,15.5-2.1,20.6s1.3,11.2,2.3,14.8c1,3.6,1.7,6,0.9,7.3c-0.8,1.3-1.8,5.3-1.1,6   c1.8,1.6,2.5,5.6,3,6.6c0.3,0.6,0.9,1.1,1.8,0.6c0.9-0.5,0.2-4.7,0.3-5.7c0.1-1,0.4-5.8,0.4-7.4s0.6-15.7,0-18.8   c-0.5-3-1.4-8.2,0.4-14.7c1.8-6.4,2.8-7.3,2.8-10.2S127.8,100.1,127.8,100.1z" fill="#FBD7C7"/><path d="M107.5,84.4c0,0-12.3,13.3,1.7,14.9c14,1.6,16.5-7.7,13.9-12.8c-2.6-5.2-6.9-7.9-6.9-7.9L107.5,84.4z" fill="#FBD7C7"/><path d="M107.8,85.3c0,0-5.6-1.7-8.9,0.6c-3.3,2.4-3.8,7.7-3.8,7.7s0.6,0.5,1.4,0.9c0.8,0.4,1.3,0.4,1.3,0.4   s0,1.7-0.9,4.2c-0.8,2.6-2.7,5-1.7,8.5c0.9,3.4,3.1,3.9,3.1,4.6c0,0.8,0.6,12.2-0.7,18.5s-2.5,12.8-2.4,14.6   c0,0.3,0.4,5.5,13.1,5.8s20.7-8.8,20.7-8.8s-2.6-6.8-3.7-11c-1-3.9,2.4-17.8,2.4-21.4c0-3.6,0-8.5,0-8.5s1.3,1.2,5.2,1.1   c2.1-0.1,3.7-1.4,3.7-1.4s0.9-5.6-3.1-8.9s-8.6-3.4-8.6-3.4s-5.1,10.4-13.9,8.1C101.6,94.3,107.8,85.3,107.8,85.3z" fill="#3399CC"/><path d="M115.4,57.7c-8.1-0.5-12,3-13.5,8.6c-1.5,5.4,4,15.3-1.8,17.9c0.1,2.2,5.1,4.5,7.3,2.1   c2.2-2.3,2.9-2.4,2.9-2.4L115.4,57.7z" fill="#262626"/><path d="M104.7,67.9c-1.5,3.1-1.9,15.6,0.6,17.6c2.5,2,7.6-1.3,12.5-3.5c4.9-2.3,5.5-19-1.9-19.2   C108.6,62.5,106.3,64.6,104.7,67.9z" fill="#FBD7C7"/><path d="M113.9,57.9c-3.3,0.8-7.1,5.2-6.4,10c1,6.2,13.2,18.3,4.6,22.2c1.4,4.6,9.5,4.3,14,2   c4.3-2.3,4.7-4.5,4.6-5.3s-3.8-4.9-3.8-10.9C126.8,69.9,126.4,54.8,113.9,57.9z" fill="#262626"/><path d="M95.4,107.5c0,0,1.1,4.3,13.6,5.1c12.5,0.9,18.6-4.8,18.6-4.8s-3.3,7.9-17.4,7.4   C96,114.6,95.4,107.5,95.4,107.5z" opacity="0.2"/></g><g><path d="M101.9,195.3c0,0,0.5,4.7,2.1,7s3.4,3.5,3.4,3.5l-0.1-8.3l-1.1-4.3L101.9,195.3z" fill="#FBD7C7"/><path d="M152.1,191.9c0,0,0.7,6.3,1.1,7.5c0.3,1.2-0.7,3.3-2.1,4c-3.1,1.6-5.5,1.1-6.3,0.8   c-1.2-0.4,2.6-12.7,2.6-12.7L152.1,191.9z" fill="#FBD7C7"/><path d="M146.3,129.6c0,0,7,1.1,9.7,5.3c2.7,4.2,0.2,14.2,0.4,20.6s0.2,17.5-0.3,21.8s-2.2,10.6-2.2,12.4   s0.4,3.3-2.4,3.5c-2.8,0.3-5.6-0.6-5.6-0.6s-2.7-23.8-2.3-28.9C144.1,158.7,146.3,129.6,146.3,129.6z" fill="#06547A"/><path d="M150,142.9c0,0,1.2,11.1-0.1,16.2c-1.3,5-2.5,9.9-1.8,13.6c0.7,3.7,2,9.6,1.3,14.2c-0.7,4.6-2.2,7-2.2,7   l-5.9-25.3l5.4-16.4L150,142.9z" opacity="0.2"/><path d="M141.5,293.2c3.1,3.1,9.5,10.6,2.8,14.2c-6.7,3.5-13.8,3.5-20.9,3.2s-25.2-3.2-28-6.3   c-2.8-3.2-3.9-7.9,2.8-9.1c6.7-1.2,11-5.9,20.1-5.5S140.7,292.4,141.5,293.2z" fill="#262626" opacity="0.3"/><path d="M142.1,297.1c0,0-1.4,6.3-5.7,6.3s-18.7-2.2-18.7-2.2l11.4-8.7L142.1,297.1z" fill="#262626"/><path d="M135.2,302c0,0,0.8,6.5-2.4,6.9s-14.4-1-17.6-1c-3.2,0-14.8-2.4-15.8-5.1s0.4-5.7,4.7-5.7   s12.2,0.2,13.6-0.2S135.2,302,135.2,302z" fill="#262626"/><path d="M99.3,300.1c0,0.5,0.1,0.9,0.3,1.4c1,2.8,13,5.3,16.2,5.3s14.8,1.4,18.1,1c0.2,0,0.5-0.1,0.7-0.2   c-0.4,0.7-0.9,1.3-1.8,1.4c-3.2,0.4-14.4-1-17.6-1c-3.2,0-14.8-2.4-15.8-5.1C99.2,301.9,99.1,300.9,99.3,300.1z" fill="#262626"/><path d="M147.2,191.2c0.8,2.6-3.5,29.6-3.5,32.7s-1.8,17-1.4,21.5s1.4,27.2,1.8,34.5s-0.4,18.9-2.4,20.1   c-2,1.2-8.7,1.2-10.6,0.8c-2-0.4-3.9-105.5-3.9-105.5L147.2,191.2z" fill="#656565"/><path d="M147.2,191.2c0.8,2.6-3.5,29.6-3.5,32.7s-1.8,17-1.4,21.5s1.4,27.2,1.8,34.5s-0.4,18.9-2.4,20.1   c-2,1.2-8.7,1.2-10.6,0.8c-2-0.4-3.9-105.5-3.9-105.5L147.2,191.2z" opacity="0.2"/><path d="M133.8,197.1c0,0-1,11.8-1,17.2c0,5.3,2.8,45,3.4,52.7s1.4,33.9,0.2,36.5c-1.2,2.6-3.4,3.5-7.4,2.6   c-3.9-1-9.1-2.4-12.1-6.1c-0.8-1-2.9-2.7-2.9-2.7s3.2-5,2.6-10.5c-0.6-5.5-1.2-15.4-1-19.7c0.2-4.3,0.2-10.6-1.4-16.4   c-1.6-5.7-5.7-17.9-6.9-35.9c-1.2-17.9-0.8-21.5-0.8-21.5L133.8,197.1z" fill="#656565"/><path d="M139,128.1c0,0-4.9,0.4-4.9-3.7s0.1-6.7,0.1-6.7s2.6-1.1,2.4-4.7c-0.2-3.6-1.3-2.8-1.3-2.8l-19.4,1.8   c0,0-1.3,0.4-0.3,3.9c0.4,1.3,1.4,3,1.4,3.5c0,0.5,1,3.5,1.7,3.9c0.7,0.4,1.9,4.8,1.9,6.3c0,1.5-0.7,3.5-0.7,3.5s8.1,0.1,12.8-1   C137.4,131,139,128.1,139,128.1z" fill="#FBD7C7"/><path d="M133.8,122.1c0.4-0.2,0.6-4.3,0.9-6.6c0.3-2.3,2.8-10-1.2-14.9c-3.9-4.9-15.2-4.5-17.3,2.4   c-1.9,6.2-0.7,10,1,13.5c1.7,3.5,3.5,5.2,4.1,6c0.6,0.7,6.2,1.5,7.5,1.4C130,123.8,132.4,122.6,133.8,122.1z" fill="#762C07"/><path d="M120.1,131.1c0.6-0.2,6,0.6,10.5-0.7c4.4-1.3,6.5-3.3,6.5-3.3s9.3,1.8,11.7,3c2.7,1.3,3.1,3.4,3.5,5.5   c0.5,2.6,0.7,5.4,0.4,8.3c-0.9,9.1-4.1,11.7-5,14c-0.9,2.4-2.9,10.9-1.5,17.9c1.4,7,2,15.4,1.8,17.6c-0.2,2.2-2.4,7.7-14.7,8.3   c-14.5,0.7-26.8-4.6-26.8-4.6l0-1.1c0,0-0.7,1.3-2.6,1.2c-1.9-0.1-4-2.3-4-3s-0.4-7.8-0.7-9.4c-0.3-1.6-1.2-2.5,0-6.6   c1.2-4.1,3.8-17.8,4.5-24.4c0.7-6.5,0.9-8.8,4.1-12.6S120.1,131.1,120.1,131.1z" fill="#06547A"/><path d="M106.5,196c0,0,2.1-3.1,2.4-5.1c0.3-2,1-9.3,1.6-10.9c0.6-1.7,0.8-4.8,1.9-7.1c1.1-2.3,7.4-16.2,7.4-16.2   s-0.9,6.4-3,11.3c-0.8,1.9-2.5,3.9-2.5,9.6c0,5.6-2.8,11.4-3.4,12.7c-1.6,3.4-1.5,7-1.5,8c-1.8-0.6-2.9-1.1-2.9-1.1L106.5,196   C106.5,196,106.5,196.1,106.5,196L106.5,196z" opacity="0.2"/></g></svg>