<?xml version="1.0" encoding="utf-8"?>
<!-- Generator: Adobe Illustrator 26.0.0, SVG Export Plug-In . SVG Version: 6.00 Build 0)  -->
<svg version="1.1" id="Capa_1" xmlns="http://www.w3.org/2000/svg" xmlns:xlink="http://www.w3.org/1999/xlink" x="0px" y="0px"
	 viewBox="0 0 612 792" style="enable-background:new 0 0 612 792;" xml:space="preserve">
<style type="text/css">
	.st0{fill:#4560AA;}
	.st1{fill:#3E58A4;}
	.st2{enable-background:new    ;}
	.st3{fill:#77B1E1;}
	.st4{fill:#4B394B;}
	.st5{opacity:0.81;fill:#AF6EA5;enable-background:new    ;}
	.st6{fill:#AF6EA5;}
</style>
<g>
	<g>
		<polygon class="st0" points="408.12,185.24 400.54,180.84 400.54,461.89 408.12,466.3 		"/>
	</g>
	<g>
		<polygon class="st1" points="408.12,466.3 415.72,461.88 414.92,181.29 408.12,185.24 		"/>
	</g>
</g>
<g>
	<g class="st2">
		<g>
			<polygon class="st1" points="466.96,480.75 466.93,491.65 292.44,593.05 292.47,582.15 			"/>
		</g>
		<g>
			<polygon class="st0" points="292.47,582.15 292.44,593.05 188.07,532.79 188.1,521.89 			"/>
		</g>
		<g>
			<polygon class="st3" points="466.96,480.75 292.47,582.15 188.1,521.89 362.59,420.49 			"/>
		</g>
	</g>
</g>
<g>
	<g class="st2">
		<g>
			<polygon class="st0" points="364.07,373.57 356.49,369.16 356.63,417.09 364.21,421.5 			"/>
		</g>
		<g>
			<polygon class="st0" points="363.92,318.81 356.34,314.41 356.47,362.34 364.06,366.75 			"/>
		</g>
		<g>
			<polygon class="st0" points="363.76,264.06 356.18,259.65 356.32,307.58 363.9,311.99 			"/>
		</g>
		<g>
			<polygon class="st3" points="364.21,421.5 356.63,417.09 194.02,511.64 201.6,516.04 			"/>
		</g>
		<g>
			<polygon class="st0" points="363.61,209.31 356.03,204.9 356.16,252.84 363.75,257.24 			"/>
		</g>
		<g>
			<polygon class="st3" points="364.06,366.75 356.47,362.34 193.86,456.88 201.44,461.29 			"/>
		</g>
		<g>
			<polygon class="st0" points="363.45,154.55 355.87,150.15 356.01,198.08 363.59,202.49 			"/>
		</g>
		<g>
			<polygon class="st3" points="363.9,311.99 356.32,307.58 193.71,402.13 201.29,406.53 			"/>
		</g>
		<g>
			<polygon class="st3" points="363.75,257.24 356.16,252.84 193.55,347.38 201.13,351.79 			"/>
		</g>
		<g>
			<polygon class="st3" points="363.59,202.49 356.01,198.08 193.4,292.63 200.98,297.03 			"/>
		</g>
		<g>
			<polygon class="st3" points="369.37,144.3 361.79,139.9 187.3,241.3 194.89,245.7 			"/>
		</g>
		<g>
			<path class="st1" d="M370.17,424.9L195.68,526.3l-0.8-280.59l174.49-101.4L370.17,424.9z M201.13,351.79l162.61-94.54
				l-0.14-47.93L201,303.85L201.13,351.79 M201.6,516.04l162.61-94.54l-0.14-47.93l-162.61,94.54L201.6,516.04 M201.29,406.53
				l162.61-94.54l-0.14-47.93L201.15,358.6L201.29,406.53 M200.98,297.03l162.61-94.54l-0.14-47.93L200.84,249.1L200.98,297.03
				 M201.44,461.29l162.61-94.54l-0.14-47.93l-162.61,94.54L201.44,461.29"/>
		</g>
		<g>
			<polygon class="st0" points="194.89,245.7 187.3,241.3 188.1,521.89 195.68,526.3 			"/>
		</g>
	</g>
</g>
<g>
	<g>
		<g class="st2">
			<g>
				<polygon class="st3" points="431.46,441 221.4,563.07 117.03,502.81 327.09,380.74 				"/>
			</g>
		</g>
	</g>
	<g>
		<polygon class="st0" points="221.4,563.07 221.37,573.97 117,513.71 117.03,502.81 		"/>
	</g>
	<polygon class="st1" points="431.46,441 431.43,451.9 221.37,573.97 221.4,563.07 	"/>
</g>
<path class="st4" d="M344.04,462.96l-94.6-54.62c-0.62-0.36-1.2-0.39-1.62-0.16l-114.44,66.51c0.42-0.23,1.01-0.19,1.66,0.16
	l94.56,54.62c0.75,0.42,1.39,1.23,1.81,2.11l114.43-66.5C345.42,464.2,344.79,463.38,344.04,462.96z"/>
<path class="st5" d="M231.84,551.84c0,0.71-0.26,1.23-0.65,1.46l114.44-66.51c0.39-0.23,0.65-0.75,0.65-1.46l0.06-18.41
	c0-0.59-0.21-1.23-0.5-1.85l-114.43,66.5c0.29,0.61,0.5,1.25,0.5,1.85L231.84,551.84z"/>
<path class="st6" d="M229.61,529.46c1.26,0.73,2.3,2.52,2.29,3.97l-0.05,18.39c0,1.48-1.04,2.05-2.31,1.32l-94.59-54.61
	c-1.26-0.73-2.3-2.5-2.29-3.97l0.05-18.39c0-1.45,1.04-2.05,2.31-1.32L229.61,529.46z"/>
<g>
	<g>
		<g class="st2">
			<g>
				<polygon class="st3" points="431.46,330.57 256.98,431.97 152.6,371.71 327.09,270.31 				"/>
			</g>
		</g>
	</g>
	<g>
		<polygon class="st0" points="256.98,431.97 256.94,442.86 152.57,382.6 152.6,371.71 		"/>
	</g>
	<polygon class="st1" points="431.46,330.57 431.43,341.46 256.94,442.86 256.98,431.97 	"/>
</g>
<path class="st4" d="M375.54,331.82l-94.6-54.62c-0.62-0.36-1.2-0.39-1.62-0.16l-114.44,66.51c0.42-0.23,1.01-0.19,1.66,0.16
	l94.56,54.62c0.75,0.42,1.39,1.23,1.81,2.11l114.43-66.5C376.92,333.05,376.29,332.24,375.54,331.82z"/>
<path class="st5" d="M263.34,420.7c0,0.71-0.26,1.23-0.65,1.46l114.44-66.51c0.39-0.23,0.65-0.75,0.65-1.46l0.07-18.41
	c0-0.59-0.21-1.23-0.5-1.85l-114.43,66.5c0.29,0.61,0.5,1.25,0.5,1.85L263.34,420.7z"/>
<g>
	<path class="st6" d="M261.11,398.32c1.26,0.73,2.3,2.52,2.29,3.97l-0.05,18.39c0,1.48-1.04,2.05-2.31,1.32l-94.59-54.61
		c-1.26-0.73-2.3-2.5-2.29-3.97l0.05-18.39c0-1.45,1.04-2.05,2.31-1.32L261.11,398.32z"/>
</g>
<g>
	<g class="st2">
		<g>
			<polygon class="st0" points="460.87,429.42 453.28,425.01 453.42,472.95 461,477.35 			"/>
		</g>
		<g>
			<polygon class="st0" points="460.71,374.67 453.13,370.26 453.26,418.19 460.85,422.6 			"/>
		</g>
		<g>
			<polygon class="st0" points="460.55,319.91 452.97,315.5 453.11,363.44 460.69,367.84 			"/>
		</g>
		<g>
			<polygon class="st3" points="461,477.35 453.42,472.95 290.81,567.49 298.39,571.9 			"/>
		</g>
		<g>
			<polygon class="st0" points="460.4,265.16 452.82,260.76 452.95,308.69 460.54,313.1 			"/>
		</g>
		<g>
			<polygon class="st3" points="460.85,422.6 453.26,418.19 290.65,512.74 298.23,517.14 			"/>
		</g>
		<g>
			<polygon class="st0" points="460.24,210.41 452.66,206 452.8,253.93 460.38,258.34 			"/>
		</g>
		<g>
			<polygon class="st3" points="460.69,367.84 453.11,363.44 290.5,457.98 298.08,462.39 			"/>
		</g>
		<g>
			<polygon class="st3" points="460.54,313.1 452.95,308.69 290.34,403.23 297.92,407.64 			"/>
		</g>
		<g>
			<polygon class="st3" points="460.38,258.34 452.8,253.93 290.19,348.48 297.77,352.88 			"/>
		</g>
		<g>
			<polygon class="st3" points="466.16,200.16 458.58,195.75 284.09,297.15 291.68,301.56 			"/>
		</g>
		<g>
			<path class="st1" d="M466.23,189.3l-174.5,101.32l0.77,291.58L467,480.78L466.23,189.3z M460.23,210.38l0.19,47.95l-162.61,94.55
				l-0.19-47.95L460.23,210.38z M460.43,265.19l0.1,47.95l-162.61,94.45l-0.1-47.85L460.43,265.19z M460.52,319.91l0.19,47.95
				l-162.61,94.55l-0.19-47.95L460.52,319.91z M298.11,469.18l162.61-94.55l0.1,47.95L298.2,517.13L298.11,469.18z M298.4,571.94
				l-0.1-47.95l162.61-94.55l0.1,47.95L298.4,571.94z"/>
		</g>
		<g>
			<polygon class="st0" points="291.68,301.56 284.09,297.15 284.89,577.74 292.47,582.15 			"/>
		</g>
	</g>
</g>
<g>
	<g>
		<g class="st2">
			<g>
				<polygon class="st3" points="466.19,189.26 291.71,290.66 187.33,230.4 361.82,129 				"/>
			</g>
		</g>
	</g>
	<g>
		<g>
			<polygon class="st0" points="440.92,184.48 425.34,186.11 411.97,178.39 414.75,169.37 			"/>
		</g>
		<g>
			<polygon class="st1" points="440.92,184.48 427.46,192.3 401.3,177.19 414.75,169.37 411.97,178.39 425.34,186.11 			"/>
		</g>
		<g>
			<polygon class="st0" points="389.86,155 374.28,156.63 360.91,148.91 363.69,139.9 			"/>
		</g>
		<g>
			<polygon class="st1" points="389.86,155 376.41,162.82 350.24,147.72 363.69,139.9 360.91,148.91 374.28,156.63 			"/>
		</g>
	</g>
	<g>
		<polygon class="st0" points="291.71,290.66 291.68,301.56 187.3,241.3 187.33,230.4 		"/>
	</g>
</g>
</svg>
